<?xml version="1.0" encoding="utf-8"?>
<!-- Generator: Adobe Illustrator 23.0.1, SVG Export Plug-In . SVG Version: 6.00 Build 0)  -->
<svg version="1.1" xmlns="http://www.w3.org/2000/svg" xmlns:xlink="http://www.w3.org/1999/xlink" x="0px" y="0px"
	 viewBox="0 0 1920 1590" style="enable-background:new 0 0 1920 1590;" xml:space="preserve">
<style type="text/css">
	.st0{clip-path:url(#SVGID_2_);fill:#FFFFFF;}
	.st1{clip-path:url(#SVGID_2_);fill:#CACAEA;}
	.st2{clip-path:url(#SVGID_4_);fill:#FFFFFF;}
	.st3{clip-path:url(#SVGID_4_);fill:#F3E0EA;}
	.st4{clip-path:url(#SVGID_4_);fill:#F2F0F2;}
	.st5{clip-path:url(#SVGID_6_);fill:#F2F0F2;}
	.st6{clip-path:url(#SVGID_6_);fill:#CACAEA;}
	.st7{clip-path:url(#SVGID_8_);fill:#893F87;}
	.st8{clip-path:url(#SVGID_8_);fill:#F3E0EA;}
	.st9{clip-path:url(#SVGID_10_);fill:#F2F0F2;}
	.st10{clip-path:url(#SVGID_10_);fill:#CACAEA;}
	.st11{clip-path:url(#SVGID_12_);fill:#893F87;}
	.st12{clip-path:url(#SVGID_12_);fill:#F3E0EA;}
	.st13{clip-path:url(#SVGID_14_);fill:#F2F0F2;}
	.st14{clip-path:url(#SVGID_14_);fill:#CACAEA;}
	.st15{clip-path:url(#SVGID_16_);fill:#FFFFFF;}
	.st16{clip-path:url(#SVGID_16_);fill:#893F87;}
	.st17{clip-path:url(#SVGID_16_);fill:#F3E0EA;}
	.st18{fill:none;stroke:#3A3A3A;stroke-miterlimit:10;}
	.st19{fill:#3A3A3A;}
	.st20{fill:#F2F0F2;}
	.st21{clip-path:url(#SVGID_18_);fill:#F2F0F2;}
	.st22{clip-path:url(#SVGID_18_);fill:#CACAEA;}
	.st23{fill:#FFFFFF;}
	.st24{fill:#282828;}
	.st25{fill-rule:evenodd;clip-rule:evenodd;fill:#282828;}
	.st26{fill:#282828;stroke:#777777;stroke-width:2;stroke-miterlimit:10;}
	.st27{fill:none;stroke:#924A8F;stroke-width:2;stroke-miterlimit:10;}
	.st28{fill:none;stroke:#777777;stroke-width:2;stroke-miterlimit:10;}
	.st29{fill:#893F87;}
	.st30{fill:#924A8F;}
	.st31{fill:none;stroke:#545454;stroke-width:0.75;stroke-miterlimit:10;}
	.st32{fill:#CACAEA;}
	.st33{clip-path:url(#SVGID_20_);}
	.st34{clip-path:url(#SVGID_22_);}
	.st35{fill:none;}
	.st36{clip-path:url(#SVGID_24_);}
	.st37{clip-path:url(#SVGID_26_);}
	.st38{opacity:0.88;}
	.st39{fill:url(#SVGID_27_);}
	.st40{clip-path:url(#SVGID_29_);fill:#F2F0F2;}
	.st41{clip-path:url(#SVGID_29_);fill:#CACAEA;}
	.st42{fill:#F3E0EA;stroke:#924A8F;stroke-width:5;stroke-miterlimit:10;}
	.st43{fill:#914A8F;}
	.st44{clip-path:url(#SVGID_31_);}
	.st45{clip-path:url(#SVGID_33_);}
	.st46{fill:#EAC1D9;}
	.st47{fill:#EACDC5;}
	.st48{fill:#E6E9ED;}
	.st49{fill:#69326B;}
	.st50{fill:#F8F4F9;}
	.st51{clip-path:url(#SVGID_35_);fill:#F2F0F2;}
	.st52{clip-path:url(#SVGID_35_);fill:#CACAEA;}
	.st53{clip-path:url(#SVGID_37_);fill:#FFFFFF;}
	.st54{clip-path:url(#SVGID_37_);fill:#F2F0F2;}
	.st55{clip-path:url(#SVGID_37_);fill:#893F87;}
</style>
<g id="Layer_1">
</g>
<g id="BGv">
</g>
<g id="Layer_2">
	<g>
		<defs>
			<rect id="SVGID_34_" y="0" width="1920" height="1590"/>
		</defs>
		<clipPath id="SVGID_2_">
			<use xlink:href="#SVGID_34_"  style="overflow:visible;"/>
		</clipPath>
		<path style="clip-path:url(#SVGID_2_);fill:#F2F0F2;" d="M-411-556.7C-70-669.9,416.4-789.5,1008-801.8
			c456-9.5,846.3,47.5,1146.3,114.4c-50.8,528-101.6,1055.9-152.4,1583.9C1178.3,783.7,354.6,670.9-469,558.1
			C-449.6,186.5-430.3-185.1-411-556.7z"/>
		<path style="clip-path:url(#SVGID_2_);fill:#F2F0F2;" d="M2087.1-1412c45.9,111.4,101.6,282,116.4,496.3
			c5.7,82.3,14,295.5-49,514.7c-121,421-447.2,664-600.5,778.2C781,953.1-298.2,710.5-462,671.4c-9,282-18,564-27,846
			c868.9-8.3,1737.8-16.6,2606.7-24.9c138.3-740,276.7-1480,415-2220C2384.2-955.7,2235.7-1183.9,2087.1-1412z"/>
		<path class="st1" d="M2346.7-1316c21.9,118.5,41.2,296.9,11.5,509.7c-11.4,81.7-47.3,292-154.2,493.5
			c-205.2,386.9-574.6,557.4-748.2,637.5C580.6,728.7-425.4,268.6-577.5,196.5c-67,274.1-134,548.1-201,822.2
			c851.9,171.2,1703.8,342.5,2555.7,513.7c288.1-695.5,576.2-1391.1,864.3-2086.6C2543.3-808.2,2445-1062.1,2346.7-1316z"/>
		<path class="st1" d="M2479.5-1330.3c21.9,118.5,41.2,296.9,11.5,509.7c-11.4,81.7-47.3,292-154.2,493.5
			c-205.2,386.9-574.6,557.4-748.2,637.5C713.3,714.4-292.6,254.3-444.7,182.2c-67,274.1,12.8,1186.8-54.2,1460.8
			c851.9,171.2,1716.8-135.2,2568.7,36.1C2357.9,983.5,2486.2,127,2774.3-568.6C2676-822.5,2577.8-1076.4,2479.5-1330.3z"/>
	</g>
</g>
</svg>
