<svg xmlns="http://www.w3.org/2000/svg" xmlns:xlink="http://www.w3.org/1999/xlink" viewBox="0 0 1920 2361.19"><defs><style>.cls-1{fill:none;}.cls-2{clip-path:url(#clip-path);}.cls-3{fill:#fff;}.cls-4{fill:#f3e0ea;}.cls-5{fill:#efeff4;}</style><clipPath id="clip-path"><rect class="cls-1" width="1920" height="2361.19"/></clipPath></defs><title>BG ASSETS For Corporates</title><g id="BGv"><g class="cls-2"><rect class="cls-3" width="1920" height="2361.19"/><path class="cls-4" d="M-19.77,2220.17c462.1,77.92,817.28,85.9,955.92,61.28,13.21-2.35,191.49-30,381.44-88.85h0c145.62-37.55,202-56.36,297.19-70.46a1357.36,1357.36,0,0,1,349.27-6.13q8.43-81.2,16.85-162.38c13.8-51.19,7.25-82.08-7.65-101.11-44.63-57-217.77-8.13-562.22,91.91-323.22,93.88-353.61,102.9-422.81,111.83-230.77,29.8-417.68-2.71-474.89-13.78-340.83-66-488.39-225-571.4-160.85-37.38,28.88-63.85,104.68-1.54,318.63Z"/><path class="cls-5" d="M2002.36,176.59C1672.75,75.45,1393.8,39.83,1199.64,26.47,743.33-4.93,570.55,73.9,467.38,158.21,360.92,245.21,352.85,318.68,351,339,333.6,524.85,482.06,603,555.21,654.55,730,777.66,932.54,764.51,1061.77,774c137.82,10.17,148.86-6.72,318.63,6.13,310.47,23.49,483.07,161.36,425.88,358.47-43.44,149.69-306.39,152.17-481,153.19-251.39,1.47-386.15-52.17-576-88.85-426.08-82.33-706.65-9.52-805.79,12.25C-239,1255.31-545.21,1442-529.89,1731.49c19.08,360.71,575.74,445.59,890,476.42,197.22,19.35,518.71,9.83,833.36-95,74-24.65,148.36-54.81,275.75-82.72,270.93-59.35,470.26-40.24,560.68-27.57,31.32,4.39,56.89,9,73.53,12.25C2069.77,1349,2036.06,842.47,2002.36,176.59Z"/></g></g></svg>