<?xml version="1.0" encoding="utf-8"?>
<!-- Generator: Adobe Illustrator 23.0.1, SVG Export Plug-In . SVG Version: 6.00 Build 0)  -->
<svg version="1.1" xmlns="http://www.w3.org/2000/svg" xmlns:xlink="http://www.w3.org/1999/xlink" x="0px" y="0px"
	 viewBox="0 0 1920 291.8" style="enable-background:new 0 0 1920 291.8;" xml:space="preserve">
<style type="text/css">
	.st0{fill:#F8F3F7;}
	.st1{fill:#F9F7F9;}
	.st2{fill:#FCE8FC;}
	.st3{fill:#1E1E1E;}
	.st4{fill-rule:evenodd;clip-rule:evenodd;fill:#1E1E1E;}
	.st5{fill:#893F87;}
	.st6{fill:#EAC1D9;}
	.st7{fill:#EACDC5;}
	.st8{fill:#E6E9ED;}
	.st9{fill:#69326B;}
	.st10{fill:#777676;}
	.st11{clip-path:url(#SVGID_8_);fill:#A5A5D3;}
	.st12{clip-path:url(#SVGID_8_);fill:#F9F7F9;}
	.st13{fill:#F7E7F0;}
	.st14{fill:#EFEFF4;}
	.st15{fill:none;}
	.st16{clip-path:url(#SVGID_10_);}
	.st17{clip-path:url(#SVGID_12_);}
	.st18{opacity:0.58;clip-path:url(#SVGID_12_);fill:url(#SVGID_13_);}
	.st19{fill:none;stroke:#924A8F;stroke-width:2;stroke-miterlimit:10;}
	.st20{fill:#F3E0EA;stroke:#924A8F;stroke-width:5;stroke-miterlimit:10;}
	.st21{fill:#914A8F;}
	.st22{fill:#F2F0F2;}
	.st23{clip-path:url(#SVGID_15_);fill:#F2F0F2;}
	.st24{clip-path:url(#SVGID_15_);fill:#CACAEA;}
	.st25{fill:#FFFFFF;}
	.st26{fill:#282828;}
	.st27{fill-rule:evenodd;clip-rule:evenodd;fill:#282828;}
	.st28{fill:#282828;stroke:#777777;stroke-width:2;stroke-miterlimit:10;}
	.st29{fill:none;stroke:#777777;stroke-width:2;stroke-miterlimit:10;}
	.st30{fill:#924A8F;}
	.st31{fill:none;stroke:#545454;stroke-width:0.75;stroke-miterlimit:10;}
	.st32{fill:#CACAEA;}
	.st33{clip-path:url(#SVGID_17_);}
	.st34{fill:#7171C6;}
	.st35{fill:#5B5BAA;}
	.st36{fill:#FCA4BD;stroke:#DD6C92;stroke-miterlimit:10;}
	.st37{fill:#FFFFFF;stroke:#484887;stroke-miterlimit:10;}
	.st38{fill:#395CBA;}
	.st39{fill:none;stroke:#2E2E3F;stroke-width:10;stroke-miterlimit:10;}
	.st40{clip-path:url(#SVGID_21_);fill:#FFFFFF;}
	.st41{clip-path:url(#SVGID_21_);fill:#F7E7F0;}
	.st42{clip-path:url(#SVGID_23_);fill:#FFFFFF;}
	.st43{clip-path:url(#SVGID_23_);fill:#F7E7F0;}
</style>
<g id="Layer_1">
</g>
<g id="BGv">
</g>
<g id="Layer_2">
	<g>
		<defs>
			<rect id="SVGID_7_" x="-3133.9" y="-1327.3" width="1922.6" height="2379.5"/>
		</defs>
		<clipPath id="SVGID_2_">
			<use xlink:href="#SVGID_7_"  style="overflow:visible;"/>
		</clipPath>
		<path style="clip-path:url(#SVGID_2_);fill:#A5A5D3;" d="M1025.7,549.9l45.5-1603.1c-172.5,45.8-428.2,97.5-738.6,97.6
			c-372.8,0.2-567.2-74-845.8-120.9c-628.4-105.7-794.2,77.6-1490.6,83.8c-329.6,2.9-522.7-36-723-87.3
			c-99.6-29.3-201.1-60.3-301.4-91.5c-194.4-60.5-275.2-110-625.3-146.6c-0.2,0-0.4-0.1-0.6-0.1
			c-524.7-42.9-1057.6,14.4-1809.4,176.3l-0.9,1728L1025.7,549.9z"/>
		<path style="clip-path:url(#SVGID_2_);fill:#F9F7F9;" d="M1128.4,685.2l45.5-1675.1c-172.5,45.8-428.2,97.5-738.6,97.6
			c-372.8,0.2-567.2-74-845.8-120.9c-628.4-105.7-794.2,77.6-1490.6,83.8c-329.6,2.9-522.7-36-723-87.3
			c-99.6-29.3-201.1-60.3-301.4-91.5c-194.4-60.5-275.2-110-625.3-146.6c-0.2,0-0.4-0.1-0.6-0.1
			c-524.7-42.9-1057.6,14.4-1809.4,176.3l-0.9,1799.9L1128.4,685.2z"/>
	</g>
	<g>
		<defs>
			<rect id="SVGID_22_" width="1920" height="291.8"/>
		</defs>
		<clipPath id="SVGID_4_">
			<use xlink:href="#SVGID_22_"  style="overflow:visible;"/>
		</clipPath>
		<rect style="clip-path:url(#SVGID_4_);fill:#FFFFFF;" width="1920" height="291.8"/>
		<path style="clip-path:url(#SVGID_4_);fill:#F7E7F0;" d="M2271-641.6c-368.9-63.5-662.6-47.8-866-20.4
			C1102.8-621.3,974.8-551.4,677.8-515c-344.9,42.3-635.1,4.8-829.3-34.7c4.1,194.7,8.2,389.4,12.3,584.2
			C80.8,107.7,341.9,174.3,639,212.2c713.6,91,1312.4-24.4,1703.5-137.9C2318.6-164.3,2294.8-403,2271-641.6z"/>
	</g>
</g>
</svg>
