<?xml version="1.0" encoding="utf-8"?>
<!-- Generator: Adobe Illustrator 23.0.1, SVG Export Plug-In . SVG Version: 6.00 Build 0)  -->
<svg version="1.1" id="Layer_1" xmlns="http://www.w3.org/2000/svg" xmlns:xlink="http://www.w3.org/1999/xlink" x="0px" y="0px"
	 viewBox="0 0 1920 856.3" style="enable-background:new 0 0 1920 856.3;" xml:space="preserve">
<style type="text/css">
	.st0{fill:#EAC1D9;}
	.st1{fill:#EACDC5;}
	.st2{fill:#E6E9ED;}
	.st3{fill:#69326B;}
	.st4{fill:none;}
	.st5{fill:#CACAEA;}
	.st6{clip-path:url(#SVGID_2_);}
	.st7{fill:#F3E0EA;stroke:#924A8F;stroke-width:5;stroke-miterlimit:10;}
	.st8{fill:#914A8F;}
	.st9{clip-path:url(#SVGID_6_);}
	.st10{clip-path:url(#SVGID_8_);}
	.st11{opacity:0.58;clip-path:url(#SVGID_8_);fill:url(#SVGID_11_);}
	.st12{fill:#7171C6;}
	.st13{fill:#5B5BAA;}
	.st14{fill:#FCA4BD;}
	.st15{fill:#FFFFFF;}
	.st16{fill:#395CBA;}
	.st17{clip-path:url(#SVGID_17_);fill:#EFEFF4;}
	.st18{clip-path:url(#SVGID_19_);fill:#F7E7F0;}
	.st19{clip-path:url(#SVGID_21_);fill:#A5A5D3;}
	.st20{clip-path:url(#SVGID_21_);fill:#F9F7F9;}
</style>
<g>
	<defs>
		<rect id="SVGID_16_" y="0" width="1920" height="856.3"/>
	</defs>
	<clipPath id="SVGID_2_">
		<use xlink:href="#SVGID_16_"  style="overflow:visible;"/>
	</clipPath>
	<path style="clip-path:url(#SVGID_2_);fill:#EFEFF4;" d="M-223,820c332.6,67,496.2-2.2,584.2-77.6
		c99.3-85.1,80.8-159.8,202.2-263.5c181.6-155.1,418.7-155.3,482-153.2c200.7,6.8,185.3,89,457.5,120.5
		c192.2,22.2,367.4,0.6,435.1-8.2c82.9-10.7,152-24.9,202.2-36.8c4.1-167.5,8.2-335,12.3-502.5C1356.6-80.1,560.7-58.9-235.3-37.8
		C-231.2,248.1-227.1,534.1-223,820z"/>
</g>
</svg>
