<?xml version="1.0" encoding="utf-8"?>
<!-- Generator: Adobe Illustrator 23.0.1, SVG Export Plug-In . SVG Version: 6.00 Build 0)  -->
<svg version="1.1" id="Layer_1" xmlns="http://www.w3.org/2000/svg" xmlns:xlink="http://www.w3.org/1999/xlink" x="0px" y="0px"
	 viewBox="0 0 1920 1835.2" style="enable-background:new 0 0 1920 1835.2;" xml:space="preserve">
<style type="text/css">
	.st0{fill:#EAC1D9;}
	.st1{fill:#EACDC5;}
	.st2{fill:#E6E9ED;}
	.st3{fill:#69326B;}
	.st4{fill:none;}
	.st5{fill:#CACAEA;}
	.st6{clip-path:url(#SVGID_2_);}
	.st7{fill:#F3E0EA;stroke:#924A8F;stroke-width:5;stroke-miterlimit:10;}
	.st8{fill:#914A8F;}
	.st9{clip-path:url(#SVGID_6_);}
	.st10{clip-path:url(#SVGID_8_);}
	.st11{opacity:0.58;clip-path:url(#SVGID_8_);fill:url(#SVGID_11_);}
	.st12{fill:#7171C6;}
	.st13{fill:#5B5BAA;}
	.st14{fill:#FCA4BD;}
	.st15{fill:#FFFFFF;}
	.st16{fill:#395CBA;}
	.st17{clip-path:url(#SVGID_17_);fill:#EFEFF4;}
	.st18{clip-path:url(#SVGID_19_);fill:#F7E7F0;}
	.st19{clip-path:url(#SVGID_21_);fill:#A5A5D3;}
	.st20{clip-path:url(#SVGID_21_);fill:#F9F7F9;}
</style>
<g>
	<defs>
		<rect id="SVGID_20_" y="0" width="1920" height="1835.2"/>
	</defs>
	<clipPath id="SVGID_2_">
		<use xlink:href="#SVGID_20_"  style="overflow:visible;"/>
	</clipPath>
	<path style="clip-path:url(#SVGID_2_);fill:#A5A5D3;" d="M4156.9,1763.8l45.5-1603.1c-172.5,45.8-428.2,97.5-738.6,97.6
		c-372.8,0.2-567.2-74-845.8-120.9c-628.4-105.7-794.2,77.6-1490.6,83.8c-329.6,2.9-522.7-36-723-87.3
		C304.9,104.6,203.4,73.6,103,42.4c-194.4-60.5-275.2-110-625.3-146.6c-0.2,0-0.4-0.1-0.6-0.1C-1047.6-147.2-1580.5-89.9-2332.3,72
		l-0.9,1728L4156.9,1763.8z"/>
	<path style="clip-path:url(#SVGID_2_);fill:#F9F7F9;" d="M4259.6,1899.1l45.5-1675.1c-172.5,45.8-428.2,97.5-738.6,97.6
		c-372.8,0.2-567.2-74-845.8-120.9c-628.4-105.7-794.2,77.6-1490.6,83.8c-329.6,2.9-522.7-36-723-87.3
		C407.5,168,306,137,205.7,105.8C11.3,45.3-69.5-4.2-419.6-40.9c-0.2,0-0.4-0.1-0.6-0.1C-945-83.9-1477.9-26.5-2229.7,135.3
		l-0.9,1799.9L4259.6,1899.1z"/>
</g>
</svg>
