<svg xmlns="http://www.w3.org/2000/svg" viewBox="0 0 234.23 234.23"><defs><style>.cls-1{fill:#cacaea;}.cls-2{fill:#eac1d9;}.cls-3{fill:#fff;}.cls-4{fill:#69326b;}</style></defs><title>ICONS</title><g id="Layer_1" data-name="Layer 1"><rect class="cls-1" width="234.23" height="234.23" rx="15.09"/><path class="cls-2" d="M100.92,45.79a12.17,12.17,0,0,0-10.19,5.48,17.37,17.37,0,0,1-10,7.29,12.13,12.13,0,0,0-9,12.31,17.31,17.31,0,0,1-3.83,11.79,12.15,12.15,0,0,0,0,15.22,17.32,17.32,0,0,1,3.83,11.79,12.15,12.15,0,0,0,9,12.32,17.33,17.33,0,0,1,10,7.28,12.19,12.19,0,0,0,10.19,5.48,12.32,12.32,0,0,0,4.29-.77,17.33,17.33,0,0,1,12.39,0,12.19,12.19,0,0,0,14.47-4.7,17.36,17.36,0,0,1,10-7.28A12.15,12.15,0,0,0,151,109.67a17.32,17.32,0,0,1,3.83-11.79,12.15,12.15,0,0,0,0-15.22A17.32,17.32,0,0,1,151,70.87a12.13,12.13,0,0,0-8.95-12.31,17.45,17.45,0,0,1-10-7.28,12.18,12.18,0,0,0-14.47-4.71,17.43,17.43,0,0,1-12.4,0A12.09,12.09,0,0,0,100.92,45.79Z"/><path class="cls-3" d="M99.68,115.59a9.07,9.07,0,0,1-5.38-1.78A9,9,0,0,1,91,103.57l1.54-4.75a3.86,3.86,0,0,0-1.42-4.36l-4-2.93A9.16,9.16,0,0,1,92.44,75h5a3.88,3.88,0,0,0,3.71-2.69l1.54-4.75a9.16,9.16,0,0,1,17.43,0l1.54,4.74a3.89,3.89,0,0,0,3.71,2.7h5a9.16,9.16,0,0,1,5.39,16.57l-4,2.94a3.88,3.88,0,0,0-1.42,4.35l1.55,4.75a9.17,9.17,0,0,1-5.89,11.55,9.4,9.4,0,0,1-2.83.44,9.09,9.09,0,0,1-5.39-1.75l-4-2.93a3.89,3.89,0,0,0-4.59,0l-4,2.93A9.07,9.07,0,0,1,99.68,115.59Zm11.71-10.73a9.09,9.09,0,0,1,5.39,1.75l4,2.94a3.9,3.9,0,0,0,6-4.36l-1.54-4.75A9.11,9.11,0,0,1,128.6,90.2l4-2.93a3.9,3.9,0,0,0-2.3-7h-5a9.14,9.14,0,0,1-8.72-6.33l-1.54-4.75a3.89,3.89,0,0,0-3.7-2.7,4.07,4.07,0,0,0-1.2.19,3.9,3.9,0,0,0-2.51,2.51l-1.54,4.74a9.12,9.12,0,0,1-8.7,6.34h-5a3.9,3.9,0,0,0-2.29,7l4,2.93a9.09,9.09,0,0,1,3.33,10.24L96,105.19a3.89,3.89,0,0,0,3.71,5.1,3.91,3.91,0,0,0,2.29-.74l4-2.94A9,9,0,0,1,111.39,104.86Z"/><path class="cls-4" d="M85.89,184.16a2.63,2.63,0,0,1-2.63-2.63V129l-.26-.18a12.21,12.21,0,0,0-3.68-1.7A17.43,17.43,0,0,1,66.49,109.4a12.11,12.11,0,0,0-2.67-8.21,17.42,17.42,0,0,1,0-21.84,12.09,12.09,0,0,0,2.67-8.21A17.43,17.43,0,0,1,79.32,53.47a12.06,12.06,0,0,0,7-5.08,17.5,17.5,0,0,1,20.77-6.75,12.06,12.06,0,0,0,8.64,0,17.52,17.52,0,0,1,20.76,6.76,12.09,12.09,0,0,0,7,5.07,17.42,17.42,0,0,1,12.84,17.67A12.11,12.11,0,0,0,159,79.35a17.42,17.42,0,0,1,0,21.84,12.11,12.11,0,0,0-2.67,8.21,17.42,17.42,0,0,1-12.84,17.67,12.15,12.15,0,0,0-3.67,1.7l-.26.18v52.58a2.67,2.67,0,0,1-.58,1.65,2.64,2.64,0,0,1-2.05,1h0a2.59,2.59,0,0,1-1.66-.59L111.4,164.3,87.55,183.57A2.65,2.65,0,0,1,85.89,184.16Zm25.51-25.88a2.6,2.6,0,0,1,1.65.59L134.28,176v-41.1l-1,.85A17.63,17.63,0,0,1,121.84,140a17.06,17.06,0,0,1-6.12-1.13,12.21,12.21,0,0,0-8.64,0,17.5,17.5,0,0,1-17.57-3.11l-1-.86V176l21.22-17.14A2.65,2.65,0,0,1,111.4,158.28ZM100.92,45.79a12.17,12.17,0,0,0-10.19,5.48,17.37,17.37,0,0,1-10,7.29,12.13,12.13,0,0,0-9,12.31,17.31,17.31,0,0,1-3.83,11.79,12.15,12.15,0,0,0,0,15.22,17.32,17.32,0,0,1,3.83,11.79,12.15,12.15,0,0,0,9,12.32,17.33,17.33,0,0,1,10,7.28,12.19,12.19,0,0,0,10.19,5.48,12.32,12.32,0,0,0,4.29-.77,17.33,17.33,0,0,1,12.39,0,12.19,12.19,0,0,0,14.47-4.7,17.36,17.36,0,0,1,10-7.28A12.15,12.15,0,0,0,151,109.67a17.32,17.32,0,0,1,3.83-11.79,12.15,12.15,0,0,0,0-15.22A17.32,17.32,0,0,1,151,70.87a12.13,12.13,0,0,0-8.95-12.31,17.45,17.45,0,0,1-10-7.28,12.18,12.18,0,0,0-14.47-4.71,17.43,17.43,0,0,1-12.4,0A12.09,12.09,0,0,0,100.92,45.79Z"/></g></svg>