<svg xmlns="http://www.w3.org/2000/svg" viewBox="0 0 234.23 234.23"><defs><style>.cls-1{fill:#cacaea;}.cls-2{fill:#eac1d9;}.cls-3{fill:#eacdc5;}.cls-4{fill:#e6e9ed;}.cls-5{fill:#fff;}.cls-6{fill:#69326b;}</style></defs><title>ICONS</title><g id="Layer_1" data-name="Layer 1"><rect class="cls-1" width="234.23" height="234.23" rx="15.09"/><path class="cls-2" d="M145.39,49.14H82.64a5.24,5.24,0,0,0-5.23,5.23V159a5.24,5.24,0,0,0,5.23,5.23h62.75a5.25,5.25,0,0,0,5.23-5.23v-2.61a7.85,7.85,0,1,1,0-15.69,7.85,7.85,0,1,1,0-15.69,7.85,7.85,0,1,1,0-15.69,7.84,7.84,0,1,1,0-15.68V54.37A5.25,5.25,0,0,0,145.39,49.14Z"/><path class="cls-3" d="M142.77,164.18,111.4,199,61.72,181.7V96.2a15.67,15.67,0,0,1,15.69,15.69V159a5.24,5.24,0,0,0,5.23,5.23Z"/><path class="cls-3" d="M153.23,125a7.85,7.85,0,1,1,0,15.69h-2.61a7.85,7.85,0,1,1,0-15.69Z"/><path class="cls-3" d="M153.23,140.65a7.85,7.85,0,1,1,0,15.69h-2.61a7.85,7.85,0,1,1,0-15.69Z"/><path class="cls-3" d="M153.23,109.27a7.85,7.85,0,1,1,0,15.69h-2.61a7.85,7.85,0,1,1,0-15.69Z"/><path class="cls-4" d="M114,145.88a5.23,5.23,0,1,1-5.23,5.23A5.24,5.24,0,0,1,114,145.88Z"/><path class="cls-3" d="M153.23,93.59a7.84,7.84,0,1,1,0,15.68h-2.61a7.84,7.84,0,1,1,0-15.68Z"/><path class="cls-5" d="M114,83.13A20.92,20.92,0,1,1,93.1,104.05,20.93,20.93,0,0,1,114,83.13Z"/><path class="cls-6" d="M114,127.59a23.53,23.53,0,1,1,23.53-23.53A23.56,23.56,0,0,1,114,127.59Zm0-41.83a18.3,18.3,0,1,0,18.31,18.3A18.32,18.32,0,0,0,114,85.76Z"/><path class="cls-6" d="M114,114.5a2.61,2.61,0,0,1-2.61-2.61V96.2a2.62,2.62,0,0,1,5.23,0v15.69A2.61,2.61,0,0,1,114,114.5Z"/><path class="cls-6" d="M121.86,106.66H106.17a2.62,2.62,0,0,1,0-5.23h15.69a2.62,2.62,0,0,1,0,5.23Z"/><path class="cls-6" d="M77.41,114.5a2.61,2.61,0,0,1-2.61-2.61A13.09,13.09,0,0,0,61.72,98.82a2.62,2.62,0,0,1,0-5.23A18.33,18.33,0,0,1,80,111.89,2.61,2.61,0,0,1,77.41,114.5Z"/><path class="cls-6" d="M61.72,184.3a2.61,2.61,0,0,1-2.61-2.62V96.2a2.62,2.62,0,0,1,5.23,0v85.48A2.62,2.62,0,0,1,61.72,184.3Z"/><path class="cls-6" d="M145.39,166.79H82.64A7.85,7.85,0,0,1,74.8,159V54.37a7.85,7.85,0,0,1,7.84-7.84h62.75a7.85,7.85,0,0,1,7.84,7.84,2.62,2.62,0,0,1-5.23,0,2.61,2.61,0,0,0-2.61-2.61H82.64A2.61,2.61,0,0,0,80,54.37V159a2.62,2.62,0,0,0,2.61,2.62h62.75A2.62,2.62,0,0,0,148,159a2.62,2.62,0,0,1,5.23,0A7.85,7.85,0,0,1,145.39,166.79Z"/><path class="cls-6" d="M150.62,95.88A2.62,2.62,0,0,1,148,93.26V54.37a2.62,2.62,0,0,1,5.23,0V93.26A2.61,2.61,0,0,1,150.62,95.88Z"/><path class="cls-6" d="M150.62,143.27a10.46,10.46,0,0,1,0-20.92,2.62,2.62,0,0,1,0,5.23,5.23,5.23,0,0,0,0,10.46,2.62,2.62,0,0,1,0,5.23Z"/><path class="cls-6" d="M150.62,159a10.46,10.46,0,0,1,0-20.92,2.62,2.62,0,0,1,0,5.23,5.23,5.23,0,0,0,0,10.46,2.62,2.62,0,0,1,0,5.23Z"/><path class="cls-6" d="M153.23,143.26a2.62,2.62,0,0,1,0-5.23,5.23,5.23,0,0,0,0-10.46,2.62,2.62,0,0,1,0-5.23,10.46,10.46,0,0,1,0,20.92Z"/><path class="cls-6" d="M153.23,159a2.62,2.62,0,0,1,0-5.23,5.23,5.23,0,1,0,0-10.46,2.62,2.62,0,0,1,0-5.23,10.46,10.46,0,0,1,0,20.92Z"/><path class="cls-6" d="M153.23,143.26h-2.61a2.62,2.62,0,1,1,0-5.23h2.61a2.62,2.62,0,1,1,0,5.23Z"/><path class="cls-6" d="M153.23,159h-2.61a2.62,2.62,0,1,1,0-5.23h2.61a2.62,2.62,0,1,1,0,5.23Z"/><path class="cls-6" d="M150.62,127.58a10.46,10.46,0,0,1,0-20.92,2.62,2.62,0,0,1,0,5.23,5.23,5.23,0,0,0,0,10.46,2.62,2.62,0,0,1,0,5.23Z"/><path class="cls-6" d="M150.62,111.89a10.46,10.46,0,0,1,0-20.92,2.62,2.62,0,0,1,0,5.23,5.23,5.23,0,0,0,0,10.46,2.62,2.62,0,0,1,0,5.23Z"/><path class="cls-6" d="M153.23,127.57a2.62,2.62,0,0,1,0-5.23,5.23,5.23,0,1,0,0-10.45,2.62,2.62,0,0,1,0-5.23,10.46,10.46,0,1,1,0,20.91Z"/><path class="cls-6" d="M153.23,111.89a2.62,2.62,0,0,1,0-5.23,5.23,5.23,0,1,0,0-10.46,2.62,2.62,0,0,1,0-5.23,10.46,10.46,0,1,1,0,20.92Z"/><path class="cls-6" d="M153.23,111.89h-2.61a2.62,2.62,0,1,1,0-5.23h2.61a2.62,2.62,0,1,1,0,5.23Z"/><path class="cls-6" d="M153.23,96.2h-2.61a2.62,2.62,0,1,1,0-5.23h2.61a2.62,2.62,0,1,1,0,5.23Z"/><path class="cls-6" d="M153.23,127.57h-2.61a2.62,2.62,0,1,1,0-5.23h2.61a2.62,2.62,0,1,1,0,5.23Z"/><path class="cls-6" d="M111.4,201.58a2.59,2.59,0,0,1-1.75-.67,2.62,2.62,0,0,1-.19-3.7l31.37-34.78a2.61,2.61,0,1,1,3.88,3.5l-31.37,34.79a2.62,2.62,0,0,1-1.94.86Z"/><path class="cls-6" d="M116.63,203.4a2.55,2.55,0,0,1-.86-.15L55.64,182.33a2.61,2.61,0,0,1,1.71-4.93l60.14,20.91a2.62,2.62,0,0,1-.86,5.09Z"/><path class="cls-6" d="M150.62,161.57A2.62,2.62,0,0,1,148,159v-2.61a2.62,2.62,0,1,1,5.23,0V159A2.61,2.61,0,0,1,150.62,161.57Z"/><path class="cls-6" d="M114,159a7.85,7.85,0,1,1,7.85-7.84A7.85,7.85,0,0,1,114,159Zm0-10.46a2.62,2.62,0,1,0,2.62,2.62A2.61,2.61,0,0,0,114,148.49Z"/><path class="cls-6" d="M106.25,62.21a2.62,2.62,0,0,1,0-5.23h0a2.62,2.62,0,0,1,0,5.23Z"/><path class="cls-6" d="M121.86,62.21H114A2.62,2.62,0,0,1,114,57h7.85a2.62,2.62,0,0,1,0,5.23Z"/></g></svg>