<svg xmlns="http://www.w3.org/2000/svg" viewBox="0 0 234.23 234.23"><defs><style>.cls-1{fill:#cacaea;}.cls-2{fill:#eac1d9;}.cls-3{fill:#e6e9ed;}.cls-4{fill:#69326b;}</style></defs><title>ICONS</title><g id="Layer_1" data-name="Layer 1"><rect class="cls-1" width="234.23" height="234.23" rx="15.09"/><path class="cls-2" d="M164.13,183.86h-94a9.11,9.11,0,0,1-7.86-13.73l17.46-29.74s0,0,0,0a67.79,67.79,0,0,0,38.08-1.09,63.35,63.35,0,0,1,35.45-1l0,0L172,170.13a9.11,9.11,0,0,1-7.86,13.73Z"/><path class="cls-3" d="M130.42,167.71a8.41,8.41,0,1,1,8.4-8.41h0A8.42,8.42,0,0,1,130.42,167.71Z"/><path class="cls-3" d="M99.54,164.69a4.12,4.12,0,1,1,4.12-4.12h0A4.13,4.13,0,0,1,99.54,164.69Z"/><path class="cls-4" d="M95.74,45.81s0,0,0,0h.38A11,11,0,0,0,85,55.65,10.76,10.76,0,0,0,95.74,67.38h0s0,0,0,0v36.64h0L76.67,136.54,58.31,167.81a13.69,13.69,0,0,0,11.8,20.62h94a13.69,13.69,0,0,0,11.8-20.61h0l-19.19-32.67L138.5,104.05h0V67.4a0,0,0,0,1,0,0h-.09a11,11,0,0,0,11.08-9.8,10.77,10.77,0,0,0-10.72-11.74h-.27a0,0,0,0,1,0,0Zm38.18,21.56v37.52a2.28,2.28,0,0,0,.78,1.72l15.39,26.21a0,0,0,0,1,0,0,67.84,67.84,0,0,0-33.64,2.08,63.16,63.16,0,0,1-34.24,1.32,0,0,0,0,1,0,0l17.38-29.6a2.3,2.3,0,0,0,.77-1.72V67.37l0-2.46a2,2,0,0,0-1.93-2l-2.67-.11a6.2,6.2,0,1,1,0-12.4H138.5a6.37,6.37,0,0,1,6.48,6,6.2,6.2,0,0,1-6.19,6.37l-2.91.11a2,2,0,0,0-1.94,2Zm30.21,116.49h-94a9.11,9.11,0,0,1-7.86-13.73l17.46-29.74s0,0,0,0a67.79,67.79,0,0,0,38.08-1.09,63.35,63.35,0,0,1,35.45-1l0,0L172,170.13a9.11,9.11,0,0,1-7.86,13.73Z"/><path class="cls-4" d="M130.42,146.33a13,13,0,1,0,13,13h0A13,13,0,0,0,130.42,146.33Zm0,21.38a8.41,8.41,0,1,1,8.4-8.41h0A8.42,8.42,0,0,1,130.42,167.71Z"/><path class="cls-4" d="M99.54,151.88a8.69,8.69,0,1,0,8.69,8.69h0A8.71,8.71,0,0,0,99.54,151.88Zm0,12.81a4.12,4.12,0,1,1,4.12-4.12h0A4.13,4.13,0,0,1,99.54,164.69Z"/></g></svg>