<svg xmlns="http://www.w3.org/2000/svg" viewBox="0 0 234.23 234.23"><defs><style>.cls-1{fill:#cacaea;}.cls-2{fill:#69326b;}.cls-3{fill:#eacdc5;}</style></defs><title>ICONS</title><g id="Layer_1" data-name="Layer 1"><rect class="cls-1" width="234.23" height="234.23" rx="15.09"/><path class="cls-2" d="M103.5,116.18,119.8,97c6-7.1,12.06-14.22,18.14-21.3a8.48,8.48,0,0,1,10.67-2.18c4.66,2.53,7,6.73,5.75,11a11.39,11.39,0,0,1-2.19,3.91c-3.45,4.21-7,8.33-10.33,12.23,2.18,2.07,4.56,3.83,6.28,6.09,1.95,2.56,1.29,5.6.09,8.41,8.21,4.9,9.6,8.67,5.85,15.59,1.46,1.09,3,2.07,4.34,3.25,3.71,3.24,4.3,7.89,1.36,11.8a98.2,98.2,0,0,1-37,30.51,12.44,12.44,0,0,0-3.73,2.8c-2.56,2.79-4.92,5.76-7.4,8.63-1.66,1.92-2.66,2-4.58.33q-16.5-14.31-33-28.64c-1.92-1.67-2-2.61-.31-4.59,2.38-2.85,4.85-5.63,7.17-8.52a3.36,3.36,0,0,0,.68-2.39c-2.29-13.27-1.6-26.59-.73-39.92.12-2,.29-3.93.37-5.89.19-5.34,3.83-8.93,9.51-9.36a9.08,9.08,0,0,1,9.63,7.81c1,5.68,1.74,11.38,2.6,17.07C103.13,114.36,103.29,115.06,103.5,116.18ZM109,183.4c2.34-2.74,4.45-5.43,6.79-7.89a15.23,15.23,0,0,1,4.42-3.33c14.29-6.61,25.86-16.49,35.39-28.89,1.66-2.15,1.48-3.91-.33-5.64-2.65-2.53-4.22-2.81-6.51-1-1.22,1-2.41,1.42-3.62.23s-.77-2.59.28-3.81q2.16-2.48,4.29-5c1.88-2.24,1.95-4.08.25-5.82-2.62-2.7-4.36-3-6.87-1.05-1.18.91-2.34,1.2-3.46.14s-.92-2.44.09-3.63a29.1,29.1,0,0,0,3.72-4.56c.64-1.16,1-3.1.48-4.13-1.82-3.44-4.61-3.81-7.92-1.8-.75.45-2.52.45-3-.08s-.4-2.08-.33-3.16c0-.43.61-.83,1-1.23q7.37-8.67,14.74-17.31c1.36-1.58,2.05-3.24.78-5.15-2.5-3.75-5.56-3.91-8.48-.49q-18.26,21.45-36.55,42.87a3.77,3.77,0,0,1-3,1.3c-.82-.23-1.66-1.67-1.83-2.69-1.3-7.92-2.42-15.87-3.64-23.8a4.26,4.26,0,0,0-5-3.88C88,93.85,86.3,95.43,86.15,98c-.37,6.36-.83,12.71-1.08,19.06-.37,9-.35,18,1.63,26.93a4.56,4.56,0,0,1-1.16,4.52c-2.41,2.68-4.69,5.47-7.11,8.32Z"/><path class="cls-2" d="M112.19,61.56c0,4.46,0,8.92,0,13.38,0,1.63-.43,3-2.33,2.89s-2.2-1.33-2.19-2.85V47.77c0-1.54.52-2.78,2.26-2.79s2.26,1.18,2.26,2.74C112.18,52.34,112.19,57,112.19,61.56Z"/><path class="cls-2" d="M119.89,79.22c-2.23,0-3.3-1.71-2.5-3.2a7.1,7.1,0,0,1,1.32-1.54q9.14-9.15,18.29-18.29c.32-.32.62-.86,1-.91,1-.11,2.43-.41,3,.1s.53,2.09.16,2.93S139.6,60,138.8,60.78q-8.51,8.5-17,17A14.61,14.61,0,0,1,119.89,79.22Z"/><path class="cls-2" d="M80.32,54.27a16.23,16.23,0,0,1,2.1,1.43c6.44,6.4,12.84,12.83,19.27,19.24,1.08,1.08,1.69,2.29.49,3.55s-2.57.78-3.73-.38C92,71.69,85.6,65.3,79.25,58.81A3.67,3.67,0,0,1,78.47,56C78.57,55.4,79.63,54.9,80.32,54.27Z"/><path class="cls-3" d="M109,183.4l-30.6-26.58c2.42-2.85,4.7-5.64,7.11-8.32A4.56,4.56,0,0,0,86.7,144c-2-8.88-2-17.9-1.63-26.93.25-6.35.71-12.7,1.08-19.06.15-2.56,1.83-4.14,4.62-4.35a4.26,4.26,0,0,1,5,3.88c1.22,7.93,2.34,15.88,3.64,23.8.17,1,1,2.46,1.83,2.69a3.77,3.77,0,0,0,3-1.3q18.35-21.37,36.55-42.87c2.92-3.42,6-3.26,8.48.49,1.27,1.91.58,3.57-.78,5.15q-7.4,8.63-14.74,17.31c-.35.4-.94.8-1,1.23-.07,1.08-.25,2.49.33,3.16s2.21.53,3,.08c3.31-2,6.1-1.64,7.92,1.8.54,1,.16,3-.48,4.13a29.1,29.1,0,0,1-3.72,4.56c-1,1.19-1.32,2.47-.09,3.63s2.28.77,3.46-.14c2.51-1.94,4.25-1.65,6.87,1.05,1.7,1.74,1.63,3.58-.25,5.82q-2.13,2.53-4.29,5c-1,1.22-1.6,2.52-.28,3.81s2.4.76,3.62-.23c2.29-1.86,3.86-1.58,6.51,1,1.81,1.73,2,3.49.33,5.64-9.53,12.4-21.1,22.28-35.39,28.89a15.23,15.23,0,0,0-4.42,3.33C113.48,178,111.37,180.66,109,183.4Z"/></g></svg>