<svg xmlns="http://www.w3.org/2000/svg" viewBox="0 0 234.23 234.23"><defs><style>.cls-1{fill:#cacaea;}.cls-2{fill:#eacdc5;}.cls-3{fill:#69326b;}</style></defs><title>ICONS</title><g id="Layer_1" data-name="Layer 1"><rect class="cls-1" width="234.23" height="234.23" rx="15.09"/><path class="cls-2" d="M133.18,149.7a1.94,1.94,0,0,1,1.38.57,2,2,0,0,1,.56,1.38,1.93,1.93,0,0,1-.57,1.37l-2.62,2.62a10.6,10.6,0,0,1-1.77,1.42l-1,.68,11.33,11.31L169,140.5l-11-10.95-2.7,2.7a1.95,1.95,0,0,1-2.75-2.76l6.64-6.63a5.34,5.34,0,0,0-7.55-7.54l-2.56,2.57a2,2,0,0,1-1.38.56,1.94,1.94,0,0,1-1.37-3.31l5.14-5.15a5.35,5.35,0,0,0,0-7.54,5.36,5.36,0,0,0-7.56,0l-3,3A1.95,1.95,0,0,1,137.7,104a2,2,0,0,1,.57-1.37l3-2.94,2.58-2.59a5.34,5.34,0,0,0-7.53-7.56l-3,3a1.94,1.94,0,0,1-2.75,0,1.94,1.94,0,0,1,0-2.75l5.55-5.53a5.35,5.35,0,0,0,0-7.55,5.29,5.29,0,0,0-3.77-1.55,6.13,6.13,0,0,0-.74,0l-.23,0a5.34,5.34,0,0,0-2.82,1.47l-9,9,.42.68a9.22,9.22,0,0,1-7.88,14h-1l-.07,1a9.19,9.19,0,0,1-9.22,9.28h-1l-.07,1A9.2,9.2,0,0,1,91.49,121h-1l-.07,1a9.23,9.23,0,0,1-14,7.94l-.67-.41L64.81,140.37,93.4,168.92,105,157.36c1.69-1.73,4.09-2.5,7.78-2.5,1.4,0,2.86.1,4.27.2s3,.2,4.39.2c2.51,0,5.67-.27,7.77-2.37l2.63-2.62A1.9,1.9,0,0,1,133.18,149.7Z"/><path class="cls-2" d="M78.23,113.77a5.32,5.32,0,0,0-3.78,9.09l3,3A5.34,5.34,0,0,0,85,118.28l-3-3A5.33,5.33,0,0,0,78.23,113.77Z"/><path class="cls-2" d="M83.36,98.31a5.34,5.34,0,0,0-3.78,9.1l8.13,8.12a5.37,5.37,0,0,0,7.55,0,5.35,5.35,0,0,0,0-7.54l-8.15-8.15A5.37,5.37,0,0,0,83.36,98.31Z"/><path class="cls-2" d="M91.08,85.44a5.33,5.33,0,0,0-3.78,9.1L98,105.24a5.34,5.34,0,0,0,7.56-7.55L94.86,87A5.3,5.3,0,0,0,91.08,85.44Z"/><path class="cls-2" d="M98.79,72.56A5.34,5.34,0,0,0,95,81.66l13.31,13.28a5.33,5.33,0,0,0,8.15-6.81l-.22-.32-.37-.09c-3.48-.84-7-4-8-5-1.39-1.33-4.73-4.85-5.63-8.63l-.09-.38-.33-.22A5.31,5.31,0,0,0,98.79,72.56Z"/><path class="cls-2" d="M105.92,72.78c.33,2,2.1,4.72,4.61,7.12a20,20,0,0,0,4.85,3.52l.64.31,9.51-9.51-14.66-2.78a18,18,0,0,0-3.11-.35,4.54,4.54,0,0,0-1.13.11l-.75.18,0,.78c0,.1,0,.23,0,.4l0,.18Z"/><path class="cls-3" d="M116.85,60.19a1.94,1.94,0,0,1-1.94-1.95V45.09a1.95,1.95,0,1,1,3.89,0V58.24A2,2,0,0,1,116.85,60.19Z"/><path class="cls-3" d="M83.85,191.09a8.83,8.83,0,0,1-6.25-2.57L71.09,182a2,2,0,0,1-.57-1.38,1.95,1.95,0,0,1,2-1.94,1.91,1.91,0,0,1,1.37.57l6.51,6.51a4.9,4.9,0,0,0,3.49,1.44,5,5,0,0,0,3.51-1.45l5.21-5.2a5,5,0,0,0,.2-6.77l-.13-.15-.19-.09a1.87,1.87,0,0,1-.94-1l-.07-.16L61.27,142.33l-.16-.08a1.79,1.79,0,0,1-.56-.38,3.15,3.15,0,0,1-.24-.3l-.13-.19-.2-.12a5,5,0,0,0-6,.74l-5.22,5.2a5,5,0,0,0,0,7l6.51,6.5a1.91,1.91,0,0,1,.57,1.37,1.94,1.94,0,0,1-.57,1.38,1.91,1.91,0,0,1-1.37.57,1.94,1.94,0,0,1-1.38-.57l-6.5-6.5a8.85,8.85,0,0,1,0-12.49l5.21-5.2a8.83,8.83,0,0,1,10-1.73l.64.3,11-11-1.19-1.18a9.23,9.23,0,0,1,3.54-15.25l1.26-.43-.75-1.09a9.22,9.22,0,0,1,5.71-14.23l1.07-.22-.31-1a9.54,9.54,0,0,1-.36-2.6,9.21,9.21,0,0,1,7.32-9l1.06-.22-.3-1a9.43,9.43,0,0,1-.37-2.59,9.2,9.2,0,0,1,9.22-9.21,9.3,9.3,0,0,1,3.18.56l.66.24.45-.53a4.25,4.25,0,0,1,.36-.37,6.22,6.22,0,0,1,4.39-1.38,20.85,20.85,0,0,1,3.76.42l19.6,3.71h.15a8.21,8.21,0,0,1,1,0,9.2,9.2,0,0,1,8.85,11.8l-.31,1,1.07.22a9.22,9.22,0,0,1,6.95,11.61l-.3,1,1.07.22a9.21,9.21,0,0,1,7.32,9,9.06,9.06,0,0,1-.37,2.59l-.3,1,1.07.22a9.06,9.06,0,0,1,4.62,2.5,9.21,9.21,0,0,1,0,13l-1.19,1.19,11.07,11,.66-.36a8.83,8.83,0,0,1,4.25-1.08A8.73,8.73,0,0,1,183,139l5.21,5.19a8.84,8.84,0,0,1,0,12.49l-31.62,31.58a8.85,8.85,0,0,1-12.49,0L138.93,183a8.85,8.85,0,0,1-1.5-10.48l.36-.66-13-13-.48.05a24.59,24.59,0,0,1-3,.16c-1.59,0-3.2-.12-4.62-.22s-2.75-.19-4-.19c-2.56,0-4.1.41-5,1.33L96.12,171.7l.42.67a8.87,8.87,0,0,1-1.24,10.94l-5.21,5.21A8.81,8.81,0,0,1,83.85,191.09Zm92.94-50.79a4.91,4.91,0,0,0-3.5,1.44l-31.62,31.57a4.95,4.95,0,0,0,0,7l5.22,5.21a5,5,0,0,0,7,0l31.62-31.57a5,5,0,0,0,0-7l-5.21-5.19A4.92,4.92,0,0,0,176.79,140.3Zm-43.61,9.4a1.94,1.94,0,0,1,1.38.57,2,2,0,0,1,.56,1.38,1.93,1.93,0,0,1-.57,1.37l-2.62,2.62a10.6,10.6,0,0,1-1.77,1.42l-1,.68,11.33,11.31L169,140.5l-11-10.95-2.7,2.7a1.95,1.95,0,0,1-2.75-2.76l6.64-6.63a5.34,5.34,0,0,0-7.55-7.54l-2.56,2.57a2,2,0,0,1-1.38.56,1.94,1.94,0,0,1-1.37-3.31l5.14-5.15a5.35,5.35,0,0,0,0-7.54,5.36,5.36,0,0,0-7.56,0l-3,3A1.95,1.95,0,0,1,137.7,104a2,2,0,0,1,.57-1.37l3-2.94,2.58-2.59a5.34,5.34,0,0,0-7.53-7.56l-3,3a1.94,1.94,0,0,1-2.75,0,1.94,1.94,0,0,1,0-2.75l5.55-5.53a5.35,5.35,0,0,0,0-7.55,5.29,5.29,0,0,0-3.77-1.55,6.13,6.13,0,0,0-.74,0l-.23,0a5.34,5.34,0,0,0-2.82,1.47l-9,9,.42.68a9.22,9.22,0,0,1-7.88,14h-1l-.07,1a9.19,9.19,0,0,1-9.22,9.28h-1l-.07,1A9.2,9.2,0,0,1,91.49,121h-1l-.07,1a9.23,9.23,0,0,1-14,7.94l-.67-.41L64.81,140.37,93.4,168.92,105,157.36c1.69-1.73,4.09-2.5,7.78-2.5,1.4,0,2.86.1,4.27.2s3,.2,4.39.2c2.51,0,5.67-.27,7.77-2.37l2.63-2.62A1.9,1.9,0,0,1,133.18,149.7ZM78.23,113.77a5.32,5.32,0,0,0-3.78,9.09l3,3A5.34,5.34,0,0,0,85,118.28l-3-3A5.33,5.33,0,0,0,78.23,113.77Zm5.13-15.46a5.34,5.34,0,0,0-3.78,9.1l8.13,8.12a5.37,5.37,0,0,0,7.55,0,5.35,5.35,0,0,0,0-7.54l-8.15-8.15A5.37,5.37,0,0,0,83.36,98.31Zm7.72-12.87a5.33,5.33,0,0,0-3.78,9.1L98,105.24a5.34,5.34,0,0,0,7.56-7.55L94.86,87A5.3,5.3,0,0,0,91.08,85.44Zm7.71-12.88A5.34,5.34,0,0,0,95,81.66l13.31,13.28a5.33,5.33,0,0,0,8.15-6.81l-.22-.32-.37-.09c-3.48-.84-7-4-8-5-1.39-1.33-4.73-4.85-5.63-8.63l-.09-.38-.33-.22A5.31,5.31,0,0,0,98.79,72.56Zm7.13.22c.33,2,2.1,4.72,4.61,7.12a20,20,0,0,0,4.85,3.52l.64.31,9.51-9.51-14.66-2.78a18,18,0,0,0-3.11-.35,4.54,4.54,0,0,0-1.13.11l-.75.18,0,.78c0,.1,0,.23,0,.4l0,.18Z"/><path class="cls-3" d="M79.77,58.56A1.91,1.91,0,0,1,78.4,58L67.65,47.27a1.94,1.94,0,0,1,0-2.75A1.9,1.9,0,0,1,69,44a1.94,1.94,0,0,1,1.38.57L81.14,55.24a1.94,1.94,0,0,1-1.37,3.32Z"/><path class="cls-3" d="M153.94,58.56a1.94,1.94,0,0,1-1.38-.57,2,2,0,0,1,0-2.75L163.3,44.52a1.94,1.94,0,0,1,1.38-.57,1.95,1.95,0,0,1,1.94,1.94,1.94,1.94,0,0,1-.57,1.38L155.31,58A1.91,1.91,0,0,1,153.94,58.56Z"/><path class="cls-3" d="M62.64,173a1.89,1.89,0,0,1-1.35-.55,2,2,0,0,1,0-2.76,2,2,0,0,1,1.39-.58,1.92,1.92,0,0,1,1.36.56,1.93,1.93,0,0,1,0,2.75A1.91,1.91,0,0,1,62.64,173Z"/><path class="cls-3" d="M142.48,144.3a1.93,1.93,0,0,1-1.74-1.06,2,2,0,0,1,.85-2.61,2,2,0,0,1,.89-.21,1.94,1.94,0,1,1,0,3.88Z"/></g></svg>