<?xml version="1.0" encoding="utf-8"?>
<!-- Generator: Adobe Illustrator 23.0.1, SVG Export Plug-In . SVG Version: 6.00 Build 0)  -->
<svg version="1.1" xmlns="http://www.w3.org/2000/svg" xmlns:xlink="http://www.w3.org/1999/xlink" x="0px" y="0px"
	 viewBox="0 0 1920 217.2" style="enable-background:new 0 0 1920 217.2;" xml:space="preserve">
<style type="text/css">
	.st0{clip-path:url(#SVGID_2_);fill:#FFFFFF;}
	.st1{clip-path:url(#SVGID_2_);fill:#CACAEA;}
	.st2{clip-path:url(#SVGID_4_);fill:#FFFFFF;}
	.st3{clip-path:url(#SVGID_4_);fill:#F3E0EA;}
	.st4{clip-path:url(#SVGID_4_);fill:#F2F0F2;}
	.st5{clip-path:url(#SVGID_6_);fill:#F2F0F2;}
	.st6{clip-path:url(#SVGID_6_);fill:#CACAEA;}
	.st7{clip-path:url(#SVGID_8_);fill:#893F87;}
	.st8{clip-path:url(#SVGID_8_);fill:#F3E0EA;}
	.st9{clip-path:url(#SVGID_10_);fill:#F2F0F2;}
	.st10{clip-path:url(#SVGID_10_);fill:#CACAEA;}
	.st11{clip-path:url(#SVGID_12_);fill:#893F87;}
	.st12{clip-path:url(#SVGID_12_);fill:#F3E0EA;}
	.st13{clip-path:url(#SVGID_14_);fill:#F2F0F2;}
	.st14{clip-path:url(#SVGID_14_);fill:#CACAEA;}
	.st15{clip-path:url(#SVGID_16_);fill:#F2F0F2;}
	.st16{clip-path:url(#SVGID_16_);fill:#893F87;}
	.st17{clip-path:url(#SVGID_16_);fill:#F3E0EA;}
	.st18{fill:none;stroke:#3A3A3A;stroke-miterlimit:10;}
	.st19{fill:#3A3A3A;}
	.st20{fill:#F2F0F2;}
	.st21{clip-path:url(#SVGID_18_);fill:#F2F0F2;}
	.st22{clip-path:url(#SVGID_18_);fill:#CACAEA;}
	.st23{fill:#FFFFFF;}
	.st24{fill:#282828;}
	.st25{fill-rule:evenodd;clip-rule:evenodd;fill:#282828;}
	.st26{fill:#282828;stroke:#777777;stroke-width:2;stroke-miterlimit:10;}
	.st27{fill:none;stroke:#924A8F;stroke-width:2;stroke-miterlimit:10;}
	.st28{fill:none;stroke:#777777;stroke-width:2;stroke-miterlimit:10;}
	.st29{fill:#893F87;}
	.st30{fill:#924A8F;}
	.st31{fill:none;stroke:#545454;stroke-width:0.75;stroke-miterlimit:10;}
	.st32{fill:#CACAEA;}
	.st33{clip-path:url(#SVGID_20_);}
	.st34{clip-path:url(#SVGID_22_);}
	.st35{fill:none;}
	.st36{clip-path:url(#SVGID_24_);}
	.st37{clip-path:url(#SVGID_26_);}
	.st38{opacity:0.88;}
	.st39{fill:url(#SVGID_27_);}
	.st40{clip-path:url(#SVGID_29_);fill:#F2F0F2;}
	.st41{clip-path:url(#SVGID_29_);fill:#CACAEA;}
	.st42{fill:#F3E0EA;stroke:#924A8F;stroke-width:5;stroke-miterlimit:10;}
	.st43{fill:#914A8F;}
	.st44{clip-path:url(#SVGID_31_);}
	.st45{clip-path:url(#SVGID_33_);}
	.st46{fill:#EAC1D9;}
	.st47{fill:#EACDC5;}
	.st48{fill:#E6E9ED;}
	.st49{fill:#69326B;}
	.st50{fill:#F8F4F9;}
	.st51{clip-path:url(#SVGID_35_);fill:#FFFFFF;}
	.st52{clip-path:url(#SVGID_35_);fill:#F2F0F2;}
	.st53{clip-path:url(#SVGID_35_);fill:#CACAEA;}
	.st54{clip-path:url(#SVGID_35_);fill:#893F87;}
</style>
<g id="Layer_1">
</g>
<g id="BGv">
	<g>
		<defs>
			<rect id="SVGID_1_" x="-1.8" width="1920" height="216.8"/>
		</defs>
		<clipPath id="SVGID_2_">
			<use xlink:href="#SVGID_1_"  style="overflow:visible;"/>
		</clipPath>
		<rect x="-1.8" class="st0" width="1920" height="216.8"/>
		<path class="st1" d="M4960.6,52.7c-279.2-21.1-841.2,3.2-1066.8,3.2c-379.8-0.1-569.6-0.2-832,18.9
			c-274.1,19.9-786.4,33.8-998.5,2.1C1485.6-9.4,1078,22.3,845.6,50.3C565.3,84.1,570.1,107.9,291,97.4
			C41.2,87.9-163.5,24.7-317.5-22.9c-283.8-87.7-397.3-167.7-598.3-139.7c-109.3,15.3-195.4,55.6-252.1,88.2
			c-23.8,172.3-47.6,344.6-71.4,516.8c23.3,1.7,46.6,3.3,69.9,5l-51.1,811.4c177.9-42.4,441.1-88.6,759.1-80.3
			c381.8,9.9,578.9,91.5,863,147.3c640.7,125.8,815.4-58.2,1528.8-45.6c670,11.8,785.1,178.7,1501.2,293.1
			c461.3,73.7,1149.5,122,2038-45.5L5622.4,68.5C5622.4,68.5,4993.6,55.2,4960.6,52.7z"/>
	</g>
	<g>
		<defs>
			<rect id="SVGID_5_" x="-1.8" y="1544.2" width="1920" height="276.8"/>
		</defs>
		<clipPath id="SVGID_4_">
			<use xlink:href="#SVGID_5_"  style="overflow:visible;"/>
		</clipPath>
		<path style="clip-path:url(#SVGID_4_);fill:#CACAEA;" d="M4960.6,416.3c-279.2-21.1-841.2,3.2-1066.8,3.2
			c-379.8-0.1-569.6-0.2-832,18.9c-274.1,19.9-786.4,33.8-998.5,2.1c-577.8-86.3-985.4-54.6-1217.7-26.6
			C565.3,447.7,570.1,471.5,291,461c-249.8-9.4-454.5-72.7-608.5-120.3C-601.3,252.9-714.8,172.9-915.8,201
			c-109.3,15.3-195.4,55.6-252.1,88.2c-23.8,172.3-47.6,344.6-71.4,516.8c23.3,1.7,46.6,3.3,69.9,5l-51.1,811.4
			c177.9-42.4,441.1-88.6,759.1-80.3c381.8,9.9,578.9,91.5,863,147.3c640.7,125.8,815.4-58.2,1528.8-45.6
			c670,11.8,785.1,178.7,1501.2,293.1c461.3,73.7,1149.5,122,2038-45.5l152.9-1459.3C5622.4,432.1,4993.6,418.8,4960.6,416.3z"/>
	</g>
</g>
<g id="Layer_2">
</g>
</svg>
