<?xml version="1.0" encoding="utf-8"?>
<!-- Generator: Adobe Illustrator 23.0.1, SVG Export Plug-In . SVG Version: 6.00 Build 0)  -->
<svg version="1.1" xmlns="http://www.w3.org/2000/svg" xmlns:xlink="http://www.w3.org/1999/xlink" x="0px" y="0px"
	 viewBox="0 0 1920 1338" style="enable-background:new 0 0 1920 1338;" xml:space="preserve">
<style type="text/css">
	.st0{clip-path:url(#SVGID_2_);fill:#FFFFFF;}
	.st1{clip-path:url(#SVGID_2_);}
	.st2{clip-path:url(#SVGID_4_);fill:#893F87;}
	.st3{clip-path:url(#SVGID_4_);fill:#F3E0EA;}
	.st4{clip-path:url(#SVGID_2_);fill:#F2F0F2;}
	.st5{clip-path:url(#SVGID_6_);fill:#893F87;}
	.st6{clip-path:url(#SVGID_6_);fill:#F3E0EA;}
	.st7{clip-path:url(#SVGID_8_);fill:#FFFFFF;}
	.st8{clip-path:url(#SVGID_8_);fill:#893F87;}
	.st9{clip-path:url(#SVGID_8_);fill:#F3E0EA;}
	.st10{clip-path:url(#SVGID_10_);fill:#F8F3F7;}
	.st11{clip-path:url(#SVGID_10_);fill:#F2F0F2;}
	.st12{clip-path:url(#SVGID_10_);fill:#CACAEA;}
	.st13{fill:none;}
	.st14{clip-path:url(#SVGID_14_);}
	.st15{clip-path:url(#SVGID_16_);}
	.st16{fill:none;stroke:#924A8F;stroke-width:2;stroke-miterlimit:10;}
	.st17{fill:none;stroke:#3A3A3A;stroke-miterlimit:10;}
	.st18{fill:#3A3A3A;}
	.st19{fill:#F2F0F2;}
	.st20{clip-path:url(#SVGID_20_);fill:#F2F0F2;}
	.st21{clip-path:url(#SVGID_20_);fill:#CACAEA;}
	.st22{fill:#FFFFFF;}
	.st23{fill:#282828;}
	.st24{fill-rule:evenodd;clip-rule:evenodd;fill:#282828;}
	.st25{fill:#282828;stroke:#777777;stroke-width:2;stroke-miterlimit:10;}
	.st26{fill:none;stroke:#777777;stroke-width:2;stroke-miterlimit:10;}
	.st27{fill:#893F87;}
	.st28{fill:#EAC1D9;}
	.st29{fill:#EACDC5;}
	.st30{fill:#E6E9ED;}
	.st31{fill:#69326B;}
	.st32{fill:#F3E0EA;stroke:#924A8F;stroke-width:5;stroke-miterlimit:10;}
	.st33{fill:#914A8F;}
	.st34{fill:#924A8F;}
	.st35{fill:none;stroke:#545454;stroke-width:0.75;stroke-miterlimit:10;}
	.st36{fill:#CACAEA;}
	.st37{clip-path:url(#SVGID_22_);}
	.st38{clip-path:url(#SVGID_24_);fill:#FFFFFF;}
	.st39{clip-path:url(#SVGID_24_);fill:#F8F3F7;}
	.st40{clip-path:url(#SVGID_26_);fill:#F2F0F2;}
	.st41{clip-path:url(#SVGID_26_);fill:#CACAEA;}
	.st42{clip-path:url(#SVGID_26_);fill:#F8F3F7;}
</style>
<g id="Layer_1">
</g>
<g id="BGv">
</g>
<g id="Layer_2">
	<g>
		<defs>
			<rect id="SVGID_1_" y="-929.2" width="1920" height="343.1"/>
		</defs>
		<clipPath id="SVGID_2_">
			<use xlink:href="#SVGID_1_"  style="overflow:visible;"/>
		</clipPath>
		<g class="st1">
			<defs>
				<rect id="SVGID_3_" x="1.2" y="-1993.4" width="1917.6" height="3924.9"/>
			</defs>
			<clipPath id="SVGID_4_">
				<use xlink:href="#SVGID_3_"  style="overflow:visible;"/>
			</clipPath>
			<path class="st2" d="M2094.4,42.5c-5.7,32.2-15.3,64.8-28.2,98c-110.2,283.6-540.6,415.1-867.7,427.2
				C723.9,585.2,470.1,350.9-197.7,342c-102.3-1.4-251.3,2-330.9,85.9c-101.2,106.6-44.7,295.1,19.4,401.4
				c308.2,510.5,1602.2,457.6,1757.3,450c271.3-13.3,629.9-34.7,980.8-233.1c114.3-64.6,383.2-216.7,506.6-502.2
				c57.2-132.5,70.1-263.5,81.8-381.7L2094.4,42.5z"/>
			<path class="st3" d="M1931-20.8c-5.7,32.2-15.3,64.8-28.2,98c-110.2,283.6-540.6,415.1-867.7,427.2
				C560.4,521.9,306.7,287.6-361.1,278.7c-102.3-1.4-251.3,2-330.9,85.9c-101.2,106.6-44.7,295.1,19.4,401.4
				c308.2,510.5,1602.2,457.6,1757.3,450c271.3-13.3,629.9-34.7,980.8-233.1c114.3-64.6,383.2-216.7,506.6-502.2
				c57.2-132.5,70.1-263.5,81.8-381.7L1931-20.8z"/>
		</g>
	</g>
	<g>
		<defs>
			<rect id="SVGID_7_" x="0" width="1920" height="1338"/>
		</defs>
		<clipPath id="SVGID_6_">
			<use xlink:href="#SVGID_7_"  style="overflow:visible;"/>
		</clipPath>
		<rect x="0" style="clip-path:url(#SVGID_6_);fill:#FFFFFF;" width="1920" height="1338"/>
		<path class="st5" d="M2094.4,63.3c-5.7,32.2-15.3,64.8-28.2,98c-110.2,283.6-540.6,415.1-867.7,427.2
			C723.9,606,470.1,371.8-197.7,362.8c-102.3-1.4-251.3,2-330.9,85.9c-101.2,106.6-44.7,295.1,19.4,401.4
			c308.2,510.5,1602.2,457.6,1757.3,450c271.3-13.3,629.9-34.7,980.8-233.1c114.3-64.6,383.2-216.7,506.6-502.2
			c57.2-132.5,70.1-263.5,81.8-381.7L2094.4,63.3z"/>
		<path class="st6" d="M1931,0c-5.7,32.2-15.3,64.8-28.2,98c-110.2,283.6-540.6,415.1-867.7,427.2
			C560.4,542.7,306.7,308.4-361.1,299.5c-102.3-1.4-251.3,2-330.9,85.9c-101.2,106.6-44.7,295.1,19.4,401.4
			c308.2,510.5,1602.2,457.6,1757.3,450c271.3-13.3,629.9-34.7,980.8-233.1C2179.7,939,2448.6,787,2572,501.5
			c57.2-132.5,70.1-263.5,81.8-381.7L1931,0z"/>
	</g>
</g>
</svg>
