<?xml version="1.0" encoding="utf-8"?>
<!-- Generator: Adobe Illustrator 23.0.1, SVG Export Plug-In . SVG Version: 6.00 Build 0)  -->
<svg version="1.1" xmlns="http://www.w3.org/2000/svg" xmlns:xlink="http://www.w3.org/1999/xlink" x="0px" y="0px"
	 viewBox="0 0 1920 319" style="enable-background:new 0 0 1920 319;" xml:space="preserve">
<style type="text/css">
	.st0{clip-path:url(#SVGID_2_);fill:#FFFFFF;}
	.st1{clip-path:url(#SVGID_2_);}
	.st2{clip-path:url(#SVGID_4_);fill:#893F87;}
	.st3{clip-path:url(#SVGID_4_);fill:#F3E0EA;}
	.st4{clip-path:url(#SVGID_2_);fill:#F2F0F2;}
	.st5{clip-path:url(#SVGID_6_);fill:#893F87;}
	.st6{clip-path:url(#SVGID_6_);fill:#F3E0EA;}
	.st7{clip-path:url(#SVGID_8_);fill:#FFFFFF;}
	.st8{clip-path:url(#SVGID_8_);fill:#893F87;}
	.st9{clip-path:url(#SVGID_8_);fill:#F3E0EA;}
	.st10{clip-path:url(#SVGID_10_);fill:#F8F3F7;}
	.st11{clip-path:url(#SVGID_10_);fill:#F2F0F2;}
	.st12{clip-path:url(#SVGID_10_);fill:#CACAEA;}
	.st13{fill:none;}
	.st14{clip-path:url(#SVGID_14_);}
	.st15{clip-path:url(#SVGID_16_);}
	.st16{fill:none;stroke:#924A8F;stroke-width:2;stroke-miterlimit:10;}
	.st17{fill:none;stroke:#3A3A3A;stroke-miterlimit:10;}
	.st18{fill:#3A3A3A;}
	.st19{fill:#F2F0F2;}
	.st20{clip-path:url(#SVGID_20_);fill:#F2F0F2;}
	.st21{clip-path:url(#SVGID_20_);fill:#CACAEA;}
	.st22{fill:#FFFFFF;}
	.st23{fill:#282828;}
	.st24{fill-rule:evenodd;clip-rule:evenodd;fill:#282828;}
	.st25{fill:#282828;stroke:#777777;stroke-width:2;stroke-miterlimit:10;}
	.st26{fill:none;stroke:#777777;stroke-width:2;stroke-miterlimit:10;}
	.st27{fill:#893F87;}
	.st28{fill:#EAC1D9;}
	.st29{fill:#EACDC5;}
	.st30{fill:#E6E9ED;}
	.st31{fill:#69326B;}
	.st32{fill:#F3E0EA;stroke:#924A8F;stroke-width:5;stroke-miterlimit:10;}
	.st33{fill:#914A8F;}
	.st34{fill:#924A8F;}
	.st35{fill:none;stroke:#545454;stroke-width:0.75;stroke-miterlimit:10;}
	.st36{fill:#CACAEA;}
	.st37{clip-path:url(#SVGID_22_);}
	.st38{clip-path:url(#SVGID_24_);fill:#FFFFFF;}
	.st39{clip-path:url(#SVGID_24_);fill:#F8F3F7;}
	.st40{clip-path:url(#SVGID_26_);fill:#F2F0F2;}
	.st41{clip-path:url(#SVGID_26_);fill:#CACAEA;}
	.st42{clip-path:url(#SVGID_26_);fill:#F8F3F7;}
</style>
<g id="Layer_1">
</g>
<g id="BGv">
</g>
<g id="Layer_2">
	<g>
		<defs>
			<rect id="SVGID_1_" y="978.7" width="1920" height="343.1"/>
		</defs>
		<clipPath id="SVGID_2_">
			<use xlink:href="#SVGID_1_"  style="overflow:visible;"/>
		</clipPath>
		<g class="st1">
			<defs>
				<rect id="SVGID_3_" x="1.2" y="-85.5" width="1917.6" height="3924.9"/>
			</defs>
			<clipPath id="SVGID_4_">
				<use xlink:href="#SVGID_3_"  style="overflow:visible;"/>
			</clipPath>
		</g>
		<path class="st4" d="M-3741.5,973.5c172.4-43.5,427.7-91.8,736.9-87.8c371.3,4.8,563.9,81.6,840.8,132.1
			c624.5,114,791.9-67,1485.6-63.9c651.4,2.9,765.5,163.7,1463.1,265.7c449.4,65.7,1119,103.8,1980.5-70.4l6.1-1094.9L-3692.6,4
			L-3741.5,973.5z"/>
	</g>
	<g>
		<defs>
			<rect id="SVGID_25_" width="1920" height="319"/>
		</defs>
		<clipPath id="SVGID_6_">
			<use xlink:href="#SVGID_25_"  style="overflow:visible;"/>
		</clipPath>
		<path style="clip-path:url(#SVGID_6_);fill:#F2F0F2;" d="M-3741.5,985.4c172.4-43.5,427.7-91.8,736.9-87.8
			c371.3,4.8,563.9,81.6,840.8,132.1c624.5,114,791.9-67,1485.6-63.9c651.4,2.9,765.5,163.7,1463.1,265.7
			c449.4,65.7,1119,103.8,1980.5-70.4l6.1-1094.9l-6464.1-50.2L-3741.5,985.4z"/>
		<path style="clip-path:url(#SVGID_6_);fill:#CACAEA;" d="M-2158.3-10.8c173.8-37.5,430.6-76.9,739.5-62.2
			C-1048-55.4-858.1,28-583.1,88.2C37,223.8,210.7,48.7,903.8,75.7c650.9,25.4,759.4,190.1,1453,316.2
			c446.9,81.2,1114.7,142.5,1981.8-1.8l38.1-1032.6l-6458.4-274L-2158.3-10.8z"/>
		<path style="clip-path:url(#SVGID_6_);fill:#F8F3F7;" d="M-1913.2-57.3c173.8-37.5,430.6-76.9,739.5-62.2
			C-802.9-101.9-613-18.5-338,41.6C282.1,177.2,455.8,2.1,1148.9,29.1c650.9,25.4,759.4,190.1,1453,316.2
			c446.9,81.2,1114.7,142.5,1981.8-1.8L4621.8-689l-6458.4-274L-1913.2-57.3z"/>
	</g>
</g>
</svg>
