<?xml version="1.0" encoding="utf-8"?>
<!-- Generator: Adobe Illustrator 23.0.1, SVG Export Plug-In . SVG Version: 6.00 Build 0)  -->
<svg version="1.1" xmlns="http://www.w3.org/2000/svg" xmlns:xlink="http://www.w3.org/1999/xlink" x="0px" y="0px"
	 viewBox="0 0 1920 1885.8" style="enable-background:new 0 0 1920 1885.8;" xml:space="preserve">
<style type="text/css">
	.st0{fill:#F2F0F2;}
	.st1{clip-path:url(#SVGID_2_);fill:#F2F0F2;}
	.st2{clip-path:url(#SVGID_2_);fill:#CACAEA;}
	.st3{fill:#FFFFFF;}
	.st4{fill:#282828;}
	.st5{fill-rule:evenodd;clip-rule:evenodd;fill:#282828;}
	.st6{fill:#282828;stroke:#777777;stroke-width:2;stroke-miterlimit:10;}
	.st7{fill:none;stroke:#924A8F;stroke-width:2;stroke-miterlimit:10;}
	.st8{fill:none;stroke:#777777;stroke-width:2;stroke-miterlimit:10;}
	.st9{fill:#924A8F;}
	.st10{fill:none;stroke:#545454;stroke-width:0.75;stroke-miterlimit:10;}
	.st11{fill:#CACAEA;}
	.st12{clip-path:url(#SVGID_4_);}
	.st13{fill:#893F87;}
	.st14{fill:none;stroke:#7C3C7C;stroke-width:3;stroke-miterlimit:10;}
	.st15{fill:#F3E0EA;}
	.st16{fill:none;}
	.st17{clip-path:url(#SVGID_6_);}
	.st18{clip-path:url(#SVGID_8_);}
	.st19{fill:none;stroke:#3A3A3A;stroke-miterlimit:10;}
	.st20{fill:#3A3A3A;}
	.st21{clip-path:url(#SVGID_10_);fill:#F2F0F2;}
	.st22{clip-path:url(#SVGID_10_);fill:#CACAEA;}
	.st23{fill:#EAC1D9;}
	.st24{fill:#EACDC5;}
	.st25{fill:#E6E9ED;}
	.st26{fill:#69326B;}
	.st27{clip-path:url(#SVGID_12_);}
	.st28{fill:#C9C9E9;}
	.st29{fill:#E4E4EF;}
	.st30{clip-path:url(#SVGID_16_);fill:#FFFFFF;}
	.st31{clip-path:url(#SVGID_16_);fill:#F3E0EA;}
	.st32{clip-path:url(#SVGID_18_);fill:#FFFFFF;}
	.st33{clip-path:url(#SVGID_18_);fill:#CACAEA;}
	.st34{clip-path:url(#SVGID_18_);fill:#F2F0F2;}
	.st35{clip-path:url(#SVGID_20_);fill:#FFFFFF;}
	.st36{clip-path:url(#SVGID_20_);fill:#F3E0EA;}
	.st37{clip-path:url(#SVGID_20_);fill:#F2F0F2;}
</style>
<g id="Layer_1">
</g>
<g id="BGv">
</g>
<g id="Layer_2">
	<g>
		<defs>
			<rect id="SVGID_17_" x="0" y="2642" width="1920" height="263.3"/>
		</defs>
		<clipPath id="SVGID_2_">
			<use xlink:href="#SVGID_17_"  style="overflow:visible;"/>
		</clipPath>
		<path class="st1" d="M-67.8,1094c461.4,84.5,773.6,15.1,976.3-67.4c106-43.1,112.6-61.6,228.8-102.1
			c360.5-125.9,698-88.3,870.1-67.4c95.5,11.6,172.1,26.7,218.6,36.8c0,573.3,0,1249.8,0,1823.1c-277.6,59.3-504.7,74.4-657.7,77.6
			c-545.8,11.5-810.1-114.3-1335.8-53.1c-193.6,22.5-348.6,61.8-445.3,89.9C-164.4,2286.6-116.1,1638.7-67.8,1094z"/>
	</g>
	<g>
		<defs>
			<rect id="SVGID_19_" y="0" width="1920" height="1885.8"/>
		</defs>
		<clipPath id="SVGID_4_">
			<use xlink:href="#SVGID_19_"  style="overflow:visible;"/>
		</clipPath>
		<rect y="0" style="clip-path:url(#SVGID_4_);fill:#FFFFFF;" width="1920" height="1885.8"/>
		<path style="clip-path:url(#SVGID_4_);fill:#F3E0EA;" d="M-91.8,365.4c464.1,67.8,773.7-12.8,973.3-102.5
			c104.4-46.9,110.3-65.6,224.9-110.3c355.7-138.8,694.4-113.4,867.1-98.7c95.9,8.2,173,20.5,219.7,28.9
			c20.6,572.9,41.3,1249.1,61.9,1822c-275.3,69.3-501.7,92.5-654.5,101.2c-545,31.1-813.7-85.1-1336.9-5
			c-192.7,29.5-346.1,74.3-441.8,105.8C-149.2,1560.7-120.5,911.4-91.8,365.4z"/>
		<path style="clip-path:url(#SVGID_4_);fill:#F2F0F2;" d="M-67.8,391.7c461.4,84.5,773.6,15.1,976.3-67.4
			c106-43.1,112.6-61.6,228.8-102.1c360.5-125.9,698-88.3,870.1-67.4c95.5,11.6,172.1,26.7,218.6,36.8c0,573.3,0,1249.8,0,1823.1
			c-277.6,59.3-504.7,74.4-657.7,77.6c-545.8,11.5-810.1-114.3-1335.8-53.1c-193.6,22.5-348.6,61.8-445.3,89.9
			C-164.4,1584.3-116.1,936.4-67.8,391.7z"/>
	</g>
</g>
</svg>
