<?xml version="1.0" encoding="utf-8"?>
<!-- Generator: Adobe Illustrator 23.0.1, SVG Export Plug-In . SVG Version: 6.00 Build 0)  -->
<svg version="1.1" xmlns="http://www.w3.org/2000/svg" xmlns:xlink="http://www.w3.org/1999/xlink" x="0px" y="0px"
	 viewBox="0 0 234.2 234.2" style="enable-background:new 0 0 234.2 234.2;" xml:space="preserve">
<style type="text/css">
	.st0{display:none;}
	.st1{display:inline;fill:#FF7B9C;}
	.st2{display:inline;fill:#F27095;}
	.st3{display:inline;fill:none;stroke:#893F87;stroke-miterlimit:10;}
	.st4{fill:#F8F3F7;}
	.st5{fill:#01A7E5;}
	.st6{fill:#0597E0;}
	.st7{fill:#E84989;}
	.st8{fill:#BF3A7C;}
	.st9{fill:none;stroke:#893F87;stroke-miterlimit:10;}
	.st10{fill:#352787;}
	.st11{fill:#251F63;}
	.st12{fill:#B5D65C;}
	.st13{fill:#DD3A3A;}
	.st14{fill:#E55A90;}
	.st15{fill:#FF7B9C;}
	.st16{fill:#F27095;}
	.st17{fill:#893F87;}
	.st18{fill:#753675;}
	.st19{fill:none;stroke:#FF7B9C;stroke-width:0.5;stroke-miterlimit:10;}
	.st20{fill:none;stroke:#753675;stroke-miterlimit:10;}
	.st21{fill:#324175;}
	.st22{fill:#EF6F9A;}
	.st23{fill:#485696;}
	.st24{fill:#E84855;}
	.st25{fill:#86CB92;}
	.st26{fill:#64AF6B;}
	.st27{fill:#4AA34E;}
	.st28{fill:#DBFE87;}
	.st29{fill:#A9C642;}
	.st30{fill:#6675AA;}
	.st31{fill:#FB3640;}
	.st32{fill:#FF6700;}
	.st33{fill:#1B264F;}
	.st34{fill:#3D315B;}
	.st35{fill:#FFFFFF;}
	.st36{fill:#43A848;}
	.st37{fill:#EA6E6E;}
	.st38{fill:#F45656;}
	.st39{fill:#BC1D1D;}
	.st40{fill:#243C7F;}
	.st41{fill:none;stroke:#000000;stroke-width:0.5;stroke-miterlimit:10;}
	.st42{fill:#FFC5D6;}
	.st43{fill:none;stroke:#FFFFFF;stroke-miterlimit:10;}
	.st44{fill:#524DB5;}
	.st45{fill:#385CBB;}
	.st46{fill:#253E99;}
	.st47{fill:#E85B9C;}
	.st48{fill:#C93F84;}
	.st49{fill:#86D385;}
	.st50{fill:none;stroke:#253E99;stroke-width:0.25;stroke-miterlimit:10;}
	.st51{fill:#C62020;}
	.st52{fill:none;}
	.st53{fill:#1D498D;}
	.st54{fill:#E35096;}
	.st55{clip-path:url(#SVGID_2_);}
	.st56{clip-path:url(#SVGID_4_);}
	.st57{fill:none;stroke:#485696;stroke-miterlimit:10;}
	.st58{fill:#F899BB;}
	.st59{fill:#F77FB0;}
	.st60{fill:#EB5E93;}
	.st61{display:inline;fill:#CACAEA;}
	.st62{display:inline;}
	.st63{fill:#CACAEA;}
	.st64{fill:#EAC1D9;}
	.st65{clip-path:url(#SVGID_6_);}
	.st66{clip-path:url(#SVGID_8_);}
	.st67{clip-path:url(#SVGID_10_);}
	.st68{clip-path:url(#SVGID_12_);}
	.st69{fill:#EACDC5;}
	.st70{fill:#69326B;}
	.st71{fill:#E6E9ED;}
	.st72{fill:#32327C;}
	.st73{fill:none;stroke:#DBFE87;stroke-miterlimit:10;}
	.st74{fill:#211968;}
	.st75{clip-path:url(#SVGID_14_);}
	.st76{clip-path:url(#SVGID_16_);}
	.st77{fill:none;stroke:#FFFFFF;stroke-width:3;stroke-linecap:square;stroke-linejoin:bevel;stroke-miterlimit:10;}
	.st78{clip-path:url(#SVGID_18_);}
	.st79{fill:none;stroke:#7C3C7C;stroke-width:6;stroke-miterlimit:10;}
	.st80{fill:#7C3C7C;}
	.st81{fill:none;stroke:#7C3C7C;stroke-width:6;stroke-linecap:round;stroke-linejoin:round;stroke-miterlimit:10;}
</style>
<g id="Layer_3" class="st0">
</g>
<g id="Layer_2">
</g>
<g id="Layer_7">
</g>
<g id="Layer_6">
</g>
<g id="Layer_5">
</g>
<g id="Layer_4" class="st0">
</g>
<g id="Layer_1">
	<path class="st63" d="M219.1,234.2h-204c-8.3,0-15.1-6.8-15.1-15.1v-204C0,6.8,6.8,0,15.1,0h204c8.3,0,15.1,6.8,15.1,15.1v204
		C234.2,227.5,227.5,234.2,219.1,234.2z"/>
	<g>
		<path class="st64" d="M153.7,41.3H91c-2.9,0-5.2,2.4-5.2,5.2V104v47.1c0,2.9,2.4,5.2,5.2,5.2h60.1h2.6c2.9,0,5.2-2.4,5.2-5.2v-2.6
			c-4.3,0-7.8-3.5-7.8-7.8s3.5-7.8,7.8-7.8c-4.3,0-7.8-3.5-7.8-7.8c0-4.3,3.5-7.8,7.8-7.8c-4.3,0-7.8-3.5-7.8-7.8
			c0-4.3,3.5-7.8,7.8-7.8c-4.3,0-7.8-3.5-7.8-7.8c0-4.3,3.5-7.8,7.8-7.8v-0.3V46.5C158.9,43.6,156.6,41.3,153.7,41.3z"/>
		<path class="st69" d="M151.1,156.3l-31.4,34.8l-49.7-17.3V88.4c8.7,0,15.7,7,15.7,15.7v47.1c0,2.9,2.4,5.2,5.2,5.2H151.1z"/>
		<g>
			<path class="st69" d="M161.6,117.1c4.3,0,7.8,3.5,7.8,7.8c0,4.3-3.5,7.8-7.8,7.8h-2.6c-4.3,0-7.8-3.5-7.8-7.8
				c0-4.3,3.5-7.8,7.8-7.8H161.6z"/>
			<path class="st69" d="M161.6,132.8c4.3,0,7.8,3.5,7.8,7.8s-3.5,7.8-7.8,7.8h-2.6c-4.3,0-7.8-3.5-7.8-7.8s3.5-7.8,7.8-7.8H161.6z"
				/>
			<path class="st69" d="M161.6,101.4c4.3,0,7.8,3.5,7.8,7.8c0,4.3-3.5,7.8-7.8,7.8h-2.6c-4.3,0-7.8-3.5-7.8-7.8
				c0-4.3,3.5-7.8,7.8-7.8H161.6z"/>
		</g>
		<path class="st71" d="M122.3,138c2.9,0,5.2,2.4,5.2,5.2c0,2.9-2.4,5.2-5.2,5.2c-2.9,0-5.2-2.4-5.2-5.2
			C117.1,140.4,119.5,138,122.3,138z"/>
		<path class="st69" d="M161.6,85.7c4.3,0,7.8,3.5,7.8,7.8c0,4.3-3.5,7.8-7.8,7.8h-2.6c-4.3,0-7.8-3.5-7.8-7.8
			c0-4.3,3.5-7.8,7.8-7.8H161.6z"/>
		<path class="st35" d="M122.3,75.3c11.6,0,20.9,9.4,20.9,20.9c0,11.6-9.4,20.9-20.9,20.9s-20.9-9.4-20.9-20.9
			C101.4,84.7,110.8,75.3,122.3,75.3z"/>
		<path class="st70" d="M122.3,119.7c-13,0-23.5-10.6-23.5-23.5s10.6-23.5,23.5-23.5c13,0,23.5,10.6,23.5,23.5
			S135.3,119.7,122.3,119.7z M122.3,77.9c-10.1,0-18.3,8.2-18.3,18.3s8.2,18.3,18.3,18.3s18.3-8.2,18.3-18.3S132.4,77.9,122.3,77.9z
			"/>
		<path class="st70" d="M122.3,106.7c-1.4,0-2.6-1.2-2.6-2.6V88.4c0-1.4,1.2-2.6,2.6-2.6c1.4,0,2.6,1.2,2.6,2.6V104
			C125,105.5,123.8,106.7,122.3,106.7z"/>
		<path class="st70" d="M130.2,98.8h-15.7c-1.4,0-2.6-1.2-2.6-2.6s1.2-2.6,2.6-2.6h15.7c1.4,0,2.6,1.2,2.6,2.6
			S131.6,98.8,130.2,98.8z"/>
		<path class="st70" d="M85.7,106.7c-1.4,0-2.6-1.2-2.6-2.6c0-7.2-5.9-13.1-13.1-13.1c-1.4,0-2.6-1.2-2.6-2.6s1.2-2.6,2.6-2.6
			c10.1,0,18.3,8.2,18.3,18.3C88.4,105.5,87.2,106.7,85.7,106.7z"/>
		<path class="st70" d="M70.1,176.5c-1.4,0-2.6-1.2-2.6-2.6V88.4c0-1.4,1.2-2.6,2.6-2.6s2.6,1.2,2.6,2.6v85.5
			C72.7,175.3,71.5,176.5,70.1,176.5z"/>
		<path class="st70" d="M153.7,158.9H91c-4.3,0-7.8-3.5-7.8-7.8V46.5c0-4.3,3.5-7.8,7.8-7.8h62.7c4.3,0,7.8,3.5,7.8,7.8
			c0,1.4-1.2,2.6-2.6,2.6s-2.6-1.2-2.6-2.6c0-1.4-1.2-2.6-2.6-2.6H91c-1.4,0-2.6,1.2-2.6,2.6v104.6c0,1.4,1.2,2.6,2.6,2.6h62.7
			c1.4,0,2.6-1.2,2.6-2.6c0-1.4,1.2-2.6,2.6-2.6s2.6,1.2,2.6,2.6C161.6,155.4,158,158.9,153.7,158.9z"/>
		<path class="st70" d="M158.9,88c-1.4,0-2.6-1.2-2.6-2.6V46.5c0-1.4,1.2-2.6,2.6-2.6s2.6,1.2,2.6,2.6v38.9
			C161.6,86.9,160.4,88,158.9,88z"/>
		<path class="st70" d="M158.9,135.4c-5.8,0-10.5-4.7-10.5-10.5c0-5.8,4.7-10.5,10.5-10.5c1.4,0,2.6,1.2,2.6,2.6s-1.2,2.6-2.6,2.6
			c-2.9,0-5.2,2.3-5.2,5.2s2.3,5.2,5.2,5.2c1.4,0,2.6,1.2,2.6,2.6S160.4,135.4,158.9,135.4z"/>
		<path class="st70" d="M158.9,151.1c-5.8,0-10.5-4.7-10.5-10.5c0-5.8,4.7-10.5,10.5-10.5c1.4,0,2.6,1.2,2.6,2.6s-1.2,2.6-2.6,2.6
			c-2.9,0-5.2,2.3-5.2,5.2c0,2.9,2.3,5.2,5.2,5.2c1.4,0,2.6,1.2,2.6,2.6S160.4,151.1,158.9,151.1z"/>
		<path class="st70" d="M161.6,135.4c-1.4,0-2.6-1.2-2.6-2.6c0-1.4,1.2-2.6,2.6-2.6c2.9,0,5.2-2.3,5.2-5.2s-2.3-5.2-5.2-5.2
			c-1.4,0-2.6-1.2-2.6-2.6s1.2-2.6,2.6-2.6c5.8,0,10.5,4.7,10.5,10.5C172,130.7,167.3,135.4,161.6,135.4z"/>
		<path class="st70" d="M161.6,151.1c-1.4,0-2.6-1.2-2.6-2.6s1.2-2.6,2.6-2.6c2.9,0,5.2-2.3,5.2-5.2c0-2.9-2.3-5.2-5.2-5.2
			c-1.4,0-2.6-1.2-2.6-2.6s1.2-2.6,2.6-2.6c5.8,0,10.5,4.7,10.5,10.5C172,146.4,167.3,151.1,161.6,151.1z"/>
		<path class="st70" d="M161.6,135.4h-2.6c-1.4,0-2.6-1.2-2.6-2.6s1.2-2.6,2.6-2.6h2.6c1.4,0,2.6,1.2,2.6,2.6S163,135.4,161.6,135.4
			z"/>
		<path class="st70" d="M161.6,151.1h-2.6c-1.4,0-2.6-1.2-2.6-2.6s1.2-2.6,2.6-2.6h2.6c1.4,0,2.6,1.2,2.6,2.6S163,151.1,161.6,151.1
			z"/>
		<path class="st70" d="M158.9,119.7c-5.8,0-10.5-4.7-10.5-10.5s4.7-10.5,10.5-10.5c1.4,0,2.6,1.2,2.6,2.6s-1.2,2.6-2.6,2.6
			c-2.9,0-5.2,2.3-5.2,5.2s2.3,5.2,5.2,5.2c1.4,0,2.6,1.2,2.6,2.6S160.4,119.7,158.9,119.7z"/>
		<path class="st70" d="M158.9,104c-5.8,0-10.5-4.7-10.5-10.5c0-5.8,4.7-10.5,10.5-10.5c1.4,0,2.6,1.2,2.6,2.6s-1.2,2.6-2.6,2.6
			c-2.9,0-5.2,2.3-5.2,5.2c0,2.9,2.3,5.2,5.2,5.2c1.4,0,2.6,1.2,2.6,2.6S160.4,104,158.9,104z"/>
		<path class="st70" d="M161.6,119.7c-1.4,0-2.6-1.2-2.6-2.6s1.2-2.6,2.6-2.6c2.9,0,5.2-2.3,5.2-5.2s-2.3-5.2-5.2-5.2
			c-1.4,0-2.6-1.2-2.6-2.6s1.2-2.6,2.6-2.6c5.8,0,10.5,4.7,10.5,10.5S167.3,119.7,161.6,119.7z"/>
		<path class="st70" d="M161.6,104c-1.4,0-2.6-1.2-2.6-2.6s1.2-2.6,2.6-2.6c2.9,0,5.2-2.3,5.2-5.2c0-2.9-2.3-5.2-5.2-5.2
			c-1.4,0-2.6-1.2-2.6-2.6s1.2-2.6,2.6-2.6c5.8,0,10.5,4.7,10.5,10.5C172,99.4,167.3,104,161.6,104z"/>
		<path class="st70" d="M161.6,104h-2.6c-1.4,0-2.6-1.2-2.6-2.6s1.2-2.6,2.6-2.6h2.6c1.4,0,2.6,1.2,2.6,2.6S163,104,161.6,104z"/>
		<path class="st70" d="M161.6,88.4h-2.6c-1.4,0-2.6-1.2-2.6-2.6s1.2-2.6,2.6-2.6h2.6c1.4,0,2.6,1.2,2.6,2.6S163,88.4,161.6,88.4z"
			/>
		<path class="st70" d="M161.6,119.7h-2.6c-1.4,0-2.6-1.2-2.6-2.6s1.2-2.6,2.6-2.6h2.6c1.4,0,2.6,1.2,2.6,2.6S163,119.7,161.6,119.7
			z"/>
		<path class="st70" d="M119.7,193.7c-0.6,0-1.3-0.2-1.8-0.7c-1.1-1-1.2-2.6-0.2-3.7l31.4-34.8c1-1.1,2.6-1.2,3.7-0.2
			c1.1,1,1.2,2.6,0.2,3.7l-31.4,34.8C121.2,193.4,120.4,193.7,119.7,193.7L119.7,193.7z"/>
		<path class="st70" d="M125,195.6c-0.3,0-0.6,0-0.9-0.1L64,174.5c-1.4-0.5-2.1-2-1.6-3.3c0.5-1.4,2-2.1,3.3-1.6l60.1,20.9
			c1.4,0.5,2.1,2,1.6,3.3C127.1,194.9,126,195.6,125,195.6L125,195.6z"/>
		<path class="st70" d="M158.9,153.7c-1.4,0-2.6-1.2-2.6-2.6v-2.6c0-1.4,1.2-2.6,2.6-2.6s2.6,1.2,2.6,2.6v2.6
			C161.6,152.6,160.4,153.7,158.9,153.7z"/>
		<path class="st70" d="M122.3,151.1c-4.3,0-7.8-3.5-7.8-7.8s3.5-7.8,7.8-7.8c4.3,0,7.8,3.5,7.8,7.8S126.7,151.1,122.3,151.1z
			 M122.3,140.6c-1.4,0-2.6,1.2-2.6,2.6s1.2,2.6,2.6,2.6c1.4,0,2.6-1.2,2.6-2.6S123.8,140.6,122.3,140.6z"/>
		<path class="st70" d="M114.6,54.4c-1.4,0-2.6-1.2-2.6-2.6c0-1.4,1.2-2.6,2.6-2.6h0c1.4,0,2.6,1.2,2.6,2.6
			C117.2,53.2,116,54.4,114.6,54.4z"/>
		<path class="st70" d="M130.2,54.4h-7.8c-1.4,0-2.6-1.2-2.6-2.6c0-1.4,1.2-2.6,2.6-2.6h7.8c1.4,0,2.6,1.2,2.6,2.6
			C132.8,53.2,131.6,54.4,130.2,54.4z"/>
	</g>
</g>
</svg>
