<?xml version="1.0" encoding="utf-8"?>
<!-- Generator: Adobe Illustrator 23.0.1, SVG Export Plug-In . SVG Version: 6.00 Build 0)  -->
<svg version="1.1" xmlns="http://www.w3.org/2000/svg" xmlns:xlink="http://www.w3.org/1999/xlink" x="0px" y="0px"
	 viewBox="0 0 234.2 234.2" style="enable-background:new 0 0 234.2 234.2;" xml:space="preserve">
<style type="text/css">
	.st0{display:none;}
	.st1{display:inline;fill:#FF7B9C;}
	.st2{display:inline;fill:#F27095;}
	.st3{display:inline;fill:none;stroke:#893F87;stroke-miterlimit:10;}
	.st4{fill:#F8F3F7;}
	.st5{fill:#01A7E5;}
	.st6{fill:#0597E0;}
	.st7{fill:#E84989;}
	.st8{fill:#BF3A7C;}
	.st9{fill:none;stroke:#893F87;stroke-miterlimit:10;}
	.st10{fill:#352787;}
	.st11{fill:#251F63;}
	.st12{fill:#B5D65C;}
	.st13{fill:#DD3A3A;}
	.st14{fill:#E55A90;}
	.st15{fill:#FF7B9C;}
	.st16{fill:#F27095;}
	.st17{fill:#893F87;}
	.st18{fill:#753675;}
	.st19{fill:none;stroke:#FF7B9C;stroke-width:0.5;stroke-miterlimit:10;}
	.st20{fill:none;stroke:#753675;stroke-miterlimit:10;}
	.st21{fill:#324175;}
	.st22{fill:#EF6F9A;}
	.st23{fill:#485696;}
	.st24{fill:#E84855;}
	.st25{fill:#86CB92;}
	.st26{fill:#64AF6B;}
	.st27{fill:#4AA34E;}
	.st28{fill:#DBFE87;}
	.st29{fill:#A9C642;}
	.st30{fill:#6675AA;}
	.st31{fill:#FB3640;}
	.st32{fill:#FF6700;}
	.st33{fill:#1B264F;}
	.st34{fill:#3D315B;}
	.st35{fill:#FFFFFF;}
	.st36{fill:#43A848;}
	.st37{fill:#EA6E6E;}
	.st38{fill:#F45656;}
	.st39{fill:#BC1D1D;}
	.st40{fill:#243C7F;}
	.st41{fill:none;stroke:#000000;stroke-width:0.5;stroke-miterlimit:10;}
	.st42{fill:#FFC5D6;}
	.st43{fill:none;stroke:#FFFFFF;stroke-miterlimit:10;}
	.st44{fill:#524DB5;}
	.st45{fill:#385CBB;}
	.st46{fill:#253E99;}
	.st47{fill:#E85B9C;}
	.st48{fill:#C93F84;}
	.st49{fill:#86D385;}
	.st50{fill:none;stroke:#253E99;stroke-width:0.25;stroke-miterlimit:10;}
	.st51{fill:#C62020;}
	.st52{fill:none;}
	.st53{fill:#1D498D;}
	.st54{fill:#E35096;}
	.st55{clip-path:url(#SVGID_2_);}
	.st56{clip-path:url(#SVGID_4_);}
	.st57{fill:none;stroke:#485696;stroke-miterlimit:10;}
	.st58{fill:#F899BB;}
	.st59{fill:#F77FB0;}
	.st60{fill:#EB5E93;}
	.st61{display:inline;fill:#CACAEA;}
	.st62{display:inline;}
	.st63{fill:#CACAEA;}
	.st64{fill:#EAC1D9;}
	.st65{clip-path:url(#SVGID_6_);}
	.st66{clip-path:url(#SVGID_8_);}
	.st67{clip-path:url(#SVGID_10_);}
	.st68{clip-path:url(#SVGID_12_);}
	.st69{fill:#EACDC5;}
	.st70{fill:#69326B;}
	.st71{fill:#E6E9ED;}
	.st72{fill:#32327C;}
	.st73{fill:none;stroke:#DBFE87;stroke-miterlimit:10;}
	.st74{fill:#211968;}
	.st75{clip-path:url(#SVGID_14_);}
	.st76{clip-path:url(#SVGID_16_);}
	.st77{fill:none;stroke:#FFFFFF;stroke-width:3;stroke-linecap:square;stroke-linejoin:bevel;stroke-miterlimit:10;}
	.st78{clip-path:url(#SVGID_18_);}
	.st79{fill:none;stroke:#7C3C7C;stroke-width:6;stroke-miterlimit:10;}
	.st80{fill:#7C3C7C;}
	.st81{fill:none;stroke:#7C3C7C;stroke-width:6;stroke-linecap:round;stroke-linejoin:round;stroke-miterlimit:10;}
</style>
<g id="Layer_3" class="st0">
</g>
<g id="Layer_2">
</g>
<g id="Layer_7">
</g>
<g id="Layer_6">
</g>
<g id="Layer_5">
</g>
<g id="Layer_4" class="st0">
</g>
<g id="Layer_1">
	<path class="st63" d="M219.1,234.2h-204c-8.3,0-15.1-6.8-15.1-15.1v-204C0,6.8,6.8,0,15.1,0h204c8.3,0,15.1,6.8,15.1,15.1v204
		C234.2,227.5,227.5,234.2,219.1,234.2z"/>
	<g>
		<path class="st64" d="M164.1,183.9h-94c-5,0-9.1-4.1-9.1-9.1c0-1.6,0.4-3.2,1.3-4.6l17.5-29.7c0,0,0,0,0,0
			c12.5,3.3,25.7,2.9,38.1-1.1c11.5-3.7,23.8-4.1,35.5-1c0,0,0,0,0,0l18.7,31.9c2.5,4.3,1.1,9.9-3.2,12.5
			C167.3,183.4,165.8,183.9,164.1,183.9L164.1,183.9z"/>
		<path class="st71" d="M130.4,167.7c-4.6,0-8.4-3.8-8.4-8.4c0-4.6,3.8-8.4,8.4-8.4c4.6,0,8.4,3.8,8.4,8.4c0,0,0,0,0,0
			C138.8,163.9,135.1,167.7,130.4,167.7z"/>
		<path class="st71" d="M99.5,164.7c-2.3,0-4.1-1.8-4.1-4.1c0-2.3,1.8-4.1,4.1-4.1s4.1,1.8,4.1,4.1l0,0
			C103.7,162.8,101.8,164.7,99.5,164.7z"/>
		<g>
			<path class="st70" d="M95.7,45.8C95.7,45.8,95.7,45.8,95.7,45.8l0.4,0c-5.6,0-10.6,4.2-11.1,9.8c-0.6,6.4,4.5,11.7,10.7,11.7l0,0
				h0c0,0,0,0,0,0V104c0,0,0,0,0,0l-19.1,32.5l-18.4,31.3c-3.8,6.5-1.7,14.9,4.9,18.7c2.1,1.2,4.5,1.9,6.9,1.9h94
				c7.6,0,13.7-6.1,13.7-13.7c0-2.4-0.7-4.8-1.9-6.9v0l-19.2-32.7l-18.2-31.1c0,0,0,0,0,0V67.4c0,0,0,0,0,0l-0.1,0
				c5.6,0,10.6-4.2,11.1-9.8c0.6-6.4-4.5-11.7-10.7-11.7h-0.3c0,0,0,0,0,0L95.7,45.8z M133.9,67.4v37.5c0,0.7,0.3,1.3,0.8,1.7
				l15.4,26.2c0,0,0,0,0,0c-11.2-2.1-22.8-1.4-33.6,2.1c-11.1,3.6-22.9,4-34.2,1.3c0,0,0,0,0,0l17.4-29.6c0.5-0.4,0.8-1.1,0.8-1.7
				V67.4l0-2.5c0-1.1-0.8-2-1.9-2l-2.7-0.1c-3.4,0-6.2-2.8-6.2-6.2c0-3.4,2.8-6.2,6.2-6.2l42.8,0c3.4,0,6.4,2.6,6.5,6
				c0.1,3.5-2.7,6.4-6.2,6.4l-2.9,0.1c-1.1,0-1.9,0.9-1.9,2L133.9,67.4z M164.1,183.9h-94c-5,0-9.1-4.1-9.1-9.1
				c0-1.6,0.4-3.2,1.3-4.6l17.5-29.7c0,0,0,0,0,0c12.5,3.3,25.7,2.9,38.1-1.1c11.5-3.7,23.8-4.1,35.5-1c0,0,0,0,0,0l18.7,31.9
				c2.5,4.3,1.1,9.9-3.2,12.5C167.3,183.4,165.8,183.9,164.1,183.9L164.1,183.9z"/>
			<path class="st70" d="M130.4,146.3c-7.2,0-13,5.8-13,13c0,7.2,5.8,13,13,13c7.2,0,13-5.8,13-13c0,0,0,0,0,0
				C143.4,152.1,137.6,146.3,130.4,146.3z M130.4,167.7c-4.6,0-8.4-3.8-8.4-8.4c0-4.6,3.8-8.4,8.4-8.4c4.6,0,8.4,3.8,8.4,8.4
				c0,0,0,0,0,0C138.8,163.9,135.1,167.7,130.4,167.7z"/>
			<path class="st70" d="M99.5,151.9c-4.8,0-8.7,3.9-8.7,8.7c0,4.8,3.9,8.7,8.7,8.7c4.8,0,8.7-3.9,8.7-8.7c0,0,0,0,0,0
				C108.2,155.8,104.3,151.9,99.5,151.9z M99.5,164.7c-2.3,0-4.1-1.8-4.1-4.1c0-2.3,1.8-4.1,4.1-4.1s4.1,1.8,4.1,4.1l0,0
				C103.7,162.8,101.8,164.7,99.5,164.7z"/>
		</g>
	</g>
</g>
</svg>
