<?xml version="1.0" encoding="utf-8"?>
<!-- Generator: Adobe Illustrator 23.0.1, SVG Export Plug-In . SVG Version: 6.00 Build 0)  -->
<svg version="1.1" xmlns="http://www.w3.org/2000/svg" xmlns:xlink="http://www.w3.org/1999/xlink" x="0px" y="0px"
	 viewBox="0 0 234.2 234.2" style="enable-background:new 0 0 234.2 234.2;" xml:space="preserve">
<style type="text/css">
	.st0{display:none;}
	.st1{display:inline;fill:#FF7B9C;}
	.st2{display:inline;fill:#F27095;}
	.st3{display:inline;fill:none;stroke:#893F87;stroke-miterlimit:10;}
	.st4{fill:#F8F3F7;}
	.st5{fill:#01A7E5;}
	.st6{fill:#0597E0;}
	.st7{fill:#E84989;}
	.st8{fill:#BF3A7C;}
	.st9{fill:none;stroke:#893F87;stroke-miterlimit:10;}
	.st10{fill:#352787;}
	.st11{fill:#251F63;}
	.st12{fill:#B5D65C;}
	.st13{fill:#DD3A3A;}
	.st14{fill:#E55A90;}
	.st15{fill:#FF7B9C;}
	.st16{fill:#F27095;}
	.st17{fill:#893F87;}
	.st18{fill:#753675;}
	.st19{fill:none;stroke:#FF7B9C;stroke-width:0.5;stroke-miterlimit:10;}
	.st20{fill:none;stroke:#753675;stroke-miterlimit:10;}
	.st21{fill:#324175;}
	.st22{fill:#EF6F9A;}
	.st23{fill:#485696;}
	.st24{fill:#E84855;}
	.st25{fill:#86CB92;}
	.st26{fill:#64AF6B;}
	.st27{fill:#4AA34E;}
	.st28{fill:#DBFE87;}
	.st29{fill:#A9C642;}
	.st30{fill:#6675AA;}
	.st31{fill:#FB3640;}
	.st32{fill:#FF6700;}
	.st33{fill:#1B264F;}
	.st34{fill:#3D315B;}
	.st35{fill:#FFFFFF;}
	.st36{fill:#43A848;}
	.st37{fill:#EA6E6E;}
	.st38{fill:#F45656;}
	.st39{fill:#BC1D1D;}
	.st40{fill:#243C7F;}
	.st41{fill:none;stroke:#000000;stroke-width:0.5;stroke-miterlimit:10;}
	.st42{fill:#FFC5D6;}
	.st43{fill:none;stroke:#FFFFFF;stroke-miterlimit:10;}
	.st44{fill:#524DB5;}
	.st45{fill:#385CBB;}
	.st46{fill:#253E99;}
	.st47{fill:#E85B9C;}
	.st48{fill:#C93F84;}
	.st49{fill:#86D385;}
	.st50{fill:none;stroke:#253E99;stroke-width:0.25;stroke-miterlimit:10;}
	.st51{fill:#C62020;}
	.st52{fill:none;}
	.st53{fill:#1D498D;}
	.st54{fill:#E35096;}
	.st55{clip-path:url(#SVGID_2_);}
	.st56{clip-path:url(#SVGID_4_);}
	.st57{fill:none;stroke:#485696;stroke-miterlimit:10;}
	.st58{fill:#F899BB;}
	.st59{fill:#F77FB0;}
	.st60{fill:#EB5E93;}
	.st61{display:inline;fill:#CACAEA;}
	.st62{display:inline;}
	.st63{fill:#CACAEA;}
	.st64{fill:#EAC1D9;}
	.st65{clip-path:url(#SVGID_6_);}
	.st66{clip-path:url(#SVGID_8_);}
	.st67{clip-path:url(#SVGID_10_);}
	.st68{clip-path:url(#SVGID_12_);}
	.st69{fill:#EACDC5;}
	.st70{fill:#69326B;}
	.st71{fill:#E6E9ED;}
	.st72{fill:#32327C;}
	.st73{fill:none;stroke:#DBFE87;stroke-miterlimit:10;}
	.st74{fill:#211968;}
	.st75{clip-path:url(#SVGID_14_);}
	.st76{clip-path:url(#SVGID_16_);}
	.st77{fill:none;stroke:#FFFFFF;stroke-width:3;stroke-linecap:square;stroke-linejoin:bevel;stroke-miterlimit:10;}
	.st78{clip-path:url(#SVGID_18_);}
	.st79{fill:none;stroke:#7C3C7C;stroke-width:6;stroke-miterlimit:10;}
	.st80{fill:#7C3C7C;}
	.st81{fill:none;stroke:#7C3C7C;stroke-width:6;stroke-linecap:round;stroke-linejoin:round;stroke-miterlimit:10;}
</style>
<g id="Layer_3" class="st0">
</g>
<g id="Layer_2">
</g>
<g id="Layer_7">
</g>
<g id="Layer_6">
</g>
<g id="Layer_5">
</g>
<g id="Layer_4" class="st0">
</g>
<g id="Layer_1">
	<path class="st63" d="M219.1,234.2h-204c-8.3,0-15.1-6.8-15.1-15.1v-204C0,6.8,6.8,0,15.1,0h204c8.3,0,15.1,6.8,15.1,15.1v204
		C234.2,227.5,227.5,234.2,219.1,234.2z"/>
	<g>
		<path class="st64" d="M81.2,159.8h6.7c1.2,0,2.2-1,2.2-2.2s-1-2.2-2.2-2.2h-6.7V74.4h6.7c1.2,0,2.2-1,2.2-2.2s-1-2.2-2.2-2.2h-6.7
			V58.7c0-2.5,2-4.5,4.5-4.5h8l5.8,6.1c1.7,1.8,4.1,2.8,6.6,2.8h22.3c2.5,0,4.9-1,6.6-2.8l5.8-6.2h8c2.5,0,4.5,2,4.5,4.5v11.2h-6.7
			c-1.2,0-2.2,1-2.2,2.2s1,2.2,2.2,2.2h6.7v80.9h-6.7c-1.2,0-2.2,1-2.2,2.2s1,2.2,2.2,2.2h6.7v4.5c0,2.5-2,4.5-4.5,4.5H85.6
			c-2.5,0-4.5-2-4.5-4.5L81.2,159.8z"/>
		<path class="st71" d="M134.4,54.2l-2.9,3.1c-0.9,0.9-2,1.4-3.3,1.4H106c-1.2,0-2.4-0.5-3.3-1.4l-2.9-3.1H134.4z"/>
		<path class="st71" d="M81.2,172.1c1.4,0.8,2.9,1.2,4.5,1.2h62.9c1.6,0,3.1-0.4,4.5-1.2v3.5c0,2.5-2,4.5-4.5,4.5H85.6
			c-2.5,0-4.5-2-4.5-4.5L81.2,172.1z"/>
		<g id="Page-1">
			<g>
				<path id="Shape" class="st70" d="M63.2,130.6c-1.2,0-2.2,1-2.2,2.2v20.2c0,3.7,3,6.7,6.7,6.7h9v15.7c0,5,4,9,9,9h62.9
					c5,0,9-4,9-9v-15.7h9c3.7,0,6.7-3,6.7-6.7v-20.2c0-1.2-1-2.2-2.2-2.2s-2.2,1-2.2,2.2v20.2c0,1.2-1,2.2-2.2,2.2h-9V74.4h9
					c1.2,0,2.2,1,2.2,2.2v20.2c0,1.2,1,2.2,2.2,2.2s2.2-1,2.2-2.2V76.7c0-3.7-3-6.7-6.7-6.7h-9V58.7c0-5-4-9-9-9H85.6c-5,0-9,4-9,9
					v11.2h-9c-3.7,0-6.7,3-6.7,6.7v20.2c0,1.2,1,2.2,2.2,2.2c1.2,0,2.2-1,2.2-2.2V76.7c0-1.2,1-2.2,2.2-2.2h9v80.9h-9
					c-1.2,0-2.2-1-2.2-2.2v-20.2C65.4,131.6,64.4,130.6,63.2,130.6z M134.4,54.2l-2.9,3.1c-0.9,0.9-2,1.4-3.3,1.4H106
					c-1.2,0-2.4-0.5-3.3-1.4l-2.9-3.1H134.4z M81.2,159.8h6.7c1.2,0,2.2-1,2.2-2.2s-1-2.2-2.2-2.2h-6.7V74.4h6.7
					c1.2,0,2.2-1,2.2-2.2s-1-2.2-2.2-2.2h-6.7V58.7c0-2.5,2-4.5,4.5-4.5h8l5.8,6.1c1.7,1.8,4.1,2.8,6.6,2.8h22.3
					c2.5,0,4.9-1,6.6-2.8l5.8-6.2h8c2.5,0,4.5,2,4.5,4.5v11.2h-6.7c-1.2,0-2.2,1-2.2,2.2s1,2.2,2.2,2.2h6.7v80.9h-6.7
					c-1.2,0-2.2,1-2.2,2.2s1,2.2,2.2,2.2h6.7v4.5c0,2.5-2,4.5-4.5,4.5H85.6c-2.5,0-4.5-2-4.5-4.5L81.2,159.8z M81.2,172.1
					c1.4,0.8,2.9,1.2,4.5,1.2h62.9c1.6,0,3.1-0.4,4.5-1.2v3.5c0,2.5-2,4.5-4.5,4.5H85.6c-2.5,0-4.5-2-4.5-4.5L81.2,172.1z"/>
				<g>
					<path class="st35" d="M117.1,97.6c10.8,0,19.5,8.8,19.5,19.5c0,10.8-8.7,19.5-19.5,19.5s-19.5-8.7-19.5-19.5
						C97.6,106.3,106.3,97.6,117.1,97.6z"/>
					<path class="st70" d="M117.1,139.1c-12.1,0-22-9.9-22-22s9.9-22,22-22s22,9.9,22,22S129.2,139.1,117.1,139.1z M117.1,100
						c-9.4,0-17.1,7.7-17.1,17.1s7.7,17.1,17.1,17.1s17.1-7.7,17.1-17.1S126.5,100,117.1,100z"/>
					<path class="st70" d="M117.1,126.9c-1.3,0-2.4-1.1-2.4-2.4v-14.6c0-1.3,1.1-2.4,2.4-2.4c1.3,0,2.4,1.1,2.4,2.4v14.6
						C119.6,125.8,118.5,126.9,117.1,126.9z"/>
					<path class="st70" d="M124.4,119.5h-14.6c-1.3,0-2.4-1.1-2.4-2.4c0-1.3,1.1-2.4,2.4-2.4h14.6c1.3,0,2.4,1.1,2.4,2.4
						C126.9,118.5,125.8,119.5,124.4,119.5z"/>
				</g>
			</g>
		</g>
	</g>
</g>
</svg>
