<?xml version="1.0" encoding="utf-8"?>
<!-- Generator: Adobe Illustrator 23.0.1, SVG Export Plug-In . SVG Version: 6.00 Build 0)  -->
<svg version="1.1" xmlns="http://www.w3.org/2000/svg" xmlns:xlink="http://www.w3.org/1999/xlink" x="0px" y="0px"
	 viewBox="0 0 234.2 234.2" style="enable-background:new 0 0 234.2 234.2;" xml:space="preserve">
<style type="text/css">
	.st0{display:none;}
	.st1{display:inline;fill:#FF7B9C;}
	.st2{display:inline;fill:#F27095;}
	.st3{display:inline;fill:none;stroke:#893F87;stroke-miterlimit:10;}
	.st4{fill:#F8F3F7;}
	.st5{fill:#01A7E5;}
	.st6{fill:#0597E0;}
	.st7{fill:#E84989;}
	.st8{fill:#BF3A7C;}
	.st9{fill:none;stroke:#893F87;stroke-miterlimit:10;}
	.st10{fill:#352787;}
	.st11{fill:#251F63;}
	.st12{fill:#B5D65C;}
	.st13{fill:#DD3A3A;}
	.st14{fill:#E55A90;}
	.st15{fill:#FF7B9C;}
	.st16{fill:#F27095;}
	.st17{fill:#893F87;}
	.st18{fill:#753675;}
	.st19{fill:none;stroke:#FF7B9C;stroke-width:0.5;stroke-miterlimit:10;}
	.st20{fill:none;stroke:#753675;stroke-miterlimit:10;}
	.st21{fill:#324175;}
	.st22{fill:#EF6F9A;}
	.st23{fill:#485696;}
	.st24{fill:#E84855;}
	.st25{fill:#86CB92;}
	.st26{fill:#64AF6B;}
	.st27{fill:#4AA34E;}
	.st28{fill:#DBFE87;}
	.st29{fill:#A9C642;}
	.st30{fill:#6675AA;}
	.st31{fill:#FB3640;}
	.st32{fill:#FF6700;}
	.st33{fill:#1B264F;}
	.st34{fill:#3D315B;}
	.st35{fill:#FFFFFF;}
	.st36{fill:#43A848;}
	.st37{fill:#EA6E6E;}
	.st38{fill:#F45656;}
	.st39{fill:#BC1D1D;}
	.st40{fill:#243C7F;}
	.st41{fill:none;stroke:#000000;stroke-width:0.5;stroke-miterlimit:10;}
	.st42{fill:#FFC5D6;}
	.st43{fill:none;stroke:#FFFFFF;stroke-miterlimit:10;}
	.st44{fill:#524DB5;}
	.st45{fill:#385CBB;}
	.st46{fill:#253E99;}
	.st47{fill:#E85B9C;}
	.st48{fill:#C93F84;}
	.st49{fill:#86D385;}
	.st50{fill:none;stroke:#253E99;stroke-width:0.25;stroke-miterlimit:10;}
	.st51{fill:#C62020;}
	.st52{fill:none;}
	.st53{fill:#1D498D;}
	.st54{fill:#E35096;}
	.st55{clip-path:url(#SVGID_2_);}
	.st56{clip-path:url(#SVGID_4_);}
	.st57{fill:none;stroke:#485696;stroke-miterlimit:10;}
	.st58{fill:#F899BB;}
	.st59{fill:#F77FB0;}
	.st60{fill:#EB5E93;}
	.st61{display:inline;fill:#CACAEA;}
	.st62{display:inline;}
	.st63{fill:#CACAEA;}
	.st64{fill:#EAC1D9;}
	.st65{clip-path:url(#SVGID_6_);}
	.st66{clip-path:url(#SVGID_8_);}
	.st67{clip-path:url(#SVGID_10_);}
	.st68{clip-path:url(#SVGID_12_);}
	.st69{fill:#EACDC5;}
	.st70{fill:#69326B;}
	.st71{fill:#E6E9ED;}
	.st72{fill:#32327C;}
	.st73{fill:none;stroke:#DBFE87;stroke-miterlimit:10;}
	.st74{fill:#211968;}
	.st75{clip-path:url(#SVGID_14_);}
	.st76{clip-path:url(#SVGID_16_);}
	.st77{fill:none;stroke:#FFFFFF;stroke-width:3;stroke-linecap:square;stroke-linejoin:bevel;stroke-miterlimit:10;}
	.st78{clip-path:url(#SVGID_18_);}
	.st79{fill:none;stroke:#7C3C7C;stroke-width:6;stroke-miterlimit:10;}
	.st80{fill:#7C3C7C;}
	.st81{fill:none;stroke:#7C3C7C;stroke-width:6;stroke-linecap:round;stroke-linejoin:round;stroke-miterlimit:10;}
</style>
<g id="Layer_3" class="st0">
</g>
<g id="Layer_2">
</g>
<g id="Layer_7">
</g>
<g id="Layer_6">
</g>
<g id="Layer_5">
</g>
<g id="Layer_4" class="st0">
</g>
<g id="Layer_1">
	<path class="st63" d="M219.1,234.2h-204c-8.3,0-15.1-6.8-15.1-15.1v-204C0,6.8,6.8,0,15.1,0h204c8.3,0,15.1,6.8,15.1,15.1v204
		C234.2,227.5,227.5,234.2,219.1,234.2z"/>
	<g>
		<path class="st64" d="M99.2,146.8c-5.9,0-10.7,4.8-10.7,10.6c0,2.8,1.1,5.5,3.1,7.6c2,2,4.7,3.1,7.5,3.2c5.9,0,10.7-4.8,10.7-10.6
			c0-2.8-1.1-5.5-3.1-7.6C104.7,148,102,146.9,99.2,146.8L99.2,146.8z"/>
		<path class="st64" d="M99.2,66c-5.9,0-10.7,4.8-10.7,10.6c0,5.9,4.8,10.7,10.6,10.7c5.9,0,10.7-4.8,10.7-10.6
			c0-2.9-1.1-5.5-3.1-7.6C104.7,67.1,102,66,99.2,66L99.2,66z"/>
		<path class="st35" d="M135.1,106.4c-5.9,0-10.7,4.8-10.7,10.7c0,5.9,4.8,10.7,10.7,10.7c5.9,0,10.7-4.8,10.7-10.6
			C145.7,111.2,141,106.4,135.1,106.4L135.1,106.4z"/>
		<g>
			<path class="st70" d="M99.1,173.8c-7,0-13.4-4.7-15.4-11.5c-0.3-0.9-1-2-2.7-2c-3.2,0-6.5,0-9.7,0c-2.6,0-5.3,0-7.9,0
				c-1.6,0-2.9-1.1-2.9-2.6c0-0.8,0.2-1.6,0.8-2.1c0.5-0.5,1.2-0.8,2.1-0.8c3,0,6,0,9.1,0c2.8,0,5.6,0,8.4,0c0,0,0,0,0,0
				c0.6,0,2.4,0,3.1-2.2c2.1-6.6,8.4-11.3,15.4-11.3c0.4,0,0.8,0,1.3,0c6.5,0.5,12.3,5.2,14.1,11.4c0.6,2.1,2.3,2.1,2.9,2.1
				c8.7,0,17.4,0,26,0c9.1,0,18.1,0,27.2,0c1.3,0,2.1,0.4,2.7,1.4c0.5,0.9,0.6,1.9,0.1,2.8c-0.5,0.9-1.4,1.4-2.4,1.4
				c-1.3,0-2.7,0-4,0l-7.3,0l-26.6,0c-5.2,0-10.4,0-15.6,0c-1.5,0-2.4,0.7-2.9,2.1c-2.1,6.1-6.2,9.8-12.3,11.1
				C101.2,173.7,100.2,173.8,99.1,173.8z M99.2,146.8c-5.9,0-10.7,4.8-10.7,10.6c0,2.8,1.1,5.5,3.1,7.6c2,2,4.7,3.1,7.5,3.2
				c5.9,0,10.7-4.8,10.7-10.6c0-2.8-1.1-5.5-3.1-7.6C104.7,148,102,146.9,99.2,146.8L99.2,146.8z"/>
			<path class="st70" d="M99.1,93c-6.9,0-13.4-4.8-15.4-11.5c-0.4-1.4-1.4-2.1-2.8-2.1c-3.1,0-6.3,0-9.4,0c-2.8,0-5.6,0-8.3,0
				c-1.2,0-2.2-0.8-2.6-1.9c-0.4-1.2,0-2.4,0.9-3.1c0.5-0.4,1.2-0.6,2-0.6c2.4,0,4.9,0,7.3,0c3.3,0,6.6,0,9.9,0c0,0,0,0,0,0
				c1.5,0,2.5-0.7,3-2.1c2.3-6.4,6.6-10.1,13.1-11.2c0.8-0.1,1.6-0.2,2.5-0.2c7,0,13.3,4.7,15.3,11.5c0.4,1.3,1.3,1.9,2.7,1.9
				c5,0,10,0,15,0l38.4,0c1,0,2.4,0.3,2.9,2c0.3,0.8,0.1,1.7-0.4,2.4c-0.5,0.7-1.3,1.1-2.1,1.2c-0.4,0-0.7,0-1.1,0l-1.5,0l-35.5,0
				c-5.2,0-10.4,0-15.6,0c-1.5,0-2.4,0.7-2.9,2.1c-2.1,6-6.2,9.7-12.2,11.1C101.3,92.9,100.2,93,99.1,93z M99.2,66
				c-5.9,0-10.7,4.8-10.7,10.6c0,5.9,4.8,10.7,10.6,10.7c5.9,0,10.7-4.8,10.7-10.6c0-2.9-1.1-5.5-3.1-7.6C104.7,67.1,102,66,99.2,66
				L99.2,66z"/>
			<path class="st70" d="M135,133.4c-6.9,0-13.4-4.8-15.4-11.5c-0.4-1.4-1.3-2.1-2.7-2.1c-5.5,0-10.9,0-16.3,0l-12.3,0v0
				c-1.9,0-10.6,0-13.1,0c-3.8,0-7.6,0-11.5,0c-2.2,0-3.3-1.7-3.3-2.8c0-0.7,0.3-1.4,0.8-1.9c0.4-0.4,1.2-0.9,2.4-0.9
				c10.6,0,21.2,0,31.7,0c7.1,0,14.1,0,21.2,0c1.6,0,2.6-0.7,3.1-2.2c1.9-5.6,5.7-9.2,11.2-10.7c1.4-0.4,2.8-0.6,4.3-0.6
				c7,0,13.3,4.7,15.4,11.4c0.4,1.4,1.4,2.1,2.9,2.1c3.6,0,7.1,0,10.6,0c2.3,0,4.7,0,7,0c1.6,0,2.8,1.3,2.8,2.8
				c0,1.6-1.3,2.8-2.9,2.8c-2.8,0-5.6,0-8.3,0c-3,0-6,0-9,0h0c-1.6,0-2.6,0.7-3.2,2.2c-2.1,5.9-6.2,9.6-12.2,10.9
				C137.2,133.3,136.1,133.4,135,133.4z M135.1,106.4c-5.9,0-10.7,4.8-10.7,10.7c0,5.9,4.8,10.7,10.7,10.7c5.9,0,10.7-4.8,10.7-10.6
				C145.7,111.2,141,106.4,135.1,106.4L135.1,106.4z"/>
		</g>
	</g>
</g>
</svg>
