<?xml version="1.0" encoding="utf-8"?>
<!-- Generator: Adobe Illustrator 23.0.1, SVG Export Plug-In . SVG Version: 6.00 Build 0)  -->
<svg version="1.1" xmlns="http://www.w3.org/2000/svg" xmlns:xlink="http://www.w3.org/1999/xlink" x="0px" y="0px"
	 viewBox="0 0 234.2 234.2" style="enable-background:new 0 0 234.2 234.2;" xml:space="preserve">
<style type="text/css">
	.st0{display:none;}
	.st1{display:inline;fill:#FF7B9C;}
	.st2{display:inline;fill:#F27095;}
	.st3{display:inline;fill:none;stroke:#893F87;stroke-miterlimit:10;}
	.st4{fill:#F8F3F7;}
	.st5{fill:#01A7E5;}
	.st6{fill:#0597E0;}
	.st7{fill:#E84989;}
	.st8{fill:#BF3A7C;}
	.st9{fill:none;stroke:#893F87;stroke-miterlimit:10;}
	.st10{fill:#352787;}
	.st11{fill:#251F63;}
	.st12{fill:#B5D65C;}
	.st13{fill:#DD3A3A;}
	.st14{fill:#E55A90;}
	.st15{fill:#FF7B9C;}
	.st16{fill:#F27095;}
	.st17{fill:#893F87;}
	.st18{fill:#753675;}
	.st19{fill:none;stroke:#FF7B9C;stroke-width:0.5;stroke-miterlimit:10;}
	.st20{fill:none;stroke:#753675;stroke-miterlimit:10;}
	.st21{fill:#324175;}
	.st22{fill:#EF6F9A;}
	.st23{fill:#485696;}
	.st24{fill:#E84855;}
	.st25{fill:#86CB92;}
	.st26{fill:#64AF6B;}
	.st27{fill:#4AA34E;}
	.st28{fill:#DBFE87;}
	.st29{fill:#A9C642;}
	.st30{fill:#6675AA;}
	.st31{fill:#FB3640;}
	.st32{fill:#FF6700;}
	.st33{fill:#1B264F;}
	.st34{fill:#3D315B;}
	.st35{fill:#FFFFFF;}
	.st36{fill:#43A848;}
	.st37{fill:#EA6E6E;}
	.st38{fill:#F45656;}
	.st39{fill:#BC1D1D;}
	.st40{fill:#243C7F;}
	.st41{fill:none;stroke:#000000;stroke-width:0.5;stroke-miterlimit:10;}
	.st42{fill:#FFC5D6;}
	.st43{fill:none;stroke:#FFFFFF;stroke-miterlimit:10;}
	.st44{fill:#524DB5;}
	.st45{fill:#385CBB;}
	.st46{fill:#253E99;}
	.st47{fill:#E85B9C;}
	.st48{fill:#C93F84;}
	.st49{fill:#86D385;}
	.st50{fill:none;stroke:#253E99;stroke-width:0.25;stroke-miterlimit:10;}
	.st51{fill:#C62020;}
	.st52{fill:none;}
	.st53{fill:#1D498D;}
	.st54{fill:#E35096;}
	.st55{clip-path:url(#SVGID_2_);}
	.st56{clip-path:url(#SVGID_4_);}
	.st57{fill:none;stroke:#485696;stroke-miterlimit:10;}
	.st58{fill:#F899BB;}
	.st59{fill:#F77FB0;}
	.st60{fill:#EB5E93;}
	.st61{display:inline;fill:#CACAEA;}
	.st62{display:inline;}
	.st63{fill:#CACAEA;}
	.st64{fill:#EAC1D9;}
	.st65{clip-path:url(#SVGID_6_);}
	.st66{clip-path:url(#SVGID_8_);}
	.st67{clip-path:url(#SVGID_10_);}
	.st68{clip-path:url(#SVGID_12_);}
	.st69{fill:#EACDC5;}
	.st70{fill:#69326B;}
	.st71{fill:#E6E9ED;}
	.st72{fill:#32327C;}
	.st73{fill:none;stroke:#DBFE87;stroke-miterlimit:10;}
	.st74{fill:#211968;}
	.st75{clip-path:url(#SVGID_14_);}
	.st76{clip-path:url(#SVGID_16_);}
	.st77{fill:none;stroke:#FFFFFF;stroke-width:3;stroke-linecap:square;stroke-linejoin:bevel;stroke-miterlimit:10;}
	.st78{clip-path:url(#SVGID_18_);}
	.st79{fill:none;stroke:#7C3C7C;stroke-width:6;stroke-miterlimit:10;}
	.st80{fill:#7C3C7C;}
	.st81{fill:none;stroke:#7C3C7C;stroke-width:6;stroke-linecap:round;stroke-linejoin:round;stroke-miterlimit:10;}
</style>
<g id="Layer_3" class="st0">
</g>
<g id="Layer_2">
</g>
<g id="Layer_7">
</g>
<g id="Layer_6">
</g>
<g id="Layer_5">
</g>
<g id="Layer_4" class="st0">
</g>
<g id="Layer_1">
	<path class="st63" d="M219.1,234.2h-204c-8.3,0-15.1-6.8-15.1-15.1v-204C0,6.8,6.8,0,15.1,0h204c8.3,0,15.1,6.8,15.1,15.1v204
		C234.2,227.5,227.5,234.2,219.1,234.2z"/>
	<g>
		<path class="st64" d="M88.9,157.3c11.1,11.7,26.2,18.2,42.3,18.2c32.2,0,58.3-26.2,58.3-58.3c0-32.1-26.1-58.3-58.2-58.3h-0.2
			c-12.3,0-24.1,3.8-34.1,11l-0.8,0.6H61.9c-3.6,0-6.6,3-6.6,6.6s3,6.6,6.6,6.6h21.3l-2.6,4.4c-3,5.1-5.1,10.7-6.4,16.5l-0.5,2.3
			H51.3c-3.6,0-6.6,3-6.6,6.6c0,1.8,0.7,3.4,1.9,4.7c1.2,1.2,2.9,1.9,4.7,1.9h21.6l0.3,2.7c0.5,5.7,1.9,11.2,4,16.5l1.7,4.1H67.6
			c-3.6,0-6.6,3-6.6,6.6s3,6.6,6.6,6.6H88L88.9,157.3z"/>
		<circle class="st35" cx="131.2" cy="117.1" r="39.3"/>
		<g>
			<path class="st70" d="M131.2,162.3c-24.9,0-45.2-20.3-45.2-45.2s20.3-45.2,45.2-45.2s45.2,20.3,45.2,45.2
				S156.1,162.3,131.2,162.3z M131.2,77.8c-21.7,0-39.3,17.6-39.3,39.3s17.6,39.3,39.3,39.3s39.3-17.6,39.3-39.3
				S152.8,77.8,131.2,77.8z"/>
			<path class="st70" d="M131.2,181.4c-9,0-17.6-1.8-25.8-5.4c-7.2-3.2-13.8-7.6-19.4-13.2l-0.5-0.5H67.6c-6.9,0-12.5-5.6-12.5-12.5
				c0-6.9,5.6-12.5,12.5-12.5h2.5l-0.6-2.2c-0.7-2.5-1.3-5.1-1.7-7.8l-0.2-1.5H51.3c-6.9,0-12.5-5.6-12.5-12.5
				c0-6.9,5.6-12.5,12.5-12.5H69l0.4-1.3c0.7-2.6,1.7-5.2,2.7-7.8l1-2.4H61.9c-6.9,0-12.5-5.6-12.5-12.5c0-6.9,5.6-12.5,12.5-12.5
				h32.5l0.4-0.3c10.7-7.4,23.3-11.3,36.3-11.3h0.2c17.2,0,33.3,6.7,45.3,18.8c12.1,12.1,18.7,28.2,18.7,45.4
				C195.4,152.5,166.6,181.4,131.2,181.4z M88.9,157.3c11.1,11.7,26.2,18.2,42.3,18.2c32.2,0,58.3-26.2,58.3-58.3
				c0-32.1-26.1-58.3-58.2-58.3h-0.2c-12.3,0-24.1,3.8-34.1,11l-0.8,0.6H61.9c-3.6,0-6.6,3-6.6,6.6s3,6.6,6.6,6.6h21.3l-2.6,4.4
				c-3,5.1-5.1,10.7-6.4,16.5l-0.5,2.3H51.3c-3.6,0-6.6,3-6.6,6.6c0,1.8,0.7,3.4,1.9,4.7c1.2,1.2,2.9,1.9,4.7,1.9h21.6l0.3,2.7
				c0.5,5.7,1.9,11.2,4,16.5l1.7,4.1H67.6c-3.6,0-6.6,3-6.6,6.6s3,6.6,6.6,6.6H88L88.9,157.3z"/>
			<polygon class="st70" points="128.2,120.1 128.2,92.3 134.1,92.3 134.1,114.2 147.3,114.2 147.3,120.1 			"/>
		</g>
	</g>
</g>
</svg>
