<?xml version="1.0" encoding="utf-8"?>
<!-- Generator: Adobe Illustrator 23.0.1, SVG Export Plug-In . SVG Version: 6.00 Build 0)  -->
<svg version="1.1" xmlns="http://www.w3.org/2000/svg" xmlns:xlink="http://www.w3.org/1999/xlink" x="0px" y="0px"
	 viewBox="0 0 234.2 234.2" style="enable-background:new 0 0 234.2 234.2;" xml:space="preserve">
<style type="text/css">
	.st0{display:none;}
	.st1{display:inline;fill:#FF7B9C;}
	.st2{display:inline;fill:#F27095;}
	.st3{display:inline;fill:none;stroke:#893F87;stroke-miterlimit:10;}
	.st4{fill:#F8F3F7;}
	.st5{fill:#01A7E5;}
	.st6{fill:#0597E0;}
	.st7{fill:#E84989;}
	.st8{fill:#BF3A7C;}
	.st9{fill:none;stroke:#893F87;stroke-miterlimit:10;}
	.st10{fill:#352787;}
	.st11{fill:#251F63;}
	.st12{fill:#B5D65C;}
	.st13{fill:#DD3A3A;}
	.st14{fill:#E55A90;}
	.st15{fill:#FF7B9C;}
	.st16{fill:#F27095;}
	.st17{fill:#893F87;}
	.st18{fill:#753675;}
	.st19{fill:none;stroke:#FF7B9C;stroke-width:0.5;stroke-miterlimit:10;}
	.st20{fill:none;stroke:#753675;stroke-miterlimit:10;}
	.st21{fill:#324175;}
	.st22{fill:#EF6F9A;}
	.st23{fill:#485696;}
	.st24{fill:#E84855;}
	.st25{fill:#86CB92;}
	.st26{fill:#64AF6B;}
	.st27{fill:#4AA34E;}
	.st28{fill:#DBFE87;}
	.st29{fill:#A9C642;}
	.st30{fill:#6675AA;}
	.st31{fill:#FB3640;}
	.st32{fill:#FF6700;}
	.st33{fill:#1B264F;}
	.st34{fill:#3D315B;}
	.st35{fill:#FFFFFF;}
	.st36{fill:#43A848;}
	.st37{fill:#EA6E6E;}
	.st38{fill:#F45656;}
	.st39{fill:#BC1D1D;}
	.st40{fill:#243C7F;}
	.st41{fill:none;stroke:#000000;stroke-width:0.5;stroke-miterlimit:10;}
	.st42{fill:#FFC5D6;}
	.st43{fill:none;stroke:#FFFFFF;stroke-miterlimit:10;}
	.st44{fill:#524DB5;}
	.st45{fill:#385CBB;}
	.st46{fill:#253E99;}
	.st47{fill:#E85B9C;}
	.st48{fill:#C93F84;}
	.st49{fill:#86D385;}
	.st50{fill:none;stroke:#253E99;stroke-width:0.25;stroke-miterlimit:10;}
	.st51{fill:#C62020;}
	.st52{fill:none;}
	.st53{fill:#1D498D;}
	.st54{fill:#E35096;}
	.st55{clip-path:url(#SVGID_2_);}
	.st56{clip-path:url(#SVGID_4_);}
	.st57{fill:none;stroke:#485696;stroke-miterlimit:10;}
	.st58{fill:#F899BB;}
	.st59{fill:#F77FB0;}
	.st60{fill:#EB5E93;}
	.st61{display:inline;fill:#CACAEA;}
	.st62{display:inline;}
	.st63{fill:#CACAEA;}
	.st64{fill:#EAC1D9;}
	.st65{clip-path:url(#SVGID_6_);}
	.st66{clip-path:url(#SVGID_8_);}
	.st67{clip-path:url(#SVGID_10_);}
	.st68{clip-path:url(#SVGID_12_);}
	.st69{fill:#EACDC5;}
	.st70{fill:#69326B;}
	.st71{fill:#E6E9ED;}
	.st72{fill:#32327C;}
	.st73{fill:none;stroke:#DBFE87;stroke-miterlimit:10;}
	.st74{fill:#211968;}
	.st75{clip-path:url(#SVGID_14_);}
	.st76{clip-path:url(#SVGID_16_);}
	.st77{fill:none;stroke:#FFFFFF;stroke-width:3;stroke-linecap:square;stroke-linejoin:bevel;stroke-miterlimit:10;}
	.st78{clip-path:url(#SVGID_18_);}
	.st79{fill:none;stroke:#7C3C7C;stroke-width:6;stroke-miterlimit:10;}
	.st80{fill:#7C3C7C;}
	.st81{fill:none;stroke:#7C3C7C;stroke-width:6;stroke-linecap:round;stroke-linejoin:round;stroke-miterlimit:10;}
</style>
<g id="Layer_3" class="st0">
</g>
<g id="Layer_2">
</g>
<g id="Layer_7">
</g>
<g id="Layer_6">
</g>
<g id="Layer_5">
</g>
<g id="Layer_4" class="st0">
</g>
<g id="Layer_1">
	<path class="st63" d="M219.1,234.2h-204c-8.3,0-15.1-6.8-15.1-15.1v-204C0,6.8,6.8,0,15.1,0h204c8.3,0,15.1,6.8,15.1,15.1v204
		C234.2,227.5,227.5,234.2,219.1,234.2z"/>
	<g>
		<g>
			<path class="st64" d="M129,73.5c-29.6,0-53.7,24.1-53.7,53.7s24.1,53.7,53.7,53.7h43.8l-9.4-12.4l1.9-1.7
				c11.1-10.2,17.5-24.6,17.5-39.6C182.8,97.6,158.7,73.5,129,73.5z"/>
			<path class="st70" d="M129,186.4c-17.5,0-33.8-7.5-45.3-21c-7.9-9.3-12.8-21-13.8-33.2c-1.4-17.7,4.8-34.5,17.2-46.9
				c11.2-11.2,26.1-17.4,41.9-17.4s30.7,6.2,41.9,17.4c11.2,11.2,17.4,26.1,17.4,41.9c0,8.5-1.7,16.6-5.2,24.3
				c-2.9,6.4-6.9,12.2-11.8,17.2l-0.5,0.5l9.8,13c1.3,1.8,0.1,4.3-2.2,4.3H129z M129,73.5c-30,0-54.3,24.7-53.7,54.8
				c0.6,29.4,25.2,52.7,54.6,52.7h41.2c0.7,0,1.1-0.8,0.7-1.4l-7.8-10.3c-0.3-0.4-0.2-0.9,0.1-1.3l1.2-1.1
				c11.1-10.2,17.5-24.6,17.5-39.6C182.8,97.6,158.7,73.5,129,73.5z"/>
			<path class="st70" d="M56,166.3c-2.4,0-3.7-2.7-2.3-4.6l9.6-12.7l-0.5-0.5c-4.9-5-8.9-10.8-11.8-17.2c-3.4-7.7-5.2-15.8-5.2-24.3
				c0-15.8,6.2-30.7,17.4-41.9c11.2-11.2,26.1-17.4,41.9-17.4s30.7,6.2,41.9,17.4c12.4,12.4,18.6,29.2,17.2,46.9
				c-1,12.2-5.8,23.9-13.8,33.2c-11.5,13.5-27.8,21-45.3,21H56z M62.9,160.8h41.3c29.4,0,54.1-23.3,54.6-52.7
				c0.6-30.1-23.8-54.8-53.7-54.8c-29.6,0-53.7,24.1-53.7,53.7c0,15,6.4,29.5,17.5,39.6l0.6,0.6c0.7,0.6,0.8,1.7,0.2,2.4l-7.4,9.8
				C61.9,160,62.3,160.8,62.9,160.8z"/>
			<path class="st35" d="M61.4,160.8h43.8c29.6,0,53.7-24.1,53.7-53.7s-24.1-53.7-53.7-53.7c-29.6,0-53.7,24.1-53.7,53.7
				c0,15,6.4,29.5,17.5,39.6l1.9,1.7L61.4,160.8z"/>
		</g>
		<polygon class="st64" points="128.2,100.6 112.4,100.6 112.4,84.7 98.5,84.7 98.5,100.6 82.7,100.6 82.7,114.5 98.5,114.5 
			98.5,130.3 112.4,130.3 112.4,114.5 128.2,114.5 		"/>
		<path class="st70" d="M100.9,133.6c-3.4,0-6.2-2.7-6.2-6.1V118c0-0.3-0.3-0.6-0.6-0.6c-1.5,0-2.8-1.2-2.8-2.8s1.2-2.8,2.8-2.8
			c3.4,0,6.2,2.7,6.2,6.1v9.4c0,0.3,0.3,0.6,0.6,0.6h8.5c0.3,0,0.6-0.3,0.6-0.6V118c0-3.4,2.8-6.1,6.2-6.1h9.5
			c0.3,0,0.6-0.3,0.6-0.6v-8.5c0-0.3-0.3-0.6-0.6-0.6h-9.5c-3.4,0-6.2-2.7-6.2-6.1v-9.4c0-0.3-0.3-0.6-0.6-0.6h-8.5
			c-0.3,0-0.6,0.3-0.6,0.6v9.4c0,3.4-2.8,6.1-6.2,6.1h-9.5c-0.3,0-0.6,0.3-0.6,0.6v8.5c0,0.3,0.2,0.5,0.5,0.6c0,0,10.1,0,10.1,0
			c1.5,0.2,2.6,1.6,2.4,3.1c-0.2,1.4-1.4,2.4-2.7,2.4c-0.1,0-10.3,0-10.4,0c-3.1-0.4-5.4-3-5.4-6.1v-8.5c0-3.4,2.8-6.1,6.2-6.1h9.5
			c0.3,0,0.6-0.3,0.6-0.6v-9.4c0-3.4,2.8-6.1,6.2-6.1h8.5c3.4,0,6.2,2.7,6.2,6.1v9.4c0,0.3,0.3,0.6,0.6,0.6h9.5
			c3.4,0,6.2,2.7,6.2,6.1v8.5c0,3.4-2.8,6.1-6.2,6.1h-9.5c-0.3,0-0.6,0.3-0.6,0.6v9.4c0,3.4-2.8,6.1-6.2,6.1H100.9z"/>
	</g>
</g>
</svg>
