<?xml version="1.0" encoding="utf-8"?>
<!-- Generator: Adobe Illustrator 23.0.1, SVG Export Plug-In . SVG Version: 6.00 Build 0)  -->
<svg version="1.1" xmlns="http://www.w3.org/2000/svg" xmlns:xlink="http://www.w3.org/1999/xlink" x="0px" y="0px"
	 viewBox="0 0 1920 263.3" style="enable-background:new 0 0 1920 263.3;" xml:space="preserve">
<style type="text/css">
	.st0{fill:#F2F0F2;}
	.st1{clip-path:url(#SVGID_2_);fill:#F2F0F2;}
	.st2{clip-path:url(#SVGID_2_);fill:#CACAEA;}
	.st3{fill:#FFFFFF;}
	.st4{fill:#282828;}
	.st5{fill-rule:evenodd;clip-rule:evenodd;fill:#282828;}
	.st6{fill:#282828;stroke:#777777;stroke-width:2;stroke-miterlimit:10;}
	.st7{fill:none;stroke:#924A8F;stroke-width:2;stroke-miterlimit:10;}
	.st8{fill:none;stroke:#777777;stroke-width:2;stroke-miterlimit:10;}
	.st9{fill:#924A8F;}
	.st10{fill:none;stroke:#545454;stroke-width:0.75;stroke-miterlimit:10;}
	.st11{fill:#CACAEA;}
	.st12{clip-path:url(#SVGID_4_);}
	.st13{fill:#893F87;}
	.st14{fill:none;stroke:#7C3C7C;stroke-width:3;stroke-miterlimit:10;}
	.st15{fill:#F3E0EA;}
	.st16{fill:none;}
	.st17{clip-path:url(#SVGID_6_);}
	.st18{clip-path:url(#SVGID_8_);}
	.st19{fill:none;stroke:#3A3A3A;stroke-miterlimit:10;}
	.st20{fill:#3A3A3A;}
	.st21{clip-path:url(#SVGID_10_);fill:#F2F0F2;}
	.st22{clip-path:url(#SVGID_10_);fill:#CACAEA;}
	.st23{fill:#EAC1D9;}
	.st24{fill:#EACDC5;}
	.st25{fill:#E6E9ED;}
	.st26{fill:#69326B;}
	.st27{clip-path:url(#SVGID_12_);}
	.st28{fill:#C9C9E9;}
	.st29{fill:#E4E4EF;}
	.st30{clip-path:url(#SVGID_16_);fill:#FFFFFF;}
	.st31{clip-path:url(#SVGID_16_);fill:#F3E0EA;}
	.st32{clip-path:url(#SVGID_18_);fill:#FFFFFF;}
	.st33{clip-path:url(#SVGID_18_);fill:#CACAEA;}
	.st34{clip-path:url(#SVGID_18_);fill:#F2F0F2;}
	.st35{clip-path:url(#SVGID_20_);fill:#FFFFFF;}
	.st36{clip-path:url(#SVGID_20_);fill:#F3E0EA;}
	.st37{clip-path:url(#SVGID_20_);fill:#F2F0F2;}
</style>
<g id="Layer_1">
</g>
<g id="BGv">
</g>
<g id="Layer_2">
	<g>
		<defs>
			<rect id="SVGID_17_" width="1920" height="263.3"/>
		</defs>
		<clipPath id="SVGID_2_">
			<use xlink:href="#SVGID_17_"  style="overflow:visible;"/>
		</clipPath>
		<rect style="clip-path:url(#SVGID_2_);fill:#FFFFFF;" width="1920" height="263.3"/>
		<path class="st2" d="M-83.4,260.1c144.7-55.6,270.1-83.2,361.5-98c39.3-6.4,230.5-36.1,482.6-16.9c131,10,160.7,24.2,307.9,32.2
			c133.8,7.2,241.3,2.4,304.9-1.5c101.7-6.3,227.7-19.9,370.7-49c0-18.9,0-37.8,0-56.7C1128.3,56.4,512.5,42.6-103.3,28.8
			C-96.7,105.9-90,183-83.4,260.1z"/>
		<path class="st1" d="M-67.8-1548.1c461.4,84.5,773.6,15.1,976.3-67.4c106-43.1,112.6-61.6,228.8-102.1
			c360.5-125.9,698-88.3,870.1-67.4c95.5,11.6,172.1,26.7,218.6,36.8c0,573.3,0,1249.8,0,1823.1c-277.6,59.3-504.7,74.4-657.7,77.6
			C1022.6,163.9,758.2,38.1,232.5,99.3c-193.6,22.5-348.6,61.8-445.3,89.9C-164.4-355.5-116.1-1003.4-67.8-1548.1z"/>
	</g>
</g>
</svg>
