<?xml version="1.0" encoding="utf-8"?>
<!-- Generator: Adobe Illustrator 23.0.1, SVG Export Plug-In . SVG Version: 6.00 Build 0)  -->
<svg version="1.1" xmlns="http://www.w3.org/2000/svg" xmlns:xlink="http://www.w3.org/1999/xlink" x="0px" y="0px"
	 viewBox="0 0 1920 373" style="enable-background:new 0 0 1920 373;" xml:space="preserve">
<style type="text/css">
	.st0{clip-path:url(#SVGID_2_);fill:#FFFFFF;}
	.st1{clip-path:url(#SVGID_2_);fill:#CACAEA;}
	.st2{clip-path:url(#SVGID_4_);fill:#FFFFFF;}
	.st3{clip-path:url(#SVGID_4_);fill:#F3E0EA;}
	.st4{clip-path:url(#SVGID_4_);fill:#F2F0F2;}
	.st5{clip-path:url(#SVGID_6_);fill:#F2F0F2;}
	.st6{clip-path:url(#SVGID_6_);fill:#CACAEA;}
	.st7{clip-path:url(#SVGID_8_);fill:#893F87;}
	.st8{clip-path:url(#SVGID_8_);fill:#F3E0EA;}
	.st9{clip-path:url(#SVGID_10_);fill:#F2F0F2;}
	.st10{clip-path:url(#SVGID_10_);fill:#CACAEA;}
	.st11{clip-path:url(#SVGID_12_);fill:#893F87;}
	.st12{clip-path:url(#SVGID_12_);fill:#F3E0EA;}
	.st13{clip-path:url(#SVGID_14_);fill:#F2F0F2;}
	.st14{clip-path:url(#SVGID_14_);fill:#CACAEA;}
	.st15{clip-path:url(#SVGID_16_);fill:#FFFFFF;}
	.st16{clip-path:url(#SVGID_16_);fill:#893F87;}
	.st17{clip-path:url(#SVGID_16_);fill:#F3E0EA;}
	.st18{fill:none;stroke:#3A3A3A;stroke-miterlimit:10;}
	.st19{fill:#3A3A3A;}
	.st20{fill:#F2F0F2;}
	.st21{clip-path:url(#SVGID_18_);fill:#F2F0F2;}
	.st22{clip-path:url(#SVGID_18_);fill:#CACAEA;}
	.st23{fill:#FFFFFF;}
	.st24{fill:#282828;}
	.st25{fill-rule:evenodd;clip-rule:evenodd;fill:#282828;}
	.st26{fill:#282828;stroke:#777777;stroke-width:2;stroke-miterlimit:10;}
	.st27{fill:none;stroke:#924A8F;stroke-width:2;stroke-miterlimit:10;}
	.st28{fill:none;stroke:#777777;stroke-width:2;stroke-miterlimit:10;}
	.st29{fill:#893F87;}
	.st30{fill:#924A8F;}
	.st31{fill:none;stroke:#545454;stroke-width:0.75;stroke-miterlimit:10;}
	.st32{fill:#CACAEA;}
	.st33{clip-path:url(#SVGID_20_);}
	.st34{clip-path:url(#SVGID_22_);}
	.st35{fill:none;}
	.st36{clip-path:url(#SVGID_24_);}
	.st37{clip-path:url(#SVGID_26_);}
	.st38{opacity:0.88;}
	.st39{fill:url(#SVGID_27_);}
	.st40{clip-path:url(#SVGID_29_);fill:#F2F0F2;}
	.st41{clip-path:url(#SVGID_29_);fill:#CACAEA;}
	.st42{fill:#F3E0EA;stroke:#924A8F;stroke-width:5;stroke-miterlimit:10;}
	.st43{fill:#914A8F;}
	.st44{clip-path:url(#SVGID_31_);}
	.st45{clip-path:url(#SVGID_33_);}
	.st46{fill:#EAC1D9;}
	.st47{fill:#EACDC5;}
	.st48{fill:#E6E9ED;}
	.st49{fill:#69326B;}
	.st50{fill:#F8F4F9;}
	.st51{clip-path:url(#SVGID_35_);fill:#F2F0F2;}
	.st52{clip-path:url(#SVGID_35_);fill:#CACAEA;}
	.st53{clip-path:url(#SVGID_37_);fill:#FFFFFF;}
	.st54{clip-path:url(#SVGID_37_);fill:#F2F0F2;}
	.st55{clip-path:url(#SVGID_37_);fill:#893F87;}
</style>
<g id="Layer_1">
</g>
<g id="BGv">
	<g>
		<defs>
			<rect id="SVGID_15_" x="0" width="1920" height="373"/>
		</defs>
		<clipPath id="SVGID_2_">
			<use xlink:href="#SVGID_15_"  style="overflow:visible;"/>
		</clipPath>
		<rect x="0" class="st0" width="1920" height="373"/>
		<path style="clip-path:url(#SVGID_2_);fill:#893F87;" d="M1847.1-937.4c-5.8,32.3-15.4,65-28.3,98.3
			c-110.6,284.5-542.5,416.5-870.6,428.7c-476.3,17.6-730.8-217.5-1401-226.4c-102.6-1.4-252.2,2.1-332,86.2
			c-101.5,106.9-44.9,296.1,19.5,402.7C-456.2,364.2,842.2,311.1,997.8,303.5c272.3-13.4,632-34.8,984.1-233.8
			c114.7-64.8,384.5-217.4,508.3-503.9c57.4-132.9,70.4-264.4,82-383L1847.1-937.4z"/>
		<path style="clip-path:url(#SVGID_2_);fill:#F3E0EA;" d="M2452.7-1685.9c-13-87.4-54-305.3-179.7-507.3
			c-224.9-361.5-606.1-487.5-908.8-587.6c-287-94.9-517.9-106-871.6-127.1c-133.3-8-410-19.4-759.9,10
			c-326,27.4-545.8,75.9-631.3,96c-294.8,69.1-442.2,103.7-525.1,189.3c-201.4,208.2-242.3,685.1,46.9,974.9
			c262.3,262.8,723.8,181,960.6,68.4c133.8-63.6,190.9-158.4,441.2-251.8c136-50.8,271.6-82.7,351.5-92.2
			c211.9-25.4,453.4,3.1,571.5,26.4c200.9,39.5,402.5,115.5,628.7,307.7c70.4,59.8,146.9,134.1,193.9,257.4
			c12.8,33.6,95.9,263.3-32,476.8c-71.9,119.9-173.8,177.3-212.4,195.1c-401.6,185.5-881.8,111.4-940.6,104.6
			c-17.9-2.1-35.1-4.6-35.1-4.6c-48.8-7.7-88.1-20-267.7-54.2C93-640.4-3.8-658.8-96.8-673.4c-53.4-8.4-221.4-34-442.7-52.3
			c-142.6-11.8-311.2-20.9-501.1-21.5L-1092.8,9c142.9-3.6,364.6-1.1,633.3,36.9C-261.3,74-240.4,92.7,71.3,150.5
			c261.6,48.4,494.7,90.8,789,106.6c203.3,10.9,665-12.4,956.6-161.1C1984.4,10.6,2230.4-232.9,2362-749
			c50.9-199.6,76.8-351.5,88.7-480.1C2465.3-1385.1,2477.7-1518,2452.7-1685.9z"/>
	</g>
</g>
<g id="Layer_2">
</g>
</svg>
