<?xml version="1.0" encoding="utf-8"?>
<!-- Generator: Adobe Illustrator 23.0.1, SVG Export Plug-In . SVG Version: 6.00 Build 0)  -->
<svg version="1.1" xmlns="http://www.w3.org/2000/svg" xmlns:xlink="http://www.w3.org/1999/xlink" x="0px" y="0px"
	 viewBox="0 0 1920 1234.7" style="enable-background:new 0 0 1920 1234.7;" xml:space="preserve">
<style type="text/css">
	.st0{clip-path:url(#SVGID_2_);fill:#F2F0F2;}
	.st1{clip-path:url(#SVGID_2_);fill:#FFFFFF;}
	.st2{clip-path:url(#SVGID_4_);fill:#F4E1EB;}
	.st3{clip-path:url(#SVGID_4_);fill:#F2F0F2;}
	.st4{fill:none;}
	.st5{clip-path:url(#SVGID_6_);}
	.st6{clip-path:url(#SVGID_8_);}
	.st7{fill:none;stroke:#924A8F;stroke-width:2;stroke-miterlimit:10;}
	.st8{fill:#EAC1D9;}
	.st9{fill:#EACDC5;}
	.st10{fill:#E6E9ED;}
	.st11{fill:#69326B;}
	.st12{clip-path:url(#SVGID_12_);fill:#CACAEA;}
	.st13{fill:#F2F0F2;}
	.st14{fill:#FFFFFF;}
	.st15{fill:#282828;}
	.st16{fill-rule:evenodd;clip-rule:evenodd;fill:#282828;}
	.st17{fill:#282828;stroke:#777777;stroke-width:2;stroke-miterlimit:10;}
	.st18{fill:#F4E1EB;}
	.st19{fill:#7C3C7C;}
	.st20{fill:none;stroke:#FFFFFF;stroke-width:3;stroke-miterlimit:10;}
	.st21{clip-path:url(#SVGID_14_);}
	.st22{clip-path:url(#SVGID_22_);fill:#F2F0F2;}
	.st23{clip-path:url(#SVGID_22_);fill:#FFFFFF;}
	.st24{clip-path:url(#SVGID_24_);fill:#F2F0F2;}
	.st25{clip-path:url(#SVGID_24_);fill:#FFFFFF;}
	.st26{clip-path:url(#SVGID_26_);fill:#FFFFFF;}
	.st27{clip-path:url(#SVGID_26_);fill:#F2F0F2;}
	.st28{clip-path:url(#SVGID_28_);fill:#FFFFFF;}
	.st29{clip-path:url(#SVGID_28_);fill:#F4E1EB;}
	.st30{clip-path:url(#SVGID_28_);fill:#F2F0F2;}
	.st31{clip-path:url(#SVGID_30_);fill:#FFFFFF;}
	.st32{clip-path:url(#SVGID_30_);fill:#F2F0F2;}
	.st33{clip-path:url(#SVGID_32_);fill:#F2F0F2;}
	.st34{clip-path:url(#SVGID_32_);fill:none;}
	.st35{clip-path:url(#SVGID_32_);fill:#FFFFFF;}
	.st36{clip-path:url(#SVGID_32_);fill:#F4E1EB;}
</style>
<g id="Layer_1">
</g>
<g id="Layer_2">
	<g>
		<defs>
			<rect id="SVGID_25_" x="0" width="1920" height="1234.7"/>
		</defs>
		<clipPath id="SVGID_2_">
			<use xlink:href="#SVGID_25_"  style="overflow:visible;"/>
		</clipPath>
		<rect x="0" class="st1" width="1920" height="1234.7"/>
		<path class="st0" d="M2435-918.2c-18.7,189.8-98.9,730.5-539.7,1108.9C1310.2,693.1,525.9,534.8,245,478.1
			C-183.4,391.7-497.2,205.6-674.6,82l806.3-2532.8l2514.5,795.4L2435-918.2z"/>
		<path class="st1" d="M-144.2-1358.6c67.2-26.5,90.8,128.4,542.8,288.2c135.6,47.9,249.9,73,480.7,79.2
			c223.5,6,315-12.1,469.6,31.7c71.1,20.1,142.7,59.8,214.2,155.3c83.1,111,103.5,250.6,83.4,356.3
			c-41.9,220-266.6,334.2-417.4,410.8C653.8,255.2,28.1,41.7-80.1,4.8c-30.2-10.3-54.9-19.6-71.2-25.9
			c58.3-711.2-45.4-1142.2-20.9-1286.4C-169.9-1320.5-164.4-1350.6-144.2-1358.6z"/>
	</g>
</g>
</svg>
