<?xml version="1.0" encoding="utf-8"?>
<!-- Generator: Adobe Illustrator 23.0.1, SVG Export Plug-In . SVG Version: 6.00 Build 0)  -->
<svg version="1.1" xmlns="http://www.w3.org/2000/svg" xmlns:xlink="http://www.w3.org/1999/xlink" x="0px" y="0px"
	 viewBox="0 0 1920 889.5" style="enable-background:new 0 0 1920 889.5;" xml:space="preserve">
<style type="text/css">
	.st0{clip-path:url(#SVGID_2_);fill:#F2F0F2;}
	.st1{clip-path:url(#SVGID_2_);fill:#FFFFFF;}
	.st2{clip-path:url(#SVGID_4_);fill:#F4E1EB;}
	.st3{clip-path:url(#SVGID_4_);fill:#F2F0F2;}
	.st4{fill:none;}
	.st5{clip-path:url(#SVGID_6_);}
	.st6{clip-path:url(#SVGID_8_);}
	.st7{fill:none;stroke:#924A8F;stroke-width:2;stroke-miterlimit:10;}
	.st8{fill:#EAC1D9;}
	.st9{fill:#EACDC5;}
	.st10{fill:#E6E9ED;}
	.st11{fill:#69326B;}
	.st12{clip-path:url(#SVGID_12_);fill:#CACAEA;}
	.st13{fill:#F2F0F2;}
	.st14{fill:#FFFFFF;}
	.st15{fill:#282828;}
	.st16{fill-rule:evenodd;clip-rule:evenodd;fill:#282828;}
	.st17{fill:#282828;stroke:#777777;stroke-width:2;stroke-miterlimit:10;}
	.st18{fill:#F4E1EB;}
	.st19{fill:#7C3C7C;}
	.st20{fill:none;stroke:#FFFFFF;stroke-width:3;stroke-miterlimit:10;}
	.st21{clip-path:url(#SVGID_14_);}
	.st22{clip-path:url(#SVGID_22_);fill:#F2F0F2;}
	.st23{clip-path:url(#SVGID_22_);fill:#FFFFFF;}
	.st24{clip-path:url(#SVGID_24_);fill:#F2F0F2;}
	.st25{clip-path:url(#SVGID_24_);fill:#FFFFFF;}
	.st26{clip-path:url(#SVGID_26_);fill:#FFFFFF;}
	.st27{clip-path:url(#SVGID_26_);fill:#F2F0F2;}
	.st28{clip-path:url(#SVGID_28_);fill:#FFFFFF;}
	.st29{clip-path:url(#SVGID_28_);fill:#F4E1EB;}
	.st30{clip-path:url(#SVGID_28_);fill:#F2F0F2;}
	.st31{clip-path:url(#SVGID_30_);fill:#FFFFFF;}
	.st32{clip-path:url(#SVGID_30_);fill:#F2F0F2;}
	.st33{clip-path:url(#SVGID_32_);fill:#F2F0F2;}
	.st34{clip-path:url(#SVGID_32_);fill:none;}
	.st35{clip-path:url(#SVGID_32_);fill:#FFFFFF;}
	.st36{clip-path:url(#SVGID_32_);fill:#F4E1EB;}
</style>
<g id="Layer_1">
</g>
<g id="Layer_2">
	<g>
		<defs>
			<rect id="SVGID_31_" x="0" y="1" width="1920" height="888.5"/>
		</defs>
		<clipPath id="SVGID_2_">
			<use xlink:href="#SVGID_31_"  style="overflow:visible;"/>
		</clipPath>
		<path class="st0" d="M2745.3-1713.7c-2.2,120.4-18.9,299.2-90.5,501.7c-27.5,77.8-104.7,276.7-249.6,452.8
			c-278.3,338.2-674.3,431.5-860.4,475.3C606.6-62.7-287.3-714.3-422-815.3c-120.3,255.2-259.8,2417.9-380.1,2673
			c800.6,337.8,2661.5-294.9,3462.1,42.9c421.1-624,110.3-2225.5,222.1-2809C2836.5-1176.8,2790.9-1445.2,2745.3-1713.7z"/>
		<rect x="0.3" y="-635" style="clip-path:url(#SVGID_2_);fill:none;" width="1919.4" height="1227.3"/>
		<path class="st1" d="M-531.4,612.8c225.5-165.7,594.8-391.6,1089-507.6C1279.5-64.2,1871.7,93.8,2156.7,193
			c-3.1,33-7.5,82.5-11.2,142.6"/>
		<path style="clip-path:url(#SVGID_2_);fill:#F4E1EB;" d="M-488.4,567.6c214.8-135.5,567.6-320.9,1045-419.7
			c697.3-144.3,1277.4-24.4,1557.1,51.9c-2.1,26.5-5,66.2-7,114.5c-3.8,90.5-2.1,147.3-2.5,158.4
			c-4.4,111.9-413.6,324.9-1179.4,376.7C620.5,870,184.1,870.3-341.4,769.5C-390.4,702.2-439.4,634.9-488.4,567.6z"/>
	</g>
</g>
</svg>
