<?xml version="1.0" encoding="utf-8"?>
<!-- Generator: Adobe Illustrator 23.0.1, SVG Export Plug-In . SVG Version: 6.00 Build 0)  -->
<svg version="1.1" id="Layer_1" xmlns="http://www.w3.org/2000/svg" xmlns:xlink="http://www.w3.org/1999/xlink" x="0px" y="0px"
	 viewBox="0 0 1920 1966.2" style="enable-background:new 0 0 1920 1966.2;" xml:space="preserve">
<style type="text/css">
	.st0{fill:#EAC1D9;}
	.st1{fill:#EACDC5;}
	.st2{fill:#E6E9ED;}
	.st3{fill:#69326B;}
	.st4{fill:none;}
	.st5{clip-path:url(#SVGID_2_);}
	.st6{clip-path:url(#SVGID_4_);}
	.st7{fill:#EF5A40;}
	.st8{fill:#F7AF83;}
	.st9{clip-path:url(#SVGID_8_);}
	.st10{fill:#395CBA;}
	.st11{fill:#FC5A3D;}
	.st12{clip-path:url(#SVGID_12_);fill:#F2F0F2;}
	.st13{clip-path:url(#SVGID_12_);fill:#FFFFFF;}
	.st14{clip-path:url(#SVGID_14_);fill:#CACAEA;}
	.st15{clip-path:url(#SVGID_16_);fill:#F4E1EB;}
	.st16{clip-path:url(#SVGID_16_);fill:#F2F0F2;}
	.st17{clip-path:url(#SVGID_16_);fill:#FFFFFF;}
</style>
<g>
	<defs>
		<rect id="SVGID_15_" y="0" width="1920" height="1966.2"/>
	</defs>
	<clipPath id="SVGID_2_">
		<use xlink:href="#SVGID_15_"  style="overflow:visible;"/>
	</clipPath>
	<path style="clip-path:url(#SVGID_2_);fill:#F4E1EB;" d="M2552.3-1026.7c-11.5,119.9-41.9,296.8-129,493.2
		c-33.4,75.4-125.7,267.8-283.8,432.2c-303.6,315.7-705.6,378.1-894.5,407.5C292.4,454.2-548.4-264.5-674.9-375.7
		c-139.7,245.1-474.3,814.1-614,1059.3c772.1,398.6,1544.2,797.3,2316.3,1195.9c468.1-589.6,1131.1-1503.2,1599.2-2092.8
		C2601.8-484.4,2577-755.5,2552.3-1026.7z"/>
	<path style="clip-path:url(#SVGID_2_);fill:#F2F0F2;" d="M2745.3-1141.2c-2.2,120.4-18.9,299.2-90.5,501.7
		c-27.5,77.8-104.7,276.7-249.6,452.8c-278.3,338.2-674.3,431.5-860.4,475.3C606.6,509.8-287.3-141.9-422-242.9
		c-120.3,255.2-259.8,2417.9-380.1,2673c800.6,337.8,2661.5-294.9,3462.1,42.9c421.1-624,110.3-2225.5,222.1-2809
		C2836.5-604.4,2790.9-872.8,2745.3-1141.2z"/>
	<path style="clip-path:url(#SVGID_2_);fill:#FFFFFF;" d="M-531.4,1185.3c225.5-165.7,594.8-391.6,1089-507.6
		c721.9-169.5,1314.2-11.5,1599.1,87.7c-3.1,33-7.5,82.5-11.2,142.6"/>
	<path style="clip-path:url(#SVGID_2_);fill:#F2F0F2;" d="M2165.9,1311.9c-125.6,108-275.9,217.2-453.4,314.6
		C989.2,2023,257.7,1979.2-105.4,1928.8c12.3-247.8,24.5-495.7,36.8-743.5c738,20.4,1476.1,40.9,2214.1,61.3
		C2152.3,1268.3,2159.1,1290.1,2165.9,1311.9z"/>
	<path style="clip-path:url(#SVGID_2_);fill:#F4E1EB;" d="M-488.4,1140c214.8-135.5,567.6-320.9,1045-419.7
		c697.3-144.3,1277.4-24.4,1557.1,51.9c-2.1,26.5-5,66.2-7,114.5c-3.8,90.5-2.1,147.3-2.5,158.4
		c-4.4,111.9-413.6,324.9-1179.4,376.7c-304.2,20.6-740.5,20.9-1266.1-79.9C-390.4,1274.6-439.4,1207.3-488.4,1140z"/>
</g>
</svg>
