<?xml version="1.0" encoding="utf-8"?>
<!-- Generator: Adobe Illustrator 23.0.1, SVG Export Plug-In . SVG Version: 6.00 Build 0)  -->
<svg version="1.1" xmlns="http://www.w3.org/2000/svg" xmlns:xlink="http://www.w3.org/1999/xlink" x="0px" y="0px"
	 viewBox="0 0 1920 572.9" style="enable-background:new 0 0 1920 572.9;" xml:space="preserve">
<style type="text/css">
	.st0{clip-path:url(#SVGID_2_);fill:#F2F0F2;}
	.st1{clip-path:url(#SVGID_2_);fill:#FFFFFF;}
	.st2{clip-path:url(#SVGID_4_);fill:#F4E1EB;}
	.st3{clip-path:url(#SVGID_4_);fill:#F2F0F2;}
	.st4{fill:none;}
	.st5{clip-path:url(#SVGID_6_);}
	.st6{clip-path:url(#SVGID_8_);}
	.st7{fill:none;stroke:#924A8F;stroke-width:2;stroke-miterlimit:10;}
	.st8{fill:#EAC1D9;}
	.st9{fill:#EACDC5;}
	.st10{fill:#E6E9ED;}
	.st11{fill:#69326B;}
	.st12{clip-path:url(#SVGID_12_);fill:#CACAEA;}
	.st13{fill:#F2F0F2;}
	.st14{fill:#FFFFFF;}
	.st15{fill:#282828;}
	.st16{fill-rule:evenodd;clip-rule:evenodd;fill:#282828;}
	.st17{fill:#282828;stroke:#777777;stroke-width:2;stroke-miterlimit:10;}
	.st18{fill:#F4E1EB;}
	.st19{fill:#7C3C7C;}
	.st20{fill:none;stroke:#FFFFFF;stroke-width:3;stroke-miterlimit:10;}
	.st21{clip-path:url(#SVGID_14_);}
	.st22{clip-path:url(#SVGID_22_);fill:#F2F0F2;}
	.st23{clip-path:url(#SVGID_22_);fill:#FFFFFF;}
	.st24{clip-path:url(#SVGID_24_);fill:#F2F0F2;}
	.st25{clip-path:url(#SVGID_24_);fill:#FFFFFF;}
	.st26{clip-path:url(#SVGID_26_);fill:#FFFFFF;}
	.st27{clip-path:url(#SVGID_26_);fill:#F2F0F2;}
	.st28{clip-path:url(#SVGID_28_);fill:#FFFFFF;}
	.st29{clip-path:url(#SVGID_28_);fill:#F4E1EB;}
	.st30{clip-path:url(#SVGID_28_);fill:#F2F0F2;}
	.st31{clip-path:url(#SVGID_30_);fill:#FFFFFF;}
	.st32{clip-path:url(#SVGID_30_);fill:#F2F0F2;}
	.st33{clip-path:url(#SVGID_32_);fill:#F2F0F2;}
	.st34{clip-path:url(#SVGID_32_);fill:none;}
	.st35{clip-path:url(#SVGID_32_);fill:#FFFFFF;}
	.st36{clip-path:url(#SVGID_32_);fill:#F4E1EB;}
</style>
<g id="Layer_1">
</g>
<g id="Layer_2">
	<g>
		<defs>
			<rect id="SVGID_27_" x="0" width="1920" height="572.9"/>
		</defs>
		<clipPath id="SVGID_2_">
			<use xlink:href="#SVGID_27_"  style="overflow:visible;"/>
		</clipPath>
		<rect x="0" class="st1" width="1920" height="572.9"/>
		<path style="clip-path:url(#SVGID_2_);fill:#F4E1EB;" d="M2552.3-1027.2c-11.5,119.9-41.9,296.8-129,493.2
			c-33.4,75.4-125.7,267.8-283.8,432.2c-303.6,315.7-705.6,378.1-894.5,407.5C292.4,453.7-548.4-265-674.9-376.2
			C-814.6-131.1-1149.3,438-1289,683.1c772.1,398.6,1544.2,797.3,2316.3,1195.9c468.1-589.6,1131.1-1503.2,1599.2-2092.8
			C2601.8-484.9,2577-756.1,2552.3-1027.2z"/>
		<path class="st0" d="M2745.3-1141.7c-2.2,120.4-18.9,299.2-90.5,501.7c-27.5,77.8-104.7,276.7-249.6,452.8
			c-278.3,338.2-674.3,431.5-860.4,475.3C606.6,509.2-287.3-142.4-422-243.4c-120.3,255.2-259.8,2417.9-380.1,2673
			c800.6,337.8,2661.5-294.9,3462.1,42.9c421.1-624,110.3-2225.5,222.1-2809C2836.5-604.9,2790.9-873.3,2745.3-1141.7z"/>
	</g>
</g>
</svg>
