<?xml version="1.0" encoding="utf-8"?>
<!-- Generator: Adobe Illustrator 23.0.1, SVG Export Plug-In . SVG Version: 6.00 Build 0)  -->
<svg version="1.1" id="Layer_1" xmlns="http://www.w3.org/2000/svg" xmlns:xlink="http://www.w3.org/1999/xlink" x="0px" y="0px"
	 viewBox="0 0 120.7 130.3" style="enable-background:new 0 0 120.7 130.3;" xml:space="preserve">
<style type="text/css">
	.st0{clip-path:url(#SVGID_2_);fill:#D888D8;}
	
		.st1{clip-path:url(#SVGID_2_);fill:none;stroke:#939393;stroke-width:2.5;stroke-linecap:round;stroke-linejoin:round;stroke-miterlimit:10;}
	.st2{clip-path:url(#SVGID_2_);fill:#90CAF9;}
	.st3{clip-path:url(#SVGID_2_);fill:none;stroke:#939393;stroke-width:2.5;stroke-miterlimit:10;}
	
		.st4{clip-path:url(#SVGID_2_);fill:none;stroke:#000000;stroke-width:2.5;stroke-linecap:round;stroke-linejoin:round;stroke-miterlimit:10;}
</style>
<g>
	<defs>
		<rect id="SVGID_1_" width="120.7" height="130.3"/>
	</defs>
	<clipPath id="SVGID_2_">
		<use xlink:href="#SVGID_1_"  style="overflow:visible;"/>
	</clipPath>
	<path class="st0" d="M10.4,97.3c0-12.5,10.1-22.6,22.6-22.6c12.5,0,22.6,10.1,22.6,22.6c0,12.5-10.1,22.6-22.6,22.6
		C20.5,119.9,10.4,109.8,10.4,97.3"/>
	<line class="st1" x1="114.5" y1="30.9" x2="89.1" y2="5.5"/>
	<line class="st1" x1="109.3" y1="36.1" x2="83.9" y2="10.7"/>
	<polygon class="st1" points="56.8,46.8 88.4,15.3 104.3,31.2 72.7,62.7 57.3,62.5 	"/>
	<polygon class="st2" points="84.7,50.7 84.7,50.7 68.8,34.8 68.8,34.8 56.8,46.8 57.3,62.5 72.7,62.7 	"/>
	<polygon class="st3" points="84.7,50.7 84.7,50.7 68.8,34.8 68.8,34.8 56.8,46.8 57.3,62.5 72.7,62.7 	"/>
	<line class="st1" x1="77" y1="43" x2="110.6" y2="9.4"/>
	<line class="st1" x1="119.5" y1="18.3" x2="102.4" y2="1.2"/>
	<line class="st1" x1="57.3" y1="62.5" x2="31" y2="88.8"/>
	<path class="st2" d="M31.1,88.9c1.9,11.2,8.3,13.8,8,20.7c-0.3,6.6-8.6,6.4-11.3,1.8C22.5,102.4,28,92,31.1,88.9"/>
	<path class="st3" d="M31.1,88.9c1.9,11.2,8.3,13.8,8,20.7c-0.3,6.6-8.6,6.4-11.3,1.8C22.5,102.4,28,92,31.1,88.9z"/>
	<path class="st1" d="M53.9,73.3c6.7,5.8,10.9,14.4,10.9,23.9c0,17.5-14.2,31.8-31.8,31.8c-17.5,0-31.8-14.2-31.8-31.8
		c0-17.5,14.2-31.8,31.8-31.8c3.7,0,7.3,0.7,10.7,1.8"/>
	<path class="st4" d="M57.4,15.1L14.2,58.3c-2.8,2.8-7.3,2.8-10.1,0c-2.8-2.8-2.8-7.3,0-10.2L47.2,4.9L57.4,15.1z"/>
	<path class="st2" d="M28.4,23.8L4.1,48.1c-2.8,2.8-2.8,7.3,0,10.2c2.8,2.8,7.3,2.8,10.1,0L38.5,34L28.4,23.8z"/>
	<path class="st1" d="M57.4,15.1L14.2,58.3c-2.8,2.8-7.3,2.8-10.1,0c-2.8-2.8-2.8-7.3,0-10.2L47.2,4.9L57.4,15.1z"/>
	<line class="st1" x1="44.6" y1="2.3" x2="60" y2="17.7"/>
</g>
</svg>
