<?xml version="1.0" encoding="utf-8"?>
<!-- Generator: Adobe Illustrator 23.0.1, SVG Export Plug-In . SVG Version: 6.00 Build 0)  -->
<svg version="1.1" xmlns="http://www.w3.org/2000/svg" xmlns:xlink="http://www.w3.org/1999/xlink" x="0px" y="0px"
	 viewBox="0 0 1920 3572.7" style="enable-background:new 0 0 1920 3572.7;" xml:space="preserve">
<style type="text/css">
	.st0{display:none;}
	.st1{display:inline;fill:none;stroke:#000000;stroke-miterlimit:10;}
	.st2{clip-path:url(#SVGID_2_);fill:#FFFFFF;}
	.st3{clip-path:url(#SVGID_2_);fill:#893F87;}
	.st4{clip-path:url(#SVGID_2_);fill:#F9F7F9;}
	.st5{clip-path:url(#SVGID_4_);}
	.st6{clip-path:url(#SVGID_6_);fill:#F9F7F9;}
	.st7{clip-path:url(#SVGID_8_);fill:#EAC1D9;}
	.st8{clip-path:url(#SVGID_8_);fill:#FFFFFF;}
	.st9{clip-path:url(#SVGID_8_);}
	.st10{fill:#FFFFFF;}
	.st11{fill:#F2F0F2;}
	.st12{fill:none;}
	.st13{clip-path:url(#SVGID_8_);fill:none;}
	.st14{clip-path:url(#SVGID_10_);fill:#F2F0F2;}
	.st15{clip-path:url(#SVGID_12_);fill:#893F87;}
	.st16{clip-path:url(#SVGID_14_);fill:#F2F0F2;}
	.st17{clip-path:url(#SVGID_16_);}
	.st18{fill:#893F87;}
</style>
<g id="guides" class="st0">
</g>
<g id="Layer_2">
	<g>
		<defs>
			<rect id="SVGID_3_" x="0" y="-1419.9" width="1920" height="1268.9"/>
		</defs>
		<clipPath id="SVGID_2_">
			<use xlink:href="#SVGID_3_"  style="overflow:visible;"/>
		</clipPath>
		<g style="clip-path:url(#SVGID_2_);">
			<defs>
				<rect id="SVGID_5_" x="-24.7" y="-1940.8" width="1964.8" height="2002.9"/>
			</defs>
			<clipPath id="SVGID_4_">
				<use xlink:href="#SVGID_5_"  style="overflow:visible;"/>
			</clipPath>
			<path style="clip-path:url(#SVGID_4_);fill:#F9F7F9;" d="M-6510.6-772.9c362,78.1,897,160.2,1540.5,129.6
				C-4197.5-680-3801.9-853.7-3229-979c1291.9-282.5,1653.6,82.3,3097.6,26c1356.1-52.9,1582-396,3027.1-658.7
				c930.9-169.2,2322.3-296.9,4128.7,3.7L6628.5-334.9L-6826.4,236L-6510.6-772.9z"/>
		</g>
	</g>
	<g>
		<defs>
			<rect id="SVGID_7_" x="0" width="1920" height="3572.7"/>
		</defs>
		<clipPath id="SVGID_6_">
			<use xlink:href="#SVGID_7_"  style="overflow:visible;"/>
		</clipPath>
		<path style="clip-path:url(#SVGID_6_);fill:#EAC1D9;" d="M898.8,15.9c241.4,6.2,464.4,11.3,970.6,134.7
			c208.8,50.9,376.4,105.3,485.1,143.2l-314.5-87.4l-6.1,251.1l-812.6-146.8L467.5,410.8L-47.7,546.4l-20.5-65.8
			c2-102.6,89.7-261.5,278.1-339.8C535.2,5.8,761,12.4,898.8,15.9z"/>
		<path style="clip-path:url(#SVGID_6_);fill:#FFFFFF;" d="M782.5,42.8c213,5.5,409.7,9.9,856.3,118.3
			c184.2,44.7,332.1,92.5,428,125.8l-10.9,94.8l-155.9-40.1L1260,148.1l-650.3-18.7l-284.9,84l-427.1,238.3
			c1.8-90.1,110.7-230.7,277-299.4C461.7,33.8,660.9,39.6,782.5,42.8z"/>
		<path style="clip-path:url(#SVGID_6_);fill:#FFFFFF;" d="M815.2,51.3c213,5.5,409.7,9.9,856.3,118.3
			c184.2,44.7,332.1,92.5,428,125.8l-87.2,3269.5l-2039.9,66.4L-69.5,460.3c1.8-90.1,110.7-230.7,277-299.4
			C494.4,42.3,693.6,48.2,815.2,51.3z"/>
		<g style="clip-path:url(#SVGID_6_);">
			<g>
				<path class="st11" d="M1.3,2387.3c63.7-20.2,131.8-30.3,201.2-40.2c90.7-12.9,419.3-56,836.8,98c81.1,29.9,201.1,93.8,278.7,104
					c123.5,16.2,229.6,10.4,295-26.4c83-46.7,124.5-148.6,106.6-222.7c-3.3-13.9-17.2-63-70.9-110.8c-109-97-307.6-83.6-365.4-72
					c-105.3,21.2-161.7,28-192.4,28c-20.9,1.5-41.7,2.4-61.6,2.2c-56.2-0.5-160.8-9.7-291.8-72.6
					c-175.6-67.6-295.8-185.9-322.8-313.5c-14.9-70.3-15.9-228.8,76.9-361.5c159.7-228.2,477.2-280.3,821.4-245.1
					c77,7.9,415.1,40.4,659.8,228.9V618.5c-0.5,0.1-0.9,0.1-1.4,0.2c-56.9,8.5-113.9,21.1-326.1,91.9
					c-229.9,76.7-237.2,86.5-347.6,119.5c-127.8,38.1-235.5,70.2-372.2,82.7C697,933.6,505.9,889,390.1,851.5
					C221.1,796.7,91.2,718,1.3,651.6V2387.3z"/>
				<path class="st11" d="M1900.7,1433.5c-66.8-34.2-320.8-158.7-664.5-171.5c-184.3-6.9-409.3-12-547.6,140.9
					c-18.7,20.7-110.8,127.2-98.4,269.6c15.9,182.7,195.3,286.6,240,312.4c72,41.8,139.6,56.1,155.9,59.3
					c13.2,2.6,61.4,11.7,161,7.1c105.6-4.8,116.7-17.9,186.6-21.4c46.9-2.4,215.6-17.4,341.2,73.5c35.6,25.8,70.6,51.9,102.8,116.4
					c8.6,17.1,14.4,34.2,18.2,50.5c12.6,61.3,2,107.6,2,107.6c-74.3,301.8-381.2,260.7-431.6,255.4
					c-129-13.4-321.8-118.4-335.2-124.6c-131.7-60.5-235.4-82.1-388.7-94.5c-145.7-11.8-289.8-22.1-449.2,33.5
					c-54.8,19.1-116.7,41.4-168.8,95.4c-8.6,8.9-16.3,18-23.2,27.2v315.8c36.2,47,80.8,76.2,102.8,90.2
					c32.5,20.7,132.7,78.4,372.2,77.3c173.1-0.8,261.7-31.5,433.8-64.5c375.7-72,666-62.3,735.3-59.3c137,5.9,244,21.1,327.5,39
					V1472.7C1950.1,1459.6,1926.1,1446.5,1900.7,1433.5z"/>
				<path class="st11" d="M549.7,729.4c286.3,102.8,619.3,51.5,993.1-32.4c182.9-41,319.9-71.8,430-92.3V374.6
					c-77.1-28.7-182.5-65.2-309.1-100.6c-367-102.7-529.9-112-706.2-122.6c-100.7-6.1-265.6-16.6-506.9,73.4
					c-139.8,52.2-207.9,165.6-212,240.3C235.8,515.5,264,626.8,549.7,729.4z"/>
				<polygon class="st11" points="3.5,361.1 1.3,361.9 1.3,362.4 				"/>
				<path class="st11" d="M1010.1,3545.7c146.4-17.2,279.8-49.4,399.1-89.3c-0.1-1-0.3-2.1-0.4-3.1c5.8-1.7,14.3-4.3,24.6-7.7
					c30.3-9.8,135.8-43.9,223-99.6c65.8-42,192-121.2,178.4-209.8c-14.4-93.9-147.5-101.2-205.3-106.5
					c-277.8,2.6-515.3,46-676.4,75.5c-154,28.1-307.9,65.2-547.6,72.2c-238,6.9-348-21.9-404.3-44.8v271.1
					C248.4,3504.8,597.8,3594.2,1010.1,3545.7z"/>
			</g>
			<rect x="-0.5" y="-48.5" class="st12" width="1985.6" height="3688.5"/>
		</g>
		<rect x="0" y="12.2" style="clip-path:url(#SVGID_6_);fill:none;" width="1920" height="3851.5"/>
	</g>
	<g>
		<defs>
			<rect id="SVGID_9_" y="3733" width="1920" height="1456.6"/>
		</defs>
		<clipPath id="SVGID_8_">
			<use xlink:href="#SVGID_9_"  style="overflow:visible;"/>
		</clipPath>
		<path style="clip-path:url(#SVGID_8_);fill:#F2F0F2;" d="M2083.8,2452.4c45.9,111.4,101.6,282,116.4,496.2
			c5.7,82.3,14,295.4-49,514.6c-120.9,420.9-447.1,663.8-600.4,778C778,4817-301,4574.5-464.7,4535.4c-9,281.9-18,563.9-27,845.8
			c868.7-8.3,1737.4-16.6,2606.1-24.9c138.3-739.9,276.6-1479.7,414.9-2219.6C2380.8,2908.6,2232.3,2680.5,2083.8,2452.4z"/>
		<path style="clip-path:url(#SVGID_8_);fill:#F2F0F2;" d="M2083.8,2291c45.9,111.4,101.6,282,116.4,496.2
			c5.7,82.3,14,295.4-49,514.6c-120.9,420.9-447.1,663.8-600.4,778C778,4655.6-301,4413.1-464.7,4373.9c-9,281.9-18,563.9-27,845.8
			c868.7-8.3,1738.7,2.7,2607.4-5.6c138.3-739.9,275.3-1499,413.6-2238.8C2380.8,2747.2,2232.3,2519.1,2083.8,2291z"/>
	</g>
</g>
</svg>
