<?xml version="1.0" encoding="utf-8"?>
<!-- Generator: Adobe Illustrator 23.0.1, SVG Export Plug-In . SVG Version: 6.00 Build 0)  -->
<svg version="1.1" id="Layer_1" xmlns="http://www.w3.org/2000/svg" xmlns:xlink="http://www.w3.org/1999/xlink" x="0px" y="0px"
	 viewBox="0 0 1920 1631.2" style="enable-background:new 0 0 1920 1631.2;" xml:space="preserve">
<style type="text/css">
	.st0{clip-path:url(#SVGID_2_);}
	.st1{clip-path:url(#SVGID_4_);}
	.st2{clip-path:url(#SVGID_14_);}
	.st3{clip-path:url(#SVGID_18_);}
	.st4{clip-path:url(#SVGID_22_);}
	.st5{clip-path:url(#SVGID_24_);}
	.st6{fill:#EAC1D9;}
	.st7{fill:#EACDC5;}
	.st8{fill:#E6E9ED;}
	.st9{fill:#69326B;}
	.st10{fill:none;stroke:#3A1616;stroke-miterlimit:10;}
	.st11{clip-path:url(#SVGID_28_);}
	.st12{clip-path:url(#SVGID_30_);fill:#F9F7F9;}
	.st13{clip-path:url(#SVGID_28_);fill:#EAC1D9;}
	.st14{clip-path:url(#SVGID_28_);fill:#F2F0F2;}
	.st15{clip-path:url(#SVGID_32_);fill:#FFFFFF;}
	.st16{clip-path:url(#SVGID_28_);fill:#FFFFFF;}
	.st17{clip-path:url(#SVGID_34_);}
	.st18{clip-path:url(#SVGID_36_);fill:#F2F0F2;}
	.st19{clip-path:url(#SVGID_38_);fill:#F2F0F2;}
	.st20{clip-path:url(#SVGID_38_);fill:#F4E1EB;}
	.st21{clip-path:url(#SVGID_38_);fill:#893F87;}
	.st22{clip-path:url(#SVGID_40_);}
	.st23{clip-path:url(#SVGID_42_);fill:#FFFFFF;}
	.st24{clip-path:url(#SVGID_42_);fill:#893F87;}
	.st25{clip-path:url(#SVGID_42_);fill:#F9F7F9;}
</style>
<g>
	<defs>
		<rect id="SVGID_39_" width="1920" height="1631.2"/>
	</defs>
	<clipPath id="SVGID_2_">
		<use xlink:href="#SVGID_39_"  style="overflow:visible;"/>
	</clipPath>
	<g class="st0">
		<g>
			<defs>
				<rect id="SVGID_41_" x="-35" y="-740.5" width="1989.4" height="2371.8"/>
			</defs>
			<clipPath id="SVGID_4_">
				<use xlink:href="#SVGID_41_"  style="overflow:visible;"/>
			</clipPath>
			<path style="clip-path:url(#SVGID_4_);fill:#FFFFFF;" d="M-1072.9,938.2C-669.7,639.7-72,753.4,81.6,800.6s547.6,89.6,871.5-61
				s867-310.1,1264.5-322.7l34.5,1710.5l-3300,48.2L-1072.9,938.2z"/>
			<path style="clip-path:url(#SVGID_4_);fill:#893F87;" d="M5842,440.8c-244,56.3-588.4,64.3-1023.8,49.8
				c-522.7-17.3-807.3-140.4-1195.9-219.6c-876.2-178.4-1117.2,71.7-2094,47.7C610.9,296.1,454.8,66.4-524.8-97.2
				c-631-105.4-1573-178.2-2791.3,42.6l-55.7,1679.7l9102.4,255.3L5842,440.8z"/>
			<path style="clip-path:url(#SVGID_4_);fill:#F9F7F9;" d="M6045.4,573.9c-244.8,52.8-589.3,55.8-1024.4,35.1
				c-522.4-24.8-805.2-152-1192.6-236.7c-873.6-191-1118.1,55.7-2094.5,17.6C816.9,354.1,664.1,122.1-313-55.5
				C-942.5-169.9-1883.3-256.2-3104.7-53l-79.8,1678.7l9097.8,386L6045.4,573.9z"/>
		</g>
	</g>
</g>
</svg>
