<?xml version="1.0" encoding="utf-8"?>
<!-- Generator: Adobe Illustrator 23.0.1, SVG Export Plug-In . SVG Version: 6.00 Build 0)  -->
<svg version="1.1" id="Layer_1" xmlns="http://www.w3.org/2000/svg" xmlns:xlink="http://www.w3.org/1999/xlink" x="0px" y="0px"
	 viewBox="0 0 162.3 87.4" style="enable-background:new 0 0 162.3 87.4;" xml:space="preserve">
<style type="text/css">
	
		.st0{clip-path:url(#SVGID_2_);fill:none;stroke:#939393;stroke-width:2.5;stroke-linecap:round;stroke-linejoin:round;stroke-miterlimit:10;}
	.st1{clip-path:url(#SVGID_2_);fill:#D888D8;}
	.st2{clip-path:url(#SVGID_2_);fill:#90CAF9;}
	.st3{clip-path:url(#SVGID_2_);fill:none;stroke:#939393;stroke-width:2.5;stroke-miterlimit:10;}
	
		.st4{clip-path:url(#SVGID_2_);fill:none;stroke:#FFFFFF;stroke-width:2.5;stroke-linecap:round;stroke-linejoin:round;stroke-miterlimit:10;}
</style>
<g>
	<defs>
		<rect id="SVGID_1_" y="0" width="162.3" height="87.4"/>
	</defs>
	<clipPath id="SVGID_2_">
		<use xlink:href="#SVGID_1_"  style="overflow:visible;"/>
	</clipPath>
	<path class="st0" d="M78.9,30.2c2-6.1,5.4-11.8,10.2-16.6c16.5-16.4,43.1-16.4,59.6,0c16.4,16.4,16.5,43.1,0,59.6
		c-16.5,16.5-43.1,16.5-59.6,0c-1.9-1.9-3.6-3.9-5-6.1"/>
	<path class="st1" d="M100.1,62.2c-10.4-10.4-10.4-27.2,0-37.6c10.4-10.4,27.2-10.4,37.6,0c10.4,10.4,10.4,27.2,0,37.6
		C127.3,72.6,110.5,72.6,100.1,62.2"/>
	<path class="st2" d="M59.5,49.4c0-14,28.2-10.1,28.5,0C88.3,59.6,59.5,63.4,59.5,49.4"/>
	<path class="st3" d="M59.5,49.4c0-14,28.2-10.1,28.5,0C88.3,59.6,59.5,63.4,59.5,49.4z"/>
	<path class="st0" d="M59.5,50.1c-6.1,0-6.1-6.6-12.2-6.6c-6.1,0-6.1,6.6-12.2,6.6c-6.1,0-6.1-6.6-12.2-6.6"/>
	<path class="st2" d="M18.5,60.2c0-6.6,13.3-4.8,13.5,0C32.1,65,18.5,66.8,18.5,60.2"/>
	<path class="st3" d="M18.5,60.2c0-6.6,13.3-4.8,13.5,0C32.1,65,18.5,66.8,18.5,60.2z"/>
	<path class="st0" d="M18.5,60.5c-2.9,0-2.9-3.1-5.8-3.1c-2.9,0-2.9,3.1-5.8,3.1c-2.9,0-2.9-3.1-5.7-3.1"/>
	<path class="st0" d="M48.9,22.6c0-6.6,13.3-4.8,13.5,0C62.6,27.4,48.9,29.2,48.9,22.6z"/>
	<path class="st0" d="M48.9,22.9c-2.9,0-2.9-3.1-5.8-3.1c-2.9,0-2.9,3.1-5.8,3.1c-2.9,0-2.9-3.1-5.7-3.1"/>
	<path class="st0" d="M62.2,80.2c0-9.2,18.4-6.6,18.6,0C81,86.8,62.2,89.3,62.2,80.2z"/>
	<path class="st0" d="M62.2,80.6c-4,0-4-4.3-8-4.3c-4,0-4,4.3-8,4.3c-4,0-4-4.3-7.9-4.3"/>
	<path class="st4" d="M118.9,23.8c10.8,0,19.5,8.7,19.5,19.5c0,10.8-8.7,19.5-19.5,19.5"/>
</g>
</svg>
