<?xml version="1.0" encoding="utf-8"?>
<!-- Generator: Adobe Illustrator 23.0.1, SVG Export Plug-In . SVG Version: 6.00 Build 0)  -->
<svg version="1.1" xmlns="http://www.w3.org/2000/svg" xmlns:xlink="http://www.w3.org/1999/xlink" x="0px" y="0px"
	 viewBox="0 0 1920 1581.1" style="enable-background:new 0 0 1920 1581.1;" xml:space="preserve">
<style type="text/css">
	.st0{display:none;}
	.st1{display:inline;fill:none;stroke:#000000;stroke-miterlimit:10;}
	.st2{fill:#FFFFFF;}
	.st3{fill:#F4E1EB;}
	.st4{clip-path:url(#SVGID_2_);fill:#FFFFFF;}
	.st5{clip-path:url(#SVGID_2_);fill:#893F87;}
	.st6{clip-path:url(#SVGID_2_);fill:#F9F7F9;}
	.st7{clip-path:url(#SVGID_4_);}
	.st8{clip-path:url(#SVGID_6_);fill:#F9F7F9;}
	.st9{clip-path:url(#SVGID_8_);fill:#EAC1D9;}
	.st10{clip-path:url(#SVGID_8_);fill:#FFFFFF;}
	.st11{clip-path:url(#SVGID_8_);}
	.st12{fill:#F2F0F2;}
	.st13{fill:none;}
	.st14{clip-path:url(#SVGID_8_);fill:none;}
	.st15{clip-path:url(#SVGID_10_);fill:#F2F0F2;}
	.st16{clip-path:url(#SVGID_12_);fill:#893F87;}
	.st17{clip-path:url(#SVGID_14_);fill:#F2F0F2;}
	.st18{clip-path:url(#SVGID_16_);}
	.st19{fill:#893F87;}
</style>
<g id="guides" class="st0">
</g>
<g id="Layer_2">
	<rect x="0" class="st2" width="1920" height="1088.8"/>
	<rect x="0" y="1219.5" class="st3" width="1920" height="361.5"/>
	<g>
		<defs>
			<rect id="SVGID_15_" x="0" width="1920" height="1581.1"/>
		</defs>
		<clipPath id="SVGID_2_">
			<use xlink:href="#SVGID_15_"  style="overflow:visible;"/>
		</clipPath>
		<g style="clip-path:url(#SVGID_2_);">
			<path class="st12" d="M222.3,1441.5c392.8-3.6,534.6-21.2,809.5-81.3c497.9-108.9,707.9-17.4,1130.2,8.8
				c122.5-655.1,245-1310.2,367.4-1965.4c-7.8-12-15.6-24-23.4-36c7.8-41.8,15.6-83.6,23.4-125.4
				c-148.5-228.1-297.1-456.2-445.6-684.3c30.9,74.9,66.2,176.6,90.5,300.4c-30.2-46.3-60.3-92.6-90.5-139
				c45.9,111.4,101.6,282,116.4,496.2c0.6,9.1,1.3,19.9,1.9,32.1c-4.5,93.5-18,206.5-50.9,321.1c-120.9,420.9-447.1,663.8-600.4,778
				C778,922.6-301,680.1-464.7,640.9c-6.9,215.8-13.8,431.7-20.6,647.5C-313.1,1330.8-74.4,1444.3,222.3,1441.5z"/>
			<path class="st19" d="M1031.8,1360.2c-274.9,60.1-416.7,77.7-809.5,81.3c-296.6,2.7-535.3-110.8-707.6-153.1
				c-2.1,66.1-4.2,132.2-6.3,198.2c1.7,0,3.4,0,5.1,0c-1.7,53.8-3.4,107.6-5.1,161.5v0c20.7-0.2,41.3-0.4,62-0.6l-10.7-117
				c173.7,37.5,418.2,39.6,727.1,24.9c370.8-17.6,571.5-107.9,846.4-168c455-99.5,669.5-31.7,1025.3,0.8c1.2-6.4,2.4-12.8,3.6-19.2
				C1739.7,1342.8,1529.7,1251.4,1031.8,1360.2z"/>
		</g>
	</g>
</g>
</svg>
