<?xml version="1.0" encoding="utf-8"?>
<!-- Generator: Adobe Illustrator 23.0.1, SVG Export Plug-In . SVG Version: 6.00 Build 0)  -->
<svg version="1.1" xmlns="http://www.w3.org/2000/svg" xmlns:xlink="http://www.w3.org/1999/xlink" x="0px" y="0px"
	 viewBox="0 0 1920 1456.6" style="enable-background:new 0 0 1920 1456.6;" xml:space="preserve">
<style type="text/css">
	.st0{display:none;}
	.st1{display:inline;fill:none;stroke:#000000;stroke-miterlimit:10;}
	.st2{clip-path:url(#SVGID_2_);fill:#FFFFFF;}
	.st3{clip-path:url(#SVGID_2_);fill:#893F87;}
	.st4{clip-path:url(#SVGID_2_);fill:#F9F7F9;}
	.st5{clip-path:url(#SVGID_4_);}
	.st6{clip-path:url(#SVGID_6_);fill:#F9F7F9;}
	.st7{clip-path:url(#SVGID_8_);fill:#EAC1D9;}
	.st8{clip-path:url(#SVGID_8_);fill:#FFFFFF;}
	.st9{clip-path:url(#SVGID_8_);}
	.st10{fill:#FFFFFF;}
	.st11{fill:#F2F0F2;}
	.st12{fill:none;}
	.st13{clip-path:url(#SVGID_8_);fill:none;}
	.st14{clip-path:url(#SVGID_10_);fill:#F2F0F2;}
	.st15{clip-path:url(#SVGID_12_);fill:#893F87;}
	.st16{clip-path:url(#SVGID_14_);fill:#F2F0F2;}
	.st17{clip-path:url(#SVGID_16_);}
	.st18{fill:#893F87;}
</style>
<g id="guides" class="st0">
</g>
<g id="Layer_2">
	<g>
		<defs>
			<rect id="SVGID_7_" x="0" y="-3733" width="1920" height="3572.7"/>
		</defs>
		<clipPath id="SVGID_2_">
			<use xlink:href="#SVGID_7_"  style="overflow:visible;"/>
		</clipPath>
		<rect x="0" y="-3720.8" style="clip-path:url(#SVGID_2_);fill:none;" width="1920" height="3851.5"/>
	</g>
	<g>
		<defs>
			<rect id="SVGID_9_" width="1920" height="1456.6"/>
		</defs>
		<clipPath id="SVGID_4_">
			<use xlink:href="#SVGID_9_"  style="overflow:visible;"/>
		</clipPath>
		<path style="clip-path:url(#SVGID_4_);fill:#F2F0F2;" d="M2083.8-1280.6c45.9,111.4,101.6,282,116.4,496.2
			c5.7,82.3,14,295.4-49,514.6c-120.9,420.9-447.1,663.8-600.4,778C778,1084-301,841.5-464.7,802.3c-9,281.9-18,563.9-27,845.8
			c868.7-8.3,1737.4-16.6,2606.1-24.9c138.3-739.9,276.6-1479.7,414.9-2219.6C2380.8-824.4,2232.3-1052.5,2083.8-1280.6z"/>
		<path style="clip-path:url(#SVGID_4_);fill:#F2F0F2;" d="M2083.8-1442c45.9,111.4,101.6,282,116.4,496.2
			c5.7,82.3,14,295.4-49,514.6c-120.9,420.9-447.1,663.8-600.4,778C778,922.6-301,680.1-464.7,640.9c-9,281.9-18,563.9-27,845.8
			c868.7-8.3,1738.7,2.7,2607.4-5.6c138.3-739.9,275.3-1499,413.6-2238.8C2380.8-985.8,2232.3-1213.9,2083.8-1442z"/>
	</g>
</g>
</svg>
