<?xml version="1.0" encoding="utf-8"?>
<!-- Generator: Adobe Illustrator 23.0.1, SVG Export Plug-In . SVG Version: 6.00 Build 0)  -->
<svg version="1.1" id="Layer_1" xmlns="http://www.w3.org/2000/svg" xmlns:xlink="http://www.w3.org/1999/xlink" x="0px" y="0px"
	 viewBox="0 0 83.2 105.7" style="enable-background:new 0 0 83.2 105.7;" xml:space="preserve">
<style type="text/css">
	.st0{clip-path:url(#SVGID_2_);fill:#FFFFFF;}
	
		.st1{clip-path:url(#SVGID_2_);fill:none;stroke:#939393;stroke-width:2.5;stroke-linecap:round;stroke-linejoin:round;stroke-miterlimit:10;}
	.st2{clip-path:url(#SVGID_2_);fill:#90CAF9;}
	.st3{clip-path:url(#SVGID_2_);fill:none;stroke:#939393;stroke-width:2.5;stroke-linecap:round;stroke-miterlimit:10;}
</style>
<g>
	<defs>
		<rect id="SVGID_1_" width="83.2" height="105.7"/>
	</defs>
	<clipPath id="SVGID_2_">
		<use xlink:href="#SVGID_1_"  style="overflow:visible;"/>
	</clipPath>
	<path class="st0" d="M75,1.2c0,0-5.5,5.9-3.5,32.3C73.8,64.4,82,66.5,82,82.7c0,10.2-5.8,21.8-5.8,21.8"/>
	<path class="st1" d="M75,1.2c0,0-5.5,5.9-3.5,32.3C73.8,64.4,82,66.5,82,82.7c0,10.2-5.8,21.8-5.8,21.8"/>
	<path class="st0" d="M25.6,5.3c0,4.4-26,12.1-24.3,43.1c2,37.6,44.5,40.3,44.5,40.3"/>
	<path class="st1" d="M25.6,5.3c0,4.4-26,12.1-24.3,43.1c2,37.6,44.5,40.3,44.5,40.3"/>
	<line class="st0" x1="32.3" y1="86" x2="40.2" y2="104.5"/>
	<line class="st1" x1="32.3" y1="86" x2="40.2" y2="104.5"/>
	<path class="st2" d="M40.2,13.7c5.8,0,22.4,3.8,22.4,29c0,34.1-19,33.7-22.4,33.7c-5.3,0-27.9-7-27.9-30.4
		C12.4,18.1,34.4,13.7,40.2,13.7"/>
	<path class="st0" d="M43.4,32.1c0,0,1.5-7.9,5.4-6.5c3.9,1.3,8.9,6,5,10.3c-1.3,1.4-3.5-2.6-4.8-2.6h0c0.3,2.8,1.1,7.4-1.4,9.9
		c-2.7,2.7-7.1-0.8-7.1-0.8l-0.2-0.1c0.2,1.1,0.3,2.4,0.2,4l0,0c1.2,0.6,2.7,1.1,4.1,2.5c1.6,1.6,7.4,9.8,0.8,16.5
		c-6.6,6.6-13.6,3.1-16.8,0c-3.1-3.1-2.6-8.5-3.5-10.1c-0.9-1.6-9.2-6.7-2.9-21.1c6.4-14.4,13.7-13.5,16.6-12.3
		C43.4,23.6,43.6,28.3,43.4,32.1"/>
	<path class="st1" d="M43.4,32.1c0,0,1.5-7.9,5.4-6.5c3.9,1.3,8.9,6,5,10.3c-1.3,1.4-3.5-2.6-4.8-2.6h0c0.3,2.8,1.1,7.4-1.4,9.9
		c-2.7,2.7-7.1-0.8-7.1-0.8l-0.2-0.1c0.2,1.1,0.3,2.4,0.2,4l0,0c1.2,0.6,2.7,1.1,4.1,2.5c1.6,1.6,7.4,9.8,0.8,16.5
		c-6.6,6.6-13.6,3.1-16.8,0c-3.1-3.1-2.6-8.5-3.5-10.1c-0.9-1.6-9.2-6.7-2.9-21.1c6.4-14.4,13.7-13.5,16.6-12.3
		C43.4,23.6,43.6,28.3,43.4,32.1z"/>
	<path class="st3" d="M35.5,43.9c0,0,2.1-0.1,2.7,0.5c0.6,0.6,0.3,0.9,1.6,1.6c0.2,0.1,0.4,0.2,0.6,0.3"/>
	<path class="st3" d="M26.8,52.1c0,0,2.3,0.2,4.5-3.1c2.2-3.3,1.9-4.5,4.2-5.1"/>
	<path class="st3" d="M27.1,44c1.3-0.2,4.1-9.6,10.5-5.9c1.2,0.7,2.2,1.9,2.6,4.3"/>
	<path class="st1" d="M43.4,32.1c-0.1,2.1-0.3,3.9,0.1,4.7"/>
	<path class="st3" d="M35.1,37.2c0,0-1.6-3.3-1.5-5.3"/>
</g>
</svg>
