<?xml version="1.0" encoding="utf-8"?>
<!-- Generator: Adobe Illustrator 23.0.1, SVG Export Plug-In . SVG Version: 6.00 Build 0)  -->
<svg version="1.1" id="Layer_1" xmlns="http://www.w3.org/2000/svg" xmlns:xlink="http://www.w3.org/1999/xlink" x="0px" y="0px"
	 viewBox="0 0 1920 4516.4" style="enable-background:new 0 0 1920 4516.4;" xml:space="preserve">
<style type="text/css">
	.st0{clip-path:url(#SVGID_2_);}
	.st1{clip-path:url(#SVGID_4_);}
	.st2{clip-path:url(#SVGID_14_);}
	.st3{clip-path:url(#SVGID_18_);}
	.st4{clip-path:url(#SVGID_22_);}
	.st5{clip-path:url(#SVGID_24_);}
	.st6{fill:#EAC1D9;}
	.st7{fill:#EACDC5;}
	.st8{fill:#E6E9ED;}
	.st9{fill:#69326B;}
	.st10{fill:none;stroke:#3A1616;stroke-miterlimit:10;}
	.st11{clip-path:url(#SVGID_28_);}
	.st12{clip-path:url(#SVGID_30_);fill:#F9F7F9;}
	.st13{clip-path:url(#SVGID_28_);fill:#EAC1D9;}
	.st14{clip-path:url(#SVGID_28_);fill:#F2F0F2;}
	.st15{clip-path:url(#SVGID_32_);fill:#FFFFFF;}
	.st16{clip-path:url(#SVGID_28_);fill:#FFFFFF;}
	.st17{clip-path:url(#SVGID_34_);}
	.st18{clip-path:url(#SVGID_36_);fill:#F2F0F2;}
	.st19{clip-path:url(#SVGID_38_);fill:#F2F0F2;}
	.st20{clip-path:url(#SVGID_38_);fill:#F4E1EB;}
	.st21{clip-path:url(#SVGID_38_);fill:#893F87;}
	.st22{clip-path:url(#SVGID_40_);}
	.st23{clip-path:url(#SVGID_42_);fill:#FFFFFF;}
	.st24{clip-path:url(#SVGID_42_);fill:#893F87;}
	.st25{clip-path:url(#SVGID_42_);fill:#F9F7F9;}
</style>
<g>
	<defs>
		<rect id="SVGID_27_" x="0" width="1920" height="4516.4"/>
	</defs>
	<clipPath id="SVGID_2_">
		<use xlink:href="#SVGID_27_"  style="overflow:visible;"/>
	</clipPath>
	<g class="st0">
		<defs>
			<rect id="SVGID_29_" x="-24.7" y="-543.9" width="1964.8" height="2002.9"/>
		</defs>
		<clipPath id="SVGID_4_">
			<use xlink:href="#SVGID_29_"  style="overflow:visible;"/>
		</clipPath>
		<path style="clip-path:url(#SVGID_4_);fill:#F9F7F9;" d="M-6510.6,624c362,78.1,897,160.2,1540.5,129.6
			c772.6-36.7,1168.2-210.5,1741.1-335.8c1291.9-282.5,1653.6,82.3,3097.6,26c1356.1-52.9,1582-396,3027.1-658.7
			c930.9-169.2,2322.3-296.9,4128.7,3.7L6628.5,946.3l-13454.9,570.9L-6510.6,624z"/>
	</g>
	<path style="clip-path:url(#SVGID_2_);fill:#EAC1D9;" d="M898.8,959.6c241.4,6.2,464.4,11.3,970.6,134.7
		c208.8,50.9,376.4,105.3,485.1,143.2l-314.5-87.4l-6.1,251.1l-812.6-146.8l-753.8,100.1l-515.3,135.6l-20.5-65.8
		c2-102.6,89.7-261.5,278.1-339.8C535.2,949.4,761,956.1,898.8,959.6z"/>
	<polygon style="clip-path:url(#SVGID_2_);fill:#F2F0F2;" points="-31.5,1297 735.6,996.9 1253.1,1045.9 1940.1,1263.3 
		1940.1,4566.3 -31.5,4566.3 	"/>
	<g class="st0">
		<defs>
			<rect id="SVGID_31_" x="-33.2" y="886.6" width="1985.6" height="3688.5"/>
		</defs>
		<clipPath id="SVGID_6_">
			<use xlink:href="#SVGID_31_"  style="overflow:visible;"/>
		</clipPath>
		<path style="clip-path:url(#SVGID_6_);fill:#FFFFFF;" d="M1488.7,3950.7c20.8,0.2,51.1,2.3,86.5,11.2
			c32.2,8.1,210.1,0,226.9,109.3c13.6,88.6-112.6,167.9-178.4,209.8c-87.3,55.6-192.7,89.7-223,99.6c-10.3,3.3-18.8,5.9-24.6,7.7
			c1.5,15.1,6.6,26,13.8,33.7c72.2,76.7,401.3-118.9,579.9-232.8c8.2-88.3,16.4-176.6,24.6-265c-145.1-12.3-290.2-24.5-435.3-36.8
			C1561.2,3901.1,1486.6,3937.1,1488.7,3950.7z"/>
		<path style="clip-path:url(#SVGID_6_);fill:#FFFFFF;" d="M1988.8,4062.2c-152.3,118.9-503,358.8-1011.4,418.6
			c-697.4,82.1-1215-230.6-1361.8-326.7c1.4,66.7,2.7,133.4,4.1,200.1c35.5,119.8,71.1,239.6,106.6,359.4
			c786.2,24.5,1572.4,49,2358.6,73.5c-1.4-168.8-2.7-337.6-4.1-506.4C2050.1,4207.9,2019.4,4135,1988.8,4062.2z"/>
		<path style="clip-path:url(#SVGID_6_);fill:#FFFFFF;" d="M782.5,986.4c213,5.5,409.7,9.9,856.3,118.3
			c184.2,44.7,332.1,92.5,428,125.8l-10.9,94.8l-155.9-40.1L1260,1091.8l-650.3-18.7l-284.9,84l-427.1,238.3
			c1.8-90.1,110.7-230.7,277-299.4C461.7,977.5,660.9,983.3,782.5,986.4z"/>
		<path style="clip-path:url(#SVGID_6_);fill:#FFFFFF;" d="M-111.7,1346.1c-333.3-60.6-554.9,278.3-798.4,186.3v129.7l824.5-117.4
			c88.3,72.3,236.3,175.1,443,242c115.8,37.5,306.9,82.2,535.3,61.3c136.7-12.5,244.4-44.6,372.2-82.7
			c110.4-32.9,117.7-42.8,347.6-119.5c212.2-70.8,269.2-83.4,326.1-91.9c74.6-11.1,165.5-24.6,273.8-9.2
			c53.3,7.6,345,55.6,495.3,306.3c37.6,62.7,111.1,185.4,73.8,336.9c-41.1,167-186.1,246.2-212.3,260.4
			c-220.7,119.6-455.1-4.4-486.1-21.4c-53.4-29.4-86.5-60.2-101.5-73.5c-246.2-219.2-619.9-255.1-701.4-263.4
			c-344.2-35.2-661.7,16.9-821.4,245.1c-92.8,132.7-91.8,291.1-76.9,361.5c27,127.6,147.2,245.8,322.8,313.5
			c131,62.9,235.6,72,291.8,72.6c19.9,0.2,40.6-0.6,61.6-2.2c30.7,0,87.1-6.7,192.4-28c57.8-11.7,256.4-25,365.4,72
			c53.7,47.8,67.6,96.9,70.9,110.8c17.8,74.1-23.6,176-106.6,222.7c-65.4,36.8-171.5,42.7-295,26.4c-77.7-10.2-197.6-74.1-278.7-104
			c-417.4-154-746.1-110.9-836.8-98c-135.7,19.3-266,39.4-369.2,134.1c-149.7,137.4-119.8,319.7-116.9,335.2
			c33.3,181.2,201.6,276.3,258.4,304.2c46.1,22.7,148.2,65,430.7,56.7c239.7-7,393.6-44,547.6-72.2c206-37.7,536.6-98.1,916.8-67
			c379.4,31,535.9,257.6,738.3,175.3l-270.7-103.1c-40.4-23.7-99.6-55.3-175.4-85.1c-85.2-33.4-239.7-83.5-516.8-95.4
			c-69.2-3-359.6-12.7-735.3,59.3c-172,33-260.7,63.7-433.8,64.5c-239.6,1.1-339.8-56.6-372.2-77.3c-34.4-22-124.7-81.4-150.7-188.2
			c-2.1-8.8-31.3-139,71.1-244.9c52.2-54,114-76.3,168.8-95.4c159.4-55.6,303.4-45.3,449.2-33.5c153.3,12.4,256.9,34,388.7,94.5
			c13.4,6.1,206.2,111.2,335.2,124.6c50.3,5.2,357.3,46.4,431.6-255.4c0,0,10.6-46.3-2-107.6c-3.8-16.4-9.6-33.4-18.2-50.5
			c-32.2-64.5-67.2-90.6-102.8-116.4c-125.6-90.9-294.3-75.9-341.2-73.5c-69.9,3.5-81,16.7-186.6,21.4c-99.6,4.5-147.8-4.5-161-7.1
			c-16.3-3.3-83.8-17.6-155.9-59.3c-44.6-25.9-224.1-129.7-240-312.4c-12.4-142.3,79.7-248.9,98.4-269.6
			c138.3-152.9,363.3-147.8,547.6-140.9c343.7,12.8,597.7,137.3,664.5,171.5c458.4,234.6,452.3,489.2,732.2,539.1
			c319.2,56.9,741.9-200.2,787.6-502.4c53.9-356.6-430.6-688.4-781.4-808.7c-372.3-127.6-425.5-114.9-1096.1,35.5
			c-373.8,83.9-706.9,135.2-993.1,32.4c-285.7-102.6-313.9-213.9-311.1-264.4c4.1-74.7,72.2-188.1,212-240.3
			c241.2-90,406.2-79.5,506.9-73.4c176.4,10.6,339.2,20,706.2,122.6c151.4,42.3,272.5,86.2,351,116.5c2.1-23.1,4.1-46.3,6.2-69.4
			c-235.2-76.9-472.2-129.4-707.4-206.3c-296,4.7-590.2-14.9-886.2-10.2L-111.7,1346.1z"/>
	</g>
</g>
<g>
	<defs>
		<rect id="SVGID_33_" y="4975.7" width="1920" height="3053.1"/>
	</defs>
	<clipPath id="SVGID_8_">
		<use xlink:href="#SVGID_33_"  style="overflow:visible;"/>
	</clipPath>
	<g style="clip-path:url(#SVGID_8_);">
		<g>
			<defs>
				<rect id="SVGID_35_" x="-35.4" y="4952.2" width="1984.7" height="1744.7"/>
			</defs>
			<clipPath id="SVGID_10_">
				<use xlink:href="#SVGID_35_"  style="overflow:visible;"/>
			</clipPath>
			<path style="clip-path:url(#SVGID_10_);fill:#F2F0F2;" d="M2083.8,3695.4c45.9,111.4,101.6,282,116.4,496.2
				c5.7,82.3,14,295.4-49,514.6c-120.9,420.9-447.1,663.8-600.4,778C778,6060-301,5817.5-464.7,5778.4c-9,281.9-18,563.9-27,845.8
				c868.7-8.3,1737.4-16.6,2606.1-24.9c138.3-739.9,276.6-1479.7,414.9-2219.6C2380.8,4151.6,2232.3,3923.5,2083.8,3695.4z"/>
			<path style="clip-path:url(#SVGID_10_);fill:#F2F0F2;" d="M2083.8,3534c45.9,111.4,101.6,282,116.4,496.2
				c5.7,82.3,14,295.4-49,514.6c-120.9,420.9-447.1,663.8-600.4,778C778,5898.6-301,5656.1-464.7,5616.9c-9,281.9-18,563.9-27,845.8
				c868.7-8.3,1737.4-16.6,2606.1-24.9c138.3-739.9,276.6-1479.7,414.9-2219.6C2380.8,3990.2,2232.3,3762.1,2083.8,3534z"/>
		</g>
	</g>
</g>
</svg>
