<?xml version="1.0" encoding="utf-8"?>
<!-- Generator: Adobe Illustrator 23.0.1, SVG Export Plug-In . SVG Version: 6.00 Build 0)  -->
<svg version="1.1" xmlns="http://www.w3.org/2000/svg" xmlns:xlink="http://www.w3.org/1999/xlink" x="0px" y="0px"
	 viewBox="0 0 1920 195.8" style="enable-background:new 0 0 1920 195.8;" xml:space="preserve">
<style type="text/css">
	.st0{display:none;}
	.st1{display:inline;fill:none;stroke:#000000;stroke-miterlimit:10;}
	.st2{fill:#FFFFFF;}
	.st3{fill:#F4E1EB;}
	.st4{clip-path:url(#SVGID_2_);fill:#FFFFFF;}
	.st5{clip-path:url(#SVGID_2_);fill:#893F87;}
	.st6{clip-path:url(#SVGID_2_);fill:#F9F7F9;}
	.st7{clip-path:url(#SVGID_4_);}
	.st8{clip-path:url(#SVGID_6_);fill:#F9F7F9;}
	.st9{clip-path:url(#SVGID_8_);fill:#EAC1D9;}
	.st10{clip-path:url(#SVGID_8_);fill:#FFFFFF;}
	.st11{clip-path:url(#SVGID_8_);}
	.st12{fill:#F2F0F2;}
	.st13{fill:none;}
	.st14{clip-path:url(#SVGID_8_);fill:none;}
	.st15{clip-path:url(#SVGID_10_);fill:#F2F0F2;}
	.st16{clip-path:url(#SVGID_12_);fill:#893F87;}
	.st17{clip-path:url(#SVGID_14_);fill:#F2F0F2;}
	.st18{clip-path:url(#SVGID_16_);}
	.st19{fill:#893F87;}
</style>
<g id="guides" class="st0">
</g>
<g id="Layer_2">
	<rect y="12.5" class="st2" width="1920" height="183.3"/>
	<polygon class="st3" points="0,0 1920,0 1920,88.2 946.9,155.7 0,83.4 	"/>
	<g>
		<defs>
			<rect id="SVGID_11_" x="-3121" y="-579.6" width="1920" height="260.4"/>
		</defs>
		<clipPath id="SVGID_2_">
			<use xlink:href="#SVGID_11_"  style="overflow:visible;"/>
		</clipPath>
		<path class="st5" d="M-3561.5-354.2c173.7,37.5,418.2,39.6,727.1,24.9c370.8-17.6,571.5-107.9,846.4-168
			c620-135.6,793.6,39.5,1486.6,12.5c650.8-25.4,759.2-190,1452.7-316.1c429.3-78,1062.6-137.7,1880.6-14.2l-0.5-11.3
			c-866.9-144.3-1534.6-83-1981.3-1.8C156.5-702,48.1-537.4-602.7-512c-693,27-866.6-148-1486.6-12.5
			c-274.9,60.1-416.7,77.7-809.5,81.3c-309.1,2.8-555.4-120.5-729.1-158l40.3,971.8l92.2-3.9L-3561.5-354.2z"/>
	</g>
	<g>
		<defs>
			<rect id="SVGID_13_" y="-5.1" width="1920" height="200.9"/>
		</defs>
		<clipPath id="SVGID_4_">
			<use xlink:href="#SVGID_13_"  style="overflow:visible;"/>
		</clipPath>
		<path style="clip-path:url(#SVGID_4_);fill:#F2F0F2;" d="M5241-543.3l-126.8,358.6c-362-78.1-897-160.2-1540.5-129.6
			c-772.6,36.7-1168.2,210.5-1741.1,335.8C540.7,303.9,179-61-1265-4.6c-1356.1,52.9-1582,396-3027.1,658.7
			c-895.3,162.8-2216.5,287-3923,28.9l-9.7,28.4c1806.3,300.6,3197.7,173,4128.7,3.7c1445.1-262.7,1671-605.7,3027.1-658.7
			C375,0.1,736.7,364.9,2028.6,82.4c572.9-125.3,968.4-299,1741.1-335.8c643.5-30.6,1178.5,51.5,1540.5,129.6l151.7-429L5241-543.3z
			"/>
	</g>
</g>
</svg>
