<?xml version="1.0" encoding="utf-8"?>
<!-- Generator: Adobe Illustrator 23.0.1, SVG Export Plug-In . SVG Version: 6.00 Build 0)  -->
<svg version="1.1" id="Layer_1" xmlns="http://www.w3.org/2000/svg" xmlns:xlink="http://www.w3.org/1999/xlink" x="0px" y="0px"
	 viewBox="0 0 1920 3053.1" style="enable-background:new 0 0 1920 3053.1;" xml:space="preserve">
<style type="text/css">
	.st0{clip-path:url(#SVGID_2_);}
	.st1{clip-path:url(#SVGID_4_);}
	.st2{clip-path:url(#SVGID_14_);}
	.st3{clip-path:url(#SVGID_18_);}
	.st4{clip-path:url(#SVGID_22_);}
	.st5{clip-path:url(#SVGID_24_);}
	.st6{fill:#EAC1D9;}
	.st7{fill:#EACDC5;}
	.st8{fill:#E6E9ED;}
	.st9{fill:#69326B;}
	.st10{fill:none;stroke:#3A1616;stroke-miterlimit:10;}
	.st11{clip-path:url(#SVGID_28_);}
	.st12{clip-path:url(#SVGID_30_);fill:#F9F7F9;}
	.st13{clip-path:url(#SVGID_28_);fill:#EAC1D9;}
	.st14{clip-path:url(#SVGID_28_);fill:#F2F0F2;}
	.st15{clip-path:url(#SVGID_32_);fill:#FFFFFF;}
	.st16{clip-path:url(#SVGID_28_);fill:#FFFFFF;}
	.st17{clip-path:url(#SVGID_34_);}
	.st18{clip-path:url(#SVGID_36_);fill:#F2F0F2;}
	.st19{clip-path:url(#SVGID_38_);fill:#F2F0F2;}
	.st20{clip-path:url(#SVGID_38_);fill:#F4E1EB;}
	.st21{clip-path:url(#SVGID_38_);fill:#893F87;}
	.st22{clip-path:url(#SVGID_40_);}
	.st23{clip-path:url(#SVGID_42_);fill:#FFFFFF;}
	.st24{clip-path:url(#SVGID_42_);fill:#893F87;}
	.st25{clip-path:url(#SVGID_42_);fill:#F9F7F9;}
</style>
<g>
	<defs>
		<rect id="SVGID_33_" width="1920" height="3053.1"/>
	</defs>
	<clipPath id="SVGID_2_">
		<use xlink:href="#SVGID_33_"  style="overflow:visible;"/>
	</clipPath>
	<g class="st0">
		<g>
			<defs>
				<rect id="SVGID_35_" x="-35.4" y="-23.5" width="1984.7" height="1744.7"/>
			</defs>
			<clipPath id="SVGID_4_">
				<use xlink:href="#SVGID_35_"  style="overflow:visible;"/>
			</clipPath>
			<path style="clip-path:url(#SVGID_4_);fill:#F2F0F2;" d="M2083.8-1280.2c45.9,111.4,101.6,282,116.4,496.2
				c5.7,82.3,14,295.4-49,514.6c-120.9,420.9-447.1,663.8-600.4,778C778,1084.4-301,841.8-464.7,802.7c-9,281.9-18,563.9-27,845.8
				c868.7-8.3,1737.4-16.6,2606.1-24.9c138.3-739.9,276.6-1479.7,414.9-2219.6C2380.8-824,2232.3-1052.1,2083.8-1280.2z"/>
			<path style="clip-path:url(#SVGID_4_);fill:#F2F0F2;" d="M2083.8-1441.6c45.9,111.4,101.6,282,116.4,496.2
				c5.7,82.3,14,295.4-49,514.6C2030.2-10,1704.1,233,1550.8,347.2C778,923-301,680.4-464.7,641.3c-9,281.9-18,563.9-27,845.8
				c868.7-8.3,1737.4-16.6,2606.1-24.9c138.3-739.9,276.6-1479.7,414.9-2219.6C2380.8-985.4,2232.3-1213.5,2083.8-1441.6z"/>
		</g>
		<g>
			<defs>
				<rect id="SVGID_37_" x="-34.2" y="1079.3" width="1983.4" height="2085.4"/>
			</defs>
			<clipPath id="SVGID_6_">
				<use xlink:href="#SVGID_37_"  style="overflow:visible;"/>
			</clipPath>
			<path style="clip-path:url(#SVGID_6_);fill:#F2F0F2;" d="M5310.2,2734c-362-78.1-897-160.2-1540.5-129.6
				c-772.6,36.7-1168.2,210.5-1741.1,335.8c-1291.9,282.5-1653.6-82.3-3097.6-26c-1356.1,52.9-1582,396-3027.1,658.7
				c-930.9,169.2-2322.3,296.9-4128.7-3.7l395.9-1157.3L5626,1840.9L5310.2,2734z"/>
			<path style="clip-path:url(#SVGID_6_);fill:#F4E1EB;" d="M5114.3,2672.9c-362-78.1-897-160.2-1540.5-129.6
				c-772.6,36.7-1168.2,210.5-1741.1,335.8C540.7,3161.5,179,2796.7-1265,2853c-1356.1,52.9-1582,396-3027.1,658.7
				c-930.9,169.2-2322.3,296.9-4128.7-3.7l395.9-1157.3L5430,1779.8L5114.3,2672.9z"/>
			<path style="clip-path:url(#SVGID_6_);fill:#893F87;" d="M-506.8,1283.9c173.7,37.5,419.9,160.9,729.1,158
				c392.8-3.6,534.6-21.2,809.5-81.3c620-135.6,793.6,39.5,1486.6,12.5c650.8-25.4,759.2-190,1452.7-316.1
				c446.8-81.2,1114.5-142.5,1981.3,1.8l38.1,923l-6457,274L-506.8,1283.9z"/>
			<path style="clip-path:url(#SVGID_6_);fill:#F4E1EB;" d="M-440.5,1530.9c173.7,37.5,418.2,39.6,727.1,24.9
				c370.8-17.6,571.5-107.9,846.4-168c620-135.6,793.6,39.5,1486.6,12.5c650.8-25.4,759.2-190,1452.7-316.1
				c446.8-81.2,1114.5-142.5,1981.3,1.8l56.6,1191.4l-6457,274L-440.5,1530.9z"/>
		</g>
	</g>
</g>
</svg>
