<?xml version="1.0" encoding="utf-8"?>
<!-- Generator: Adobe Illustrator 23.0.1, SVG Export Plug-In . SVG Version: 6.00 Build 0)  -->
<svg version="1.1" id="Layer_1" xmlns="http://www.w3.org/2000/svg" xmlns:xlink="http://www.w3.org/1999/xlink" x="0px" y="0px"
	 viewBox="0 0 108.6 123.3" style="enable-background:new 0 0 108.6 123.3;" xml:space="preserve">
<style type="text/css">
	.st0{clip-path:url(#SVGID_2_);fill:#FFFFFF;}
	.st1{clip-path:url(#SVGID_2_);fill:none;stroke:#939393;stroke-width:2.5;stroke-miterlimit:10;}
	.st2{clip-path:url(#SVGID_2_);fill:#D888D8;}
	
		.st3{clip-path:url(#SVGID_2_);fill:none;stroke:#000000;stroke-width:2.5;stroke-linecap:round;stroke-linejoin:round;stroke-miterlimit:10;}
	.st4{clip-path:url(#SVGID_2_);fill:#90CAF9;}
	
		.st5{clip-path:url(#SVGID_2_);fill:none;stroke:#939393;stroke-width:2.5;stroke-linecap:round;stroke-linejoin:round;stroke-miterlimit:10;}
	.st6{clip-path:url(#SVGID_2_);fill:#939393;}
</style>
<g>
	<defs>
		<rect id="SVGID_1_" width="108.6" height="123.3"/>
	</defs>
	<clipPath id="SVGID_2_">
		<use xlink:href="#SVGID_1_"  style="overflow:visible;"/>
	</clipPath>
	<path class="st0" d="M84.9,108.3l-32.2-37v-70h-17v69.9L3.2,108.7c-1.2,1.4-2,3.2-2,5.2c0,4.5,3.7,8.2,8.2,8.2H79
		c4.5,0,8.2-3.7,8.2-8.2C87.2,111.7,86.3,109.7,84.9,108.3"/>
	<path class="st1" d="M84.9,108.3l-32.2-37v-70h-17v69.9L3.2,108.7c-1.2,1.4-2,3.2-2,5.2c0,4.5,3.7,8.2,8.2,8.2H79
		c4.5,0,8.2-3.7,8.2-8.2C87.2,111.7,86.3,109.7,84.9,108.3z"/>
	<path class="st2" d="M3.2,108.7c-1.2,1.4-2,3.2-2,5.2c0,4.5,3.7,8.2,8.2,8.2H79c4.5,0,8.2-3.7,8.2-8.2c0-2.2-0.9-4.2-2.3-5.7
		L68.6,89.6H19.7L3.2,108.7z"/>
	<path class="st1" d="M84.9,108.3l-32.2-37v-70h-17v69.9L3.2,108.7c-1.2,1.4-2,3.2-2,5.2c0,4.5,3.7,8.2,8.2,8.2H79
		c4.5,0,8.2-3.7,8.2-8.2C87.2,111.7,86.3,109.7,84.9,108.3z"/>
	<line class="st1" x1="52.9" y1="11.9" x2="46" y2="11.9"/>
	<line class="st1" x1="52.9" y1="22.4" x2="46" y2="22.4"/>
	<line class="st1" x1="52.9" y1="32.8" x2="46" y2="32.8"/>
	<line class="st1" x1="52.9" y1="43.3" x2="46" y2="43.3"/>
	<line class="st1" x1="52.9" y1="53.8" x2="46" y2="53.8"/>
	<line class="st1" x1="52.9" y1="64.3" x2="46" y2="64.3"/>
	<path class="st1" d="M46.2,99c0,1.1-0.9,2-2,2c-1.1,0-2-0.9-2-2c0-1.1,0.9-2,2-2C45.3,97,46.2,97.9,46.2,99z"/>
	<path class="st1" d="M37.8,113.2c0,1.1-0.9,2-2,2c-1.1,0-2-0.9-2-2c0-1.1,0.9-2,2-2C36.9,111.2,37.8,112.1,37.8,113.2z"/>
	<path class="st1" d="M54.9,107.7c0,1.1-0.9,2-2,2c-1.1,0-2-0.9-2-2c0-1.1,0.9-2,2-2C54,105.7,54.9,106.6,54.9,107.7z"/>
	<path class="st1" d="M27.7,100.5c0,1.9-1.6,3.5-3.5,3.5c-1.9,0-3.5-1.6-3.5-3.5s1.6-3.5,3.5-3.5C26.1,97,27.7,98.6,27.7,100.5z"/>
	<path class="st3" d="M103.9,32.9v70.4c0,10.3-8.3,18.6-18.6,18.6c-10.3,0-18.6-8.3-18.6-18.6V32.9H103.9z"/>
	<rect x="63.2" y="25.2" class="st2" width="44.1" height="7.7"/>
	<rect x="63.2" y="25.2" class="st1" width="44.1" height="7.7"/>
	<rect x="66.7" y="17.4" class="st2" width="37.1" height="7.8"/>
	<rect x="66.7" y="17.4" class="st1" width="37.1" height="7.8"/>
	<path class="st4" d="M66.7,43.5v59.8c0,10.3,8.3,18.6,18.6,18.6c10.3,0,18.6-8.3,18.6-18.6V43.5H66.7z"/>
	<path class="st5" d="M97.7,58.3C97.7,70,72.9,72.5,72.9,82c0,9.5,24.9,12,24.9,23.7"/>
	<path class="st5" d="M72.9,105.7C72.9,94,97.7,91.5,97.7,82c0-9.5-24.9-12-24.9-23.7"/>
	<line class="st5" x1="77.2" y1="82" x2="92.9" y2="82"/>
	<line class="st5" x1="80.7" y1="86.2" x2="89.4" y2="86.2"/>
	<line class="st5" x1="77.2" y1="59.2" x2="92.9" y2="59.2"/>
	<line class="st5" x1="80.7" y1="63.5" x2="89.4" y2="63.5"/>
	<line class="st5" x1="80.7" y1="77.8" x2="89.4" y2="77.8"/>
	<line class="st5" x1="77.2" y1="104.8" x2="92.9" y2="104.8"/>
	<line class="st5" x1="80.7" y1="100.5" x2="89.4" y2="100.5"/>
	<path class="st5" d="M66.7,32.9v70.4c0,10.3,8.3,18.6,18.6,18.6c10.3,0,18.6-8.3,18.6-18.6V32.9H66.7z"/>
	<path class="st6" d="M91.1,50.5c0,0.9-0.8,1.7-1.7,1.7s-1.7-0.8-1.7-1.7c0-0.9,0.8-1.7,1.7-1.7S91.1,49.6,91.1,50.5"/>
	<path class="st6" d="M81.7,113.2c0,0.9-0.8,1.7-1.7,1.7c-0.9,0-1.7-0.8-1.7-1.7c0-0.9,0.8-1.7,1.7-1.7
		C80.9,111.5,81.7,112.3,81.7,113.2"/>
	<path class="st6" d="M100.5,93.5c0,0.9-0.8,1.7-1.7,1.7s-1.7-0.8-1.7-1.7c0-0.9,0.8-1.7,1.7-1.7S100.5,92.5,100.5,93.5"/>
	<path class="st6" d="M75.7,70.3c0,0.9-0.8,1.7-1.7,1.7c-0.9,0-1.7-0.8-1.7-1.7c0-0.9,0.8-1.7,1.7-1.7
		C74.9,68.6,75.7,69.4,75.7,70.3"/>
</g>
</svg>
